<svg xmlns="http://www.w3.org/2000/svg" id="Layer_1" viewBox="0 0 819.3 289.4"><style>.st0{fill:#603913;} .st1{fill:#FFFFFF;} .st2{fill:#414042;}</style><path d="M163.8 99.3v.3s0-.1.1-.1c-.1 0-.1-.1-.1-.2zm.3.3l-.1-.1-.1.1h.2zm-.3-7.8c-.3 0-.3 0-.3.3.3-.1.3-.3.3-.3zm-10.6 19.4h-.3v.3l.3-.3zm-2.3 2.3v.3c.3-.1 0-.1 0-.3zm31.9 22.8c0 .1-.1.2-.1.2.1-.1.1-.1.1-.2zm-41-12.7c0-.3.5-.3.3-.5l-.3.3v.2zM164.6 91h-.3v.3s0-.3.3-.3zm6.5 66.2c0-.3.3-.3.3-.3h-.3v.3zm-11.3-56.3c0 .3.3.3.3.3-.1-.3-.1-.3-.3-.3zm6.5-5.9zm0 0l.5-.5v-.3l-.3.3c-.2.3-.2.3-.2.5zm-12.6 13.5v.2h.3l-.3-.2zm10.9-12.4h.3c-.1-.1-.1-.1-.2-.1s-.1.1-.1.1zm20.7-56.4h.3v-.3c-.1 0-.3 0-.3.3zM165.6 90c0 .3-.3.3-.3.3.3-.1.3-.1.3-.3zm-15.5 22.7s0-.3.3-.3h-.3v.3z"/><path d="M159.5 101.6c0-.3.3-.3.3-.3h.3c-.3 0-.3-.3-.5-.3-.1.4-.1.4-.1.6zm-6.6 4.3c-.2 0-.2 0-.2.2 0 .1 0-.2.2-.2zm-1.5 4.3h-.3v.3s.1-.3.3-.3zm9.9-13.9h-.3v.3c.3 0 .3-.3.3-.3zm24 32.9v-.3l-.3.3zm278 68v-.3h-.3zm12.9-6.1h.3l-.3-.3v.3zm1.5-.8s0-.3.3-.3h-.3v.3zm13.9-62.4v-.3c-.3.3-.5.3-1 .3l.3.3c.2 0 .4-.3.7-.3zm3.5-2h.3v-.3c-.3 0-.3.3-.3.3zm309.5-12h-.3l.3.3v-.3zm-90.5 67.3v.3l.3-.3h-.3zm2.3 19.9v.3h.3c0-.3-.3-.3-.3-.3zm85.7-108.9l-.3-.3v.3h.3zm5.2.2s.1 0 0 0c.1-.1.1-.1 0 0z"/><path d="M821.3 88.4h-.3c-.3 0-.5.3-.8.3-.5.3-.8.3-1.3.5-.5.3-1.3.5-1.5 1.3h-.3v-.6c-.3.3-.3.5-.5.5v.5c-.5-.5-.8-.5-1.3 0-.3-.3-.5.3-.5.5h-.8v-.3h-.3v.5c-.3-.3-.3-.3-.5 0-.3.3-.3.3 0 .5-.5 0-.3-.3-.3-.5l-.3.3s0-.3.3-.5c-.3 0-.5.3-.8.3-.3 0-.5.3-.5.8V92l.3-.3h.1l-.5.5.3.3h-.3c-.3-.8-.5-.8-.8-.3 0 0 0 .3.3.3h-.3s-.3-.3-.3-.5v.3h-.5c-.3 0-.5.3-.8 0 0-.3-.3-.3-.5.3 0 .3 0 .3-.3.5v-.3l-.3-.3c.3 0 .3-.3.5-.3-.5 0-1 .3-.8.3v.3h-.3v-.3h-.9l-.3-.3h-.2v.3c-.3 0-.3-.3-.5-.3v.3l-.3-.3c-.3 0-.3 0-.3.3h.2c-.1.2-.4.1-.4.3-.3-.3-.3-.5-.3-.5-.3 0-.3.3-.3.3-.3 0-.3-.5-.5 0 0-.3-.3-.3-.3-.3v.3h-.3v.3c-.3 0-.3-.3-.5-.5-.3.3-.3.3-.5.3v-.5c0 .3 0 .3-.3.5v-.5c-.3.3-.3.3-.3.5-.3-.3-.5-.3-.8-.3h.3c-.3-.3-.5-.3-.8 0 0-.5-1-.8-1.3-.5 0-.3-.5-.3-.8-.3-.3-.3-.5-.3-.8 0-.3-.5-.3-.5-.8 0 .3-.5 0-.5-.3-.5-.5-.3-1-.5-1.5-.5 0-.3 0-.5.2-.5 1-1.8 2.3-3.3 3.5-5.1 3.8-6.3 7.8-12.4 11.6-18.5 1-1.5 2-2.8 2.5-4.3.3 0 .3-.3.5-.3.3-.5.8-.8 1-1.3.3-.3.8-.5 1-.8.5-.5 1-1 1.5-1.8.5-.5 1.3-1.3 1.8-2 1-1 1.3-3 .5-4.6-.5-.5-.8-1.3-1.3-2 0-.3-.3-.8-.5-1-.3-.3-.5-.8-.8-1.3-1-1.3-2-2.5-3-4-2-3.3-4-6.3-6.6-8.9-2.8-2.8-8.6-10.7-13.3-8.9-2.6 1-3.4 4.1-4.8 6.2-1.7 2.5-3.7 4.5-5.2 7.2-3.5 6.4-7.4 12.5-11.6 18.6-4.3 6.6-8.9 13.4-13.4 20.2-5.8 8.6-11.6 17.7-16.9 27-5.6 9.3-10.6 19.2-14.9 29.6v.5c-.3.5-.5.8-.8 1-.5 1.3-1 2.5-1.3 4-.8 1.8-1.5 3.5-2 5.3-.3.5-.5.8-.3 1.3v.3h-.3v-.3c-.3.3-.3.5-.3 1-.3.3-1 2.5-.8 2.8-.8 1-1 2.3-1.3 3.3 0 .3.3.5.3.5v.3c-.3-.3-.5 0-.5.3s-.3.5-.3 1c-.3.3-.3.5 0 .5l-.3.3c-.3.3-.3.3 0 .5v-.3h.3c-.3 0-.3 0-.3.3-.3.3-.3.3-.3.8v.8l-.3-.3c-.3.8-.5 1.3-.8 2v.5c0 .3-.3.5-.3.5 0 .4-.2.7-.1.9l-.2.2c-1 1-2 1.8-2.8 2.8-.5.3-.8.5-1.3.8-.3.3-.3.5-.5.8-.8.5-1.3 1-2 1.5-1.3.8-2.3 1.5-3.5 2-.5.3-1 .3-1.3.5-.5 0-1 .3-1.5.5-.3 0-.5 0-.8.3-.3 0-1.3-.3-1.5-.5-.3-.3-.3-.3-.3-.5.3-1.3.8-2.5 1.3-3.8 1-2.3 2.3-4.6 3.5-6.8.5-1 1-2 1.5-2.8 1-2.3 2.3-4.5 3.5-6.8.5-.8.8-1.8 1.3-2.5.8-1.5 1.5-2.8 2-4.3.3-.3.3-.5.3-.8.3-.3.3-.8.5-1V138c-.3-1-.5-2-1-3-.3-.3-.5-.5-.8-1-.5-.5-1-1.3-1.8-1.8-1-.5-2-1.3-3-1.8l-3-.8c-1.3-.3-2.5-.5-4-.5s-3 0-4.6.8c-.8.3-1.5.5-2.3 1-.3.5-.8.8-1 1-.3 0-.3.3-.3.3-.5 0-.8.3-1 .5-.3.3-.5.8-.8 1-.3.3-.5.5-.8 1 0 0-.3.3-.3.5-.3 0-.5.3-.5.3-.3.3-.5.5-.5.8v.3c-.5 0-.5.3-.5.5l-.3.3h-.3c0 .3-.5.3-.5.8-.3 0-.3.3-.5.3 0 0-.3.3-.3.5h-.3v.6l-.3-.3c-.3.3-.5.5-.3.8v.3c-.3 0-.3-.3-.3-.3-.3 0-.3.3-.5.3v.3h-.3c0 .3 0 .3.3.3h-.5c.3 0 .3.3.3.3h-.3v-.3c0 .3-.3.3-.3.5h-.3c0 .3-.3.3-.3.5h-.3c-.3.3-.3.3-.3.5 0 0-.3 0-.3.3h2.2s0 .3.3.3h-.3v-.3c0 .3-.3.3-.3.5v-.3c0 .3-.3.3-.3.3v.3c-.3 0 0 0 0 .3h-.3c-.3 0-.3.3-.5.3v.3h-.3c0 .3 0 .3.3.3h-.5c0 .3.3.3.3.3h-.3l-.3.3c-.2 0-.3.2-.3.3 0 .2-2.2 2.5-2.4 2.7-.8.9-1.7 1.8-2.5 2.7l-1.2 1.5c-2.1 2.9-4.2 5.8-6.9 8.2-.8.7-1.7 1.5-2.6 2.2-1.3 1.5-2.7 2.8-4.3 3.9-1.6 1.9-3.1 3.9-5.2 5-.6.7-1.2 1.4-1.8 2-.6.5-3.2 3-5.5 4.3l-.1.1c-.4.5-.9.6-1.4.6-1.3.5-2.3.1-2-1.9.3-2.6 2.2-4.8 3.6-6.9 1.9-2.9 4-5.7 6.1-8.4 3.5-4.8 7.3-9.1 11.4-13.4 2-2 4-4.3 6.3-6.3 3.8-3.8 7.6-7.3 11.9-10.9 1.3-1.3 3-2.3 4.5-3.5.8-.5 1.5-1 2-1.8.3-.3.8-.5 1-.8.3 0 .3 0 .3-.3.3.3.3 0 .5 0l.3-.3h.3v-.3s.3 0 .3.3c0-.3.3-.5.3-.8v.3h.6c-.3 0 0-.3 0-.3h.5l-.2-.2s.2 0 .2.2c.1 0 .2-.1.3-.2h.3c.3 0 .3-.3.5-.3.3 0 .3 0 .5-.3l.3-.3v.3l.3-.3c.3 0 .5 0 .5-.3h.3c.3 0 .3 0 .3-.3.3.3.5 0 .5 0 .3 0 .5 0 .8-.3.3 0 .3 0 .5-.3h.5l.3-.3h1c.3 0 .3 0 .5-.3h.3v-.3l.3.3.3-.3c.3.3.5 0 .8.3.3-.3.5 0 .8 0 .5 0 .8.3 1.3.3.3.3.3.3.5.3.8.8.8 1.8 1 2.5v.3c-.5.8-.3 1.3 0 2 .3.5.5 1 1 1.5l.8.8c.3.3.5.3.8.3l.5.5h.6l.3.3c.3 0 .5 0 .3.3l.3-.3.3.3s.3 0 .3-.3h.3s0 .3-.3.3c.3 0 .5 0 .5.3l.3-.3v.3l.3-.3.3-.3v.5h.6c.5.3 1.3.3 2 0h1.3c.3-.3.5-.3 1-.3l.3-.3c.3-.3.5-.5 1-.8.3-.5.5-.8 1-1.3v-.3c.3 0 .3-.3.3-.3 0-.3 0-.3.3-.5v-.5h.3v-.3h.3s-.3 0-.3-.3l.3.3c0-.3.3-.5.3-.8h.2v-.3s.3-.3.3-.5c0-.3.3-.3.3-.3 0-.3 0-.3-.3-.5l.3.3c0-.3 0-.5.3-.5.3-.3.3-.5.3-.5.5-1.3.8-2.5.8-3.8 0-1.8 0-3.3-.3-5.1 0-.3-.3-.8-.3-1 0-.8-.3-1.3-.5-2 0-.8-.3-1.5-.8-2.3-.3-.5-.5-1-.8-1.5-.5-.8-1-1.5-1.8-2.3-.8-.8-1.3-1.3-2-1.8-1.3-.8-2.3-1.5-3.5-2.3-.8-.5-1.5-1-2.3-1.3l-1.5-.8c-.3-.3-.5-.3-.8-.5-1-.3-2-.5-3-.8-.3-.3-.8-.5-1-.3-.3-.3-.8-.5-1.3-.8H704c-.5-.3-1 0-1.5-.3-.8 0-1.3 0-2-.3-.5 0-1-.3-1.8-.3-.5 0-1.3 0-1.8-.3h-2.8c-.8 0-1.8-.3-2.5-.3h-3.3c-.5 0-1 0-1.5.3-1.3 0-2.5.3-3.5.5-1 0-1.8.3-2.8.5-2.8.8-5.6 1.5-8.3 2.5-1 .5-1.8.8-2.5 1-.8.3-1.3.5-2 .8-.8.5-1.5 1-2 1.3-.3.3-.5.3-.8.5h-.3c-.3.5-.5.5-.8.8-.8.5-1.5 1-2.3 1.8 0 0 0 .3-.3.3l-.8.8h-.3c0 .3-.3.5-.5.5 0 .3 0 .3.3.3h-.6l-.3.3v.3c-.3 0-.3.3-.3.3h-.3c-.3.3-.8.5-.8.8h-.3v.3c-.3 0-.3.3-.5.3-.3 0-.3.3-.5.5l.3.3h-.5l.3.3h-.8c0 .3-.5.5-.3.8v.3h-.3c-.3 0-.5.3-.5.3.3.3-.3.3 0 .5-.3 0-.3 0-.3-.3v.8h-.3c-.3 0-.3 0-.5-.3 0 .3 0 .3.3.5h-.3v.3l-.3-.3v.3h-.3v.6s0-.3-.3-.3c0 .3-.3.3-.3.5-.3 0-.3.3-.3.5 0 0-.3-.3-.5.3v.3h-.3c-.3 0 0 .3 0 .5h-.3c-.3 0-.3 0-.3.3v.3c-.3 0-.5 0-.5.3s-.3.3-.3.5c0 0-.3 0-.3.3-.3.3-.3.3-.5.3l.3.3h-.3v.3c-.3 0-.5.3-.5.5-.5 0-.5.5-.8.8l-.3.3c-.3.5-.5.8-.8 1-.3.5-.8.8-.8 1.3 0 .3-.3.3-.3.3-.8 1-1.8 2.3-2.5 3.3-3.8 4.3-7.1 8.8-10.4 13.4-3.5 5.3-6.8 10.9-9.9 16.4-1.3 2.5-2.5 4.8-3.8 7.3-1.8 3.5-3 7.1-4 10.9-.1.7-.2 1.3-.2 1.9-3.6 4.6-7.5 8.9-12.1 12.7-.3.3-.5.5-1 .8-.3.3-.8.3-1 .8-.3.3-.5.5-.8.5-.3.3-.8.3-1 0-1.5-1-1.3-1-1.8-2.5-.8-2.5-1.8-5.3-2.5-8.1-1.8-5.6-3.3-11.4-4.3-17.2-.8-3.5-1.3-7.1-2-10.6v-1.8c-.3-1.8-.5-3.5-.5-5.3-.3-.8-.3-1.3-.3-2 .3 0 .3 0 .5-.3 6.1-2 12.1-4.5 18.2-7.3s12.4-5.6 18.5-8.3c2.8-1.3 5.6-2.8 8.3-4 .5-.3 1-.8 1.5-1 1-.8 1.8-1 2.8-1.5 1.8-.8 3.8-1.8 5.6-2.8.8-.3 1.3-.8 2-1.5 1.8-1.5 2.8-3.5 3-6.1 0-2.8-.5-5.6-1.8-8.1-.3-.5-.5-.8-.8-1.3-.5-.8-.8-1.8-1-2.8-.3-1-.8-2-1.5-2.8-1.3-1.3-2.5-1.8-4.3-1.5-2 .5-3.8 1.3-5.8 1.8-3 .8-5.8 2-8.8 3.3-.3 0-.3.3-.5.3-.5.3-1 .5-1.5.8-.5.5-1 .8-1.5 1-.5.3-1 .5-1.5.8-1 .5-1.8 1.3-2.8 2-.3.3-.5.5-1 .8-3.5 2.5-7.1 4.6-10.9 6.6-2 .8-3.8 2-5.3 3.3-.5.5-1 .8-1.8 1.3-5.6 3-11.1 6.3-16.7 9.4l-3 1.5c-.3.3-.8.3-1 .8 0 0 0 .3-.3.3.3-.3.3-.5.5-.8 2.8-4.5 5.6-9.1 8.8-13.6 6.1-9.1 12.4-17.9 18.7-27 5.1-7.1 10.1-14.2 15.2-21.2 1.8-2.5 3.3-5.1 5.1-7.6.8-1.3 1.8-2.5 2.8-3.5.8-1 1.5-2 2.3-3 1.5-1.8 2.3-3.8 2.8-5.8.3-.5.3-.8.5-1 1-1.5 2.3-3 3.3-4.3.3-.3.3-.3.3-.5.5-.8 1.3-1.3 2-2 1-.8 2.3-1.5 3.3-2.3.5-.3 1-.8 1.5-1 1.3-1.3 2-2.5 2.3-4.3.3-1.8-.5-3.3-1.8-4.8-.5-.5-1-1-1.5-1.3-3.3-3-6.8-5.6-10.6-8.1-1.8-1.3-3.5-2.3-5.1-3.5-.5-.3-.8-.5-.8-.8-1-1-2-1.8-3.3-1.8-.3 0-.3 0-.3-.3h-2c-.3.3-.5.3-.8.3-.8.3-1.3.5-2 1v.3c-1 .5-1.5 1.3-2.3 2-1 1.3-1.8 2.5-2.8 3.8-.3.3-.3.3-.3.5-.3.8-.8 1-1 1.8v.3c-1 .8-1.5 1.5-2 2.5-.3.5-.5.8-.8 1.3-.8.8-1.3 1.8-1.8 2.8-.3.5-.8.8-1.3 1.3s-1 .8-1.3 1.3c-.8.8-1.3 1.8-1.5 2.5-.3.5-.5.8-.8 1-2.5 3.3-4.8 7.1-7.1 10.6-2.5 4-5.3 7.8-7.8 11.9-.5.5-.8 1.3-1.3 1.8-2.5 3.3-4.6 6.8-6.8 10.4-8.3 12.9-16.7 25.8-25 38.7-3.8 6.1-7.6 11.9-11.4 17.9-4.6 7.1-8.3 14.2-12.1 21.5-3.1 5.9-6.2 11.9-9.1 18-.4.2-.8.5-1.3.7-.3.5-.3.5-.5.8-.3 0-.5.3-.8.5-1 1-2 1.8-2.8 2.8-.5.3-.8.5-1.3.8-.3.3-.3.5-.5.8-.8.5-1.3 1-2 1.5-1.3.8-2.3 1.5-3.5 2-.5.3-1 .3-1.3.5-.5 0-1 .3-1.5.5-.3 0-.5 0-.8.3-.3 0-1.3-.3-1.5-.5-.3-.3-.3-.3-.3-.5.3-1.3.8-2.5 1.3-3.8 1-2.3 2.3-4.6 3.5-6.8.5-1 1-2 1.5-2.8 1-2.3 2.3-4.5 3.5-6.8.5-.8.8-1.8 1.3-2.5.8-1.5 1.5-2.8 2-4.3.3-.3.3-.5.3-.8.3-.3.3-.8.5-1V138c-.3-1-.5-2-1-3-.3-.3-.5-.5-.8-1-.5-.5-1-1.3-1.8-1.8-1-.5-2-1.3-3-1.8l-3-.8c-1.3-.3-2.5-.5-4-.5s-3 0-4.6.8c-.8.3-1.5.5-2.3 1-.3.5-.8.8-1 1-.3 0-.3.3-.3.3-.5 0-.8.3-1 .5-.3.3-.5.8-.8 1-.3.3-.5.5-.8 1 0 0-.3.3-.3.5-.3 0-.5.3-.5.3-.3.3-.5.5-.5.8v.3c-.5 0-.5.3-.5.5l-.3.3h-.3c0 .3-.5.3-.5.8-.3 0-.3.3-.5.3 0 0-.3.3-.3.5h-.3v.6l-.3-.3c-.3.3-.5.5-.3.8v.3c-.3 0-.3-.3-.3-.3-.3 0-.3.3-.5.3v.3h-.3c0 .3 0 .3.3.3h-.5c.3 0 .3.3.3.3h-.3v-.3c0 .3-.3.3-.3.5h-.3c0 .3-.3.3-.3.5h1.8c-.3.3-.3.3-.3.5 0 0-.3 0-.3.3h-.3s0 .3.3.3h-.3v-.3c0 .3-.3.3-.3.5v-.3c0 .3-.3.3-.3.3v.3c-.3 0 0 0 0 .3h-.3c-.3 0-.3.3-.5.3v.3h-.3c0 .3 0 .3.3.3h-.5c0 .3.3.3.3.3h-.3l-.3.3c-.2 0-.3.2-.3.3 0 .2-2.2 2.5-2.4 2.7-.8.9-1.7 1.8-2.5 2.7l-1.2 1.5c-2.1 2.9-4.2 5.8-6.9 8.2-.8.7-1.7 1.5-2.6 2.2-1.3 1.5-2.7 2.8-4.3 3.9-1.5 1.9-3.1 3.9-5.2 5-.6.7-1.2 1.4-1.8 2-.6.5-3.2 3-5.5 4.3l-.1.1c-.4.5-.9.6-1.4.6-1.3.5-2.3.1-2-1.9.3-2.6 2.2-4.8 3.6-6.9 1.9-2.9 4-5.7 6.1-8.4 3.5-4.8 7.3-9.1 11.4-13.4 2-2 4-4.3 6.3-6.3 3.8-3.8 7.6-7.3 11.9-10.9 1.3-1.3 3-2.3 4.6-3.5.8-.5 1.5-1 2-1.8.3-.3.8-.5 1-.8.3 0 .3 0 .3-.3.3.3.3 0 .5 0l.3-.3h.3v-.3s.3 0 .3.3c0-.3.3-.5.3-.8v.3h.6c-.3 0 0-.3 0-.3h.5l-.2-.2s.2 0 .2.2c.1 0 .2-.1.3-.2h.3c.3 0 .3-.3.5-.3.3 0 .3 0 .5-.3l.3-.3v.3l.3-.3c.3 0 .5 0 .5-.3h.3c.3 0 .3 0 .3-.3.3.3.5 0 .5 0 .3 0 .5 0 .8-.3.3 0 .3 0 .5-.3h.5l.3-.3h1c.3 0 .3 0 .5-.3h.3v-.3l.3.3.3-.3c.3.3.5 0 .8.3.3-.3.5 0 .8 0 .5 0 .8.3 1.3.3.3.3.3.3.5.3.8.8.8 1.8 1 2.5v.3c-.5.8-.3 1.3 0 2 .3.5.5 1 1 1.5l.8.8c.3.3.5.3.8.3l.5.5h.6l.3.3c.3 0 .5 0 .3.3l.3-.3.3.3s.3 0 .3-.3h.3s0 .3-.3.3c.3 0 .5 0 .5.3l.3-.3v.3l.3-.3.3-.3v.5h.6c.5.3 1.3.3 2 0h1.3c.3-.3.5-.3 1-.3l.3-.3c.3-.3.5-.5 1-.8.3-.5.5-.8 1-1.3v-.3c.3 0 .3-.3.3-.3 0-.3 0-.3.3-.5v-.5h.3v-.3h.3s-.3 0-.3-.3l.3.3c0-.3.3-.5.3-.8h.2v-.3s.3-.3.3-.5c0-.3.3-.3.3-.3 0-.3 0-.3-.3-.5l.3.3c0-.3 0-.5.3-.5.3-.3.3-.5.3-.5.5-1.3.8-2.5.8-3.8 0-1.8 0-3.3-.3-5.1 0-.3-.3-.8-.3-1 0-.8-.3-1.3-.5-2 0-.8-.3-1.5-.8-2.3-.3-.5-.5-1-.8-1.5-.5-.8-1-1.5-1.8-2.3-.8-.8-1.3-1.3-2-1.8-1.3-.8-2.3-1.5-3.5-2.3-.8-.5-1.5-1-2.3-1.3l-1.5-.8c-.3-.3-.5-.3-.8-.5-1-.3-2-.5-3-.8-.3-.3-.8-.5-1-.3-.3-.3-.8-.5-1.3-.8h-1.3c-.5-.3-1 0-1.5-.3-.8 0-1.3 0-2-.3-.5 0-1-.3-1.8-.3-.5 0-1.3 0-1.8-.3h-2.8c-.8 0-1.8-.3-2.5-.3H491c-.5 0-1 0-1.5.3-1.3 0-2.5.3-3.5.5-1 0-1.8.3-2.8.5-2.8.8-5.6 1.5-8.3 2.5-1 .5-1.8.8-2.5 1-.8.3-1.3.5-2 .8-.8.5-1.5 1-2 1.3-.3.3-.5.3-.8.5h-.3c-.3.5-.5.5-.8.8-.8.5-1.5 1-2.3 1.8 0 0 0 .3-.3.3l-.8.8h-.3c0 .3-.3.5-.5.5 0 .3 0 .3.3.3h-.6l-.3.3v.3c-.3 0-.3.3-.3.3h-.3c-.3.3-.8.5-.8.8H459v.3c-.3 0-.3.3-.5.3-.3 0-.3.3-.5.5l.3.3h-.5l.3.3h-.8c0 .3-.5.5-.3.8v.3h-.3c-.3 0-.5.3-.5.3.3.3-.3.3 0 .5-.3 0-.3 0-.3-.3v.8h-.3c-.3 0-.3 0-.5-.3 0 .3 0 .3.3.5h-.3v.3l-.3-.3v.3h-.3v.6s0-.3-.3-.3c0 .3-.3.3-.3.5-.3 0-.3.3-.3.5 0 0-.3-.3-.5.3v.3h-.3c-.3 0 0 .3 0 .5h-.3c-.3 0-.3 0-.3.3v.3c-.3 0-.5 0-.5.3s-.3.3-.3.5c0 0-.3 0-.3.3-.3.3-.3.3-.5.3l.3.3h-.3v.3c-.3 0-.5.3-.5.5-.5 0-.5.5-.8.8l-.3.3c-.3.5-.5.8-.8 1-.3.5-.8.8-.8 1.3 0 .3-.3.3-.3.3-.8 1-1.8 2.3-2.5 3.3-3.8 4.3-7.1 8.8-10.4 13.4-3.5 5.3-6.8 10.9-9.9 16.4 0 0 0 .1-.1.1-6.3 6.3-14.8 12.2-22.2 16.8 2.1-3.1 4-6.3 5.8-9.8 1-1.8 2.3-3.8 3-5.8 3.8-8.1 7.3-16.4 10.4-25 1.8-4.5 2.5-9.6 2.5-14.4v-2.1c-.3-.8-.3-1.8-.3-2.8-.3-2.3-.8-4.5-1.8-6.6-2-3.5-4.8-5.6-8.8-6.3-2.5-.5-5.1-.8-7.6-.3-2.8.5-5.6 1-8.1 2.3-.5 0-.8.3-1 .5-.3.3-.5.5-.8.5-1.5 1-2.8 1.8-4.3 2.8-1 .5-2 1.3-3 2.3-.8.5-1.5 1.3-2.3 2-.5.3-.8.8-1.3 1-2 1.8-4 3.5-6.1 5.1-2 1.8-4.3 3.5-6.3 5.3-4.3 3.8-8.8 7.8-13.1 11.9-4.5 4-9.1 8.1-13.6 12.1l-.5.5c0-.3.3-.5.3-.8.8-1.5 1.8-3 2.5-4.5 1-1.8 2.3-3.8 3.3-5.6.8-1.5 1.5-3.3 2.5-4.5.3-.3.3-.3.3-.5 1-2 2.3-3.8 3.3-5.8.3-.5.8-1.3 1-1.8.8-1.3 1.5-2.3 2.3-3.5.5-.5.8-1 1-1.8.3 0 .5-.5.8-.8 0-.5.3-.8.5-1 .3-.3.3-.3.3-.5.3-.5.5-.8.8-1v-.5c.5 0 .5-.5.8-.8.8-.8 1-1.8 1.8-2.5l.3-.3c.3-.3.3-.8.5-1 .5-.5.8-1.3 1.3-1.8.5-.8 1-1.5 1.5-2.3 2-3 4-5.8 6.3-8.8 1.5-1.8 2.8-3.5 4.3-5.6 4.3-5.6 8.6-11.1 12.9-16.7 1.8-2.5 3.5-4.8 5.3-7.3.8-1.3 1.8-2.5 2.5-3.5l.5-.5c.8-.5 1-1.3 1.8-1.5 0-.3.3-.5.3-.5 0-.5.3-1 .8-1.3 0-.3.3-.5.5-.8l1-1c.3-.3.3-.5.5-.5.3-.8.8-1.3 1-1.8.5-.5 1-1 1.3-1.5.5-.8.8-1.3 1.3-1.8s.8-1 1.3-1.3c.3-.5 1-1 1-1.8 0 0 .3 0 .3-.3 1-1.5 2.3-3 3.3-4.6 1.3-1.5 2.3-3.3 3.5-5.1.3-.3.5-.8.8-1 .3-.3.3-.5.3-1v-1c0-.5-.3-1-.5-1.8 0-.3-.3-.8-.3-1.3l-.3-.3h-.5c-1-1.3-2.3-2.5-3.5-3.5 0-.3-.3-.3-.3-.5-.8-1-1.5-2-2.8-2.5-.3 0-.3-.3-.5-.3-.3-.3-.5-.5-.8-.5-.3.3-.5 0-.8 0 0-.3-.3-.3-.5-.5-.8-.5-1.8-1.3-2.8-1.8-.3 0-.8-.3-1-.3h-.5c-.5-.3-1-.5-1.5-.8-1-.5-2.3-1-3.3-1.3-.3-.3-.5-.3-.5-.3-.5-.3-.8-.3-1.3 0h-.3c-.8-.3-1.8-.5-2.5-.8h-1.8c-1.8.3-3 1.3-4 2.5v.3c-.3.5-.5.8-1 .5 0 .5-.3 1-.5 1.5-.3 0-.3.5-.5.8-.3.5-1 1-1.5 1.3-.5.5-1.3 1.3-1.5 1.8-.2.5-.5.8-.8 1-.3.3-.5.8-.5 1-.3.5-.3.8-.5 1-.8.8-1.3 1.5-1.8 2.3-.8.8-1.3 1.8-2 2.5-.5.5-.8 1-1.3 1.5-.8.8-1.3 1.8-2 2.8-.5.5-.8 1-1 1.5-1 1.3-1.8 2.5-2.8 3.8-.3.8-.8 1.3-1.5 2 0 .3-.3.5-.5.8l.3.3c-.8.8-1.3 1.5-2 2-.3.3-.5.8-.5 1 .3.3 0 .5 0 .8-1.5 1.8-3 3.8-4.5 5.8-1.3 1.8-2.3 3.3-3.5 4.8 0 .3-.3.3 0 .5 0 .3.3 0 .5 0l.3-.3s0 .3-.3.3c0 .3-.3.3-.3.5-5.1 6.8-9.9 14.2-14.4 21.5-6.8 10.4-13.4 21.2-20 31.9-3.3 5.8-6.8 11.4-10.1 17.2-3.3 5.8-6.3 11.6-9.4 17.4L305 154c-8.2 8.2-20.2 15.9-28.6 20.8 1.9-4.1 4.1-7.9 6.3-11.7 1.8-3 3.5-6.3 5.3-9.3 1-1.5 1.8-3.3 2-5.1.3-.8.8-1.8 1.3-2.5 2.3-4.3 4.3-8.6 6.1-13.1 1.3-3.5 2.3-7.1 3-10.6.3-.8.5-1.8.8-2.5 1-2.3 1.8-4.8 2.3-7.3 0-.3 0-.5.3-.8v-3.8c-.3-.5-.3-1-.3-1.8-1-4.8-4-7.8-8.8-9.1-1.8-.5-3.8-1-5.8-1-.3 0-.3-.3-.5-.3h-.8c-.5 1-1.3 2-1.8 3.3-.3.3-.5.8-.5 1-1.5 4.8-3.5 9.4-6.1 13.6-.8 1.3-1.5 2.8-2.3 4.3-1 2-2 3.8-3.3 5.8-.3.3-.5.5-.5.8-.8 1.8-1.8 3.5-2.8 5.1-1 1.5-2 2.8-3 4.3-1.5 2.5-3.5 4.8-5.6 7.1-4.5 4.8-9.1 9.9-13.7 14.7-.8.8-1.8 1.8-2.8 2.5-.3.5-.8.8-1 1-2 2-4 3.8-6.1 5.3-.3.3-.3.5-.5.5l-1.3 1.3c-.8 0-1 .5-1.5 1-3.5 3-7.3 6.3-11.1 9.6-.5.3-1 .8-1.3 1-1 .8-2 1.3-3 1.5 0 .3 0 .3-.3.3 0-.3.3-.5.3-.8 3.3-6.6 7.1-13.1 11.1-19.2 3.5-5.6 7.1-10.9 10.6-16.4 1.8-2.8 3.8-5.8 5.6-8.8 1.3-1.8 2.3-3.8 3-5.8.3-.3.3-.5.3-.5 1.8-3 2.5-6.3 2.5-9.9 0-1.3-.3-2.8-.5-4.3-.5-2.3-1.8-4.6-3.3-6.3-2-2.5-4.3-4.5-7.3-5.8-.8-.5-1.5-1-2.3-1.5-2.8-1.5-5.3-2.5-8.1-3.3-1.8-.3-3.5-.5-5.3-.5-1.3 0-2.3 0-3.5.3-.8 0-1.5.3-2.3.5-.8.5-1.3 1-1.5 1.5 0 .3.3.5.3.5 0 .3.3.5.5.5h.3c.5.5 1 .8 1.5 1.3 1.3.8 1.5 2 1.3 3.5-.3 1.8-.8 3.3-1.3 4.8-1.3 3.5-2.8 7.1-4.3 10.4-3 6.1-6.1 11.9-9.1 17.7-.8 1-1.3 2-2 3-.3.3-.3.5-.3.8-1 1.8-2.3 3.5-3.3 5.3-.3.3-.3.5-.5.8-.3.3-.5.8-.8 1.3 0 .3-.3.5-.5 1 0 .3 0 .5-.5.8 0 0 0 .3-.3.3-.3.8-.8 1.5-1 2.3l-.3.3c-.3 1-.8 2-1 2.8-.3.8-.5 1.3-.8 2-.3.3-.3.5-.5.8 0 .4-.2.7-.2 1.1-13.9 11.3-32.1 20.4-32.1 20.4s-1.9.6-4.6 1.6c0 0 0-.1.1-.1 1.5-2.8 3-5.8 4.3-8.8v-.3c.3-.5.5-1 .5-1.8 0-.3.3-.3.3-.5.5 0 .8-.3.8-.8v-.3c.3 0 .3 0 .5-.3-.3 0-.3-.3-.3-.5.3-.5.5-1 1-1.3.3-.3.3-.5.3-.8v-.3l-.3.3c0-.3.3-.3.3-.3.5-.8.8-1.5 1.3-2v-.8c0-.3.3-.3.3-.5.3 0 .3 0 .5-.3.3-.5.3-1 .5-1.5h-.3c.5-.3.5-.5.8-.8-.3 0-.3-.3-.5-.5l1.3-1.3s-.3-.3 0-.5c.3 0 .3-.2.3-.2 0-.5.3-1 .8-1.3 0 0 .3 0 .3-.3 0-.8.5-1.5 1-2 .8-1.5 1.5-3 2.3-4.3 2-3.3 3.8-6.3 5.6-9.6.8-1 1.3-2 1.8-3v-.3c-.3.5-.5.8-.8 1.3-.3.3-.3.5-.5.8-.3.3-.3.5-.5 1-.3.3-.3.5-.8.5l.5-.5c.3-.5.3-1 .8-1.5.3-.5.5-1 .8-1.5.3-.8.8-1.3 1-1.8.3-.3.3-.5.5-.8v.5c-.2.5-.5.9-.7 1.6 0-.1.1-.1.2-.1 1.3-2.3 2.5-4.8 4-7.1.5-1 .8-1.8 1.3-2.8.8-1.5 1.5-3 2.5-4.6 0 0 .3 0 .3-.3.5-1.3 1.3-2.5 2-3.8.5-.8.8-1.8 1.3-2.8 2-3.5 4-7.1 5.8-10.6 1.5-2.5 2.8-5.3 4.3-8.1l1.5-3c0-.3.3-.5.3-.8.3-.8.5-1.5 1-2.3.5-.5.8-1.3 1-1.8.3 0 .3-.3.3-.3 1-2 2-3.8 3.3-5.6.3-.8.8-1.5 1.3-2.3.3-.5.5-1 .8-1.5.5-1 .8-1.8 1.3-2.8.8-1.3 1.5-2.5 2.3-3.8v-.5c.5-.8 1-1.8 1.5-2.8.8-1.5 1.5-3.3 2.3-4.8 2-3.8 3.5-7.3 5.6-11.1 1-2.3 2.5-4.6 3.8-7.1 1.5-2.8 2.8-5.8 4.3-8.6.8-1.5 1.5-2.8 2-4.3.3-.5.5-1 .8-1.5 0-.5.3-1 .5-1.5.3-.3.3-.5.5-.8.3 0 .5-.5.5-.8 0-.3.3-.5.3-.5 0-.3 0-.5-.3-.8.5 0 .8-.3.8-.8.3-.5.3-.8.3-1.3l.3-.3v-1c-.3-.5-.3-1 0-1.3V22c-.3-.8-.5-1.3-.8-2 0 0-.3-.3-.3-.5 0 0-.3-.3-.3-.5-.3-.3-.5-.5-.8-1-.5-.5-.8-1-1.3-1.3-.3-.3-.5-.5-.5-.8-.8-.3-1.5-.5-2-1 0-.5-.3-.5-.8-.5-.3-.3-.8-.3-1.3-.5-.8-.3-1.5-.8-2.5-1.3h-.3c-1-.3-1-.3-1.8-.8-.3.3-.8 0-1 0-.5-.5-1-.5-1.5-.5s-1 0-1.5-.3c-.8 0-1.3-.3-1.8-.5-.8 0-1.5-.3-2.3 0h-2.5c-.5-.3-1 0-1.5 0-.8.3-1.3.3-2 .3-.3 0-.5-.3-.8-.3-.5-.3-.8-.3-1.3-.5-1.8-.3-3.3.3-4.8 1-1.3 1-2.5 2-3.5 3-2 2.3-3.8 4.3-5.6 6.3l-.8.8s0 .3-.3.3c0 0-.3.3-.3.5h-.3v.3s-.3 0-.3.3-.5.8-.8 1c-1 1.3-2 2.3-2.8 3.5-.5.3-.8.8-1 1-.8 1-1.3 2-2 2.8-.3.3-.3.5-.5.8-.5.5-.8 1.3-1.3 1.8-1.5 1.8-2.8 3.5-4 5.3-1.3 2-2.8 4-4.3 6.1-1 1.3-2 2.8-3 4-.5.8-1 1.5-1.5 2-.8 1-1.5 1.8-2.3 2.8-3.5 3.5-6.8 7.1-10.1 10.6-4.3 4.6-8.6 9.4-12.9 13.9-7.1 7.6-14.2 15.2-20.7 23-1.3 1.3-2.3 2.5-3.5 4 0 0-.3.3-.5.3-.5 0-1 0-1.5-.3 0-.3 0-.5.3-.8 3.5-10.4 6.6-21 9.9-31.6 2-7.1 4.3-14.4 6.3-21.7 2.5-9.1 5.1-18.5 7.8-27.6.5-2 1.3-4.3 1.8-6.3.5-2.3 1-4.8 1-7.1 0-1 0-1.8-.3-2.8 0-1-.8-2-1.3-2.8-.8-1-1.5-1.8-2.3-2.5-.8-.8-1.5-1-2.5-1.3-1.5 0-3-.3-4.5-.5-1 0-2 0-3-.3h-2.3c-1.5.3-2.8.3-4.3.3-.5.3-.8 0-1.3 0s-1.3.3-1.8.3h-.3c-.3-.5-.8-.3-1-.3-.5 0-1 0-1.3.3-.5 0-.8 0-1 .3h-.2c-2.3.5-4.3 1.8-6.3 3-.8.5-1.8 1-2.5 1.5-.3 0-.3.3-.5.3 0 .5-.3.8-.8 1-.5.3-1 .8-1.3 1.5l-.3.3c-.8.5-1.3 1.3-1.8 2-.8 1-1.5 2.3-2.3 3.5v.5c-.3.8-.8 1.3-1.3 1.8-1.8 1.8-3 3.8-4.5 5.6C99 25 96.5 28.5 94 31.8c-5.1 6.8-9.6 13.9-13.9 21.2-4 7.1-8.1 14.2-12.1 21.5-3.8 7.1-7.6 14.4-11.4 21.5-2.5 5.1-5.1 9.9-7.3 14.9-1.3 2.3-2.5 4.8-3.8 7.3-1.3 2.8-2.8 5.6-4 8.3-2.5 5.1-5.1 9.9-7.3 14.9-2.3 4.5-4.5 9.1-6.6 13.9-1 1.8-2 3.8-3 5.8-4 8.3-8.6 16.7-12.9 25-.5.8-1 1.8-1.5 2.3-.8 1-1.8 1.5-3 1.3-.3 0-.3-.3-.5-.3-.8-.3-1.5-.8-2-1.5-.8-.8-1.8-1-2.8-.5-1 .3-1.5 1-1.5 2-.3.3-.3.8-.3 1 0 .3 0 .3-.3.3v.5c.3 0 .3.3.3.5 0 .3.3.8.3 1 .3 0 .3.3.3.5 0 1 .3 2.3.8 3.3 2.6 5.3 6.6 14.2 13.8 13.8 3.4-.2 5.3-2.3 8-4.2 3-2 6-4.1 8.4-6.8 2.4-2.6 4.2-5.8 6.5-8.6 4.3-5 8-11.7 10.4-17.9 1-2.6 2.6-4.1 4.2-6.3 2.1-2.8 2.5-6.3 4.2-9.3 1.3-2.4 2.9-4.9 4.4-7.2 3-5.1 5.8-10.4 8.3-15.4.5-1 .8-1.8 1.5-2.5.3-.5.5-1 .8-1.5.3-.5.3-1.3.5-1.8.3-.3.3-.5.3-.8.8-1.3 1.3-2.5 1.8-4 2.5-4.8 4.8-9.4 7.1-14.2 2-4.3 4-8.3 6.1-12.6 2-4.3 4.3-8.8 6.3-13.1.8-1.3 1.5-2.5 2-3.8 2-3.5 4.3-7.1 6.3-10.6.3-.8.8-1.3 1.3-2V69c-1.3 6.1-2.5 12.4-4 18.5-2.8 12.1-6.3 24-9.9 35.9-.5 1-.5 2.3-.8 3.3-.5 2-1 4-1.3 5.8-.5 2-.8 4.3-.8 6.3v.5c-.3 0-.3-.3-.3-.3v1.5c.5 1.8 1 3.5 1.5 5.3.8 1.8 1.8 3.8 3.3 5.6l1.5 1.5c1 1 2 1.8 3 2.5 2 1 3.8 2 6.1 2.3 2.5.3 4.8.3 7.1-.8 1.3-.5 2.5-1.3 3.5-2.3l2.3-2.3c.5-.5 1-1.3 1.8-1.8.8-1 1.5-1.8 2.5-2.8 1-1 2-2.3 3-3.3.5-.8 1-1.3 1.5-1.8.3-.3.3-.5.5-.5 0-.3.3-.3.3-.3h.3c-.3-.5.3-.3.3-.5.5-.5 1-1 1.3-1.5l.8-.8c.3-.3.5-.5 1-.8v-.3c.3-.5.8-.8 1-1 .3-.5.5-.8.8-1 .8-.5 1.3-1 1.8-1.8.5-.3.8-.8 1-1 .3-.3.5-.5.8-1 .3-.3.5-.3.5-.5l.5-.5c.3-.3.8-.5.8-1 .8-.3.8-.8 1-1 .3 0 .3-.3.3-.3h-.3c.3-.3.3-.5.8-.5 0 .3 0 0 .3 0 0-.3.3-.5.5-1h.3c.3-.5.8-.8 1-1.3h.3c0-.5.5-.5.8-.8.3-.5.5-.8.8-1.3.3 0 .3-.3.3-.3.5 0 .5-.3.5-.5 0 0 0-.3.3-.3 0-.3.3-.3.3-.3l.3-.3s.3 0 .3-.3c.3 0 .3-.3.5-.5 0 0 .3 0 .5-.3-.3 0-.3-.3-.3-.3.3 0 .5 0 .5-.3v-.1h.1l.3-.3v-.3s.3 0 .3-.3h.3s.3-.3.3-.5c.3 0 .5-.3.8-.5h-.3c.3-.3.3-.5.5-.5.3-.3.5-.3.5-.5.3 0 .3-.3.3-.3v-.3c.3 0 .3 0 .3-.3.3 0 .5 0 .5-.3s.5-.5.8-.8c0-.3.3-.3.3-.5 0 0 0-.3.3-.5v.6c.3-.3.3-.5.5-.8.3 0 .3-.3.3-.3v-.5c.3 0 .3 0 .3-.3.3 0 .3-.3.5-.3h.3v-.3l.3-.3c.3-.3.5-.8 1-1.3v1c.3-.3.3-.3.5 0 0-.3.3-.8.5-.8 0-.1.1-.2.1-.3h.1c.3-.3.3-.3.3-.5l-.3-.3c0-.3.3-.3.5-.3l-.3.3v.3c.3-.3.5-.3.8-.5 0-.3.3-.5.5-.8.3 0 .5 0 .5-.3s0-.3.3-.3v-.3c0-.3.2-.3.5-.3 0-.3.3-.5.5-.8 0 0 0-.3.3-.3 0-.3.3-.3.3-.3 0-.3.3-.3.3-.3 0-.3.3-.3.3-.5 0 0-.3 0-.3-.3H157c.3 0 .3 0 .3-.3h.3c0 .3-.3.3-.3.3h.3v.3s0-.3.3-.3l.8-.8s.3.3.3 0 .3-.3.3-.5c0 0 .3 0 .5-.3 0-.3 0-.3.3-.5 0-.3.3-.3.5-.5h.3v-.3l.3-.3c.3-.3.3-.3.3-.5s0-.3.3-.3.3-.3.5-.5c.3-.3.3-.5.8-.5v-.3c0-.3.5-.3.5-.3l.3-.3V99h.3v-.3c.3 0 .3 0 .3-.3l.1.1.4-.4.3-.3c0-.3.3-.3.3-.3.3-.3.3-.3.3-.5.3 0 .3 0 .3-.3 0 0 .3-.3.5-.3 0-.3.3-.3.5-.5-.5.8-.8 1.5-1.3 2.3-5.8 10.9-11.6 21.7-17.7 32.6-.5 1-1.3 2-1.8 3-1.3 1.8-2.3 3.8-3.5 5.6-1.8 3-3.3 6.1-4.8 9.1l-1.5 3c-.5.8-.8 1.5-1.3 2.3-.8 1.3-1.8 2.8-2.5 4.3-.3.5-.8 1.3-1 2-.3 0-.3.3-.3.5-.3.3-.5.8-.8 1-1 1.8-1.8 3.5-2.8 5.3-.5 1-1 1.8-1.3 2.8-2 3.8-3.8 7.6-5.3 11.6-.5.8-.8 1.8-.8 2.5-.3 1-.5 1.8-.5 2.8 0 .8-.3 1.3-.5 2-.5.3-.3 1 .3 1 .3.3.5.3.8.3v1.8c.3 1.8.5 3.5 1.5 5.1 2.8 5.3 7.1 8.3 12.6 9.9 1.3.3 2.8.5 4 .5 1.3 0 2.5-.3 3.5-.8 1.3-.5 2.3-1 3.3-1.8.5-.4.9-.8 1.3-1.2 14.6.8 31.8-10.2 44.9-20.8.1.6.1 1.3.3 2 .3 1.3.8 2.5 1.5 3.5.5 1 1 2 1.3 3.3.8 2 2 3.8 3.5 5.3.3.5.8.8 1 1l.5.5c1.8 1.8 4 3 6.3 4 1 .5 2.3.8 3.8 1 .3 0 .8 0 1 .3 2.3.5 4.6.8 7.1-.3.3 0 .5 0 1-.3 1.5-.3 3-1 4.5-2 .5-.5 1.3-1 1.8-1.5 1.3-1 2.3-2 3.3-2.8l.8-.8c.8-.5 1.5-1.3 2.3-1.8 1-1.3 2.3-2.3 3.5-3.5.5-.5 1.3-1.3 2-1.8h.3c-.3.3-.3.5-.3.5-1.5 2.8-2.8 5.6-4.3 8.3v.3c-.5 1-.8 2-1.5 2.8-.5 1-1 2-1.8 3-.5 1.3-1.3 2.5-2 3.5 0 .5-.3.8-.3 1-.3.3-.3.5-.5.5 0 .3-.3.5-.3.8 0 .3-.3.5-.5.8-.3.3-.5.8-.8 1.3-.3.3-.3.8-.5 1v.3c-.5.5-.8 1-1 1.5-.3.5-.5 1-.8 1.3 0 .3-.3.3-.3.5v.6c-.5.3-.8.8-1 1.3-.5.5-.8 1.3-1.3 1.8-.8 1.3-1.3 2.3-2 3.5-.5.8-1 1.5-1.5 2.3v.3c-.3 1-1 1.8-1.5 2.5-.5.8-.8 1.8-1.5 2.5-.5 1-1 1.8-1.5 2.5 0 .3-.3.3-.3.5-1.8 2.5-3.5 5.3-5.3 7.8-1.5 2.8-3.3 5.3-4.8 7.8-1 1.5-2 3.3-2.8 4.8l-.5.5-.3.3c-.3 1-1 1.5-1.5 2.3-.3.5-.5 1-1 1.5-.3.3-.5.8-.8 1 0 .3 0 .3-.3.3-.5 1.3-1.3 2.5-2 3.5-.8 1-1.8 2.3-2.5 3.3-1.3 2-2.5 3.8-3.8 5.6 0 .3 0 .3-.3.3.3.5.3.8 0 1-1 1.5-2 2.8-2.8 4.3-1 1.5-2 2.8-2.8 4.3-.5 1-1 2-1.5 2.8-.3.3-.3.5-.5.5v1s.3.3.5.3c.5.8 1.3 1 2 1h5.3c.3 0 .3.3.3.3h3.3c.5 0 .8-.3 1-.3 2-.3 4-.8 6.1-1.3 1.3-.5 2.5-1 3.8-1.5 2.5-1 4.6-2.3 6.6-3.8 1-1 2.3-2 3.3-3 .5-.3.8-.8 1.3-1.3.5-.8 1.3-1.5 2-2.3 1.5-1.5 3.3-2.8 4.6-4.3 2-2.3 4-4.5 5.8-6.8 2.5-3.8 5.3-7.6 7.8-11.4 3.5-4.6 6.8-9.1 10.1-13.7.8-1 1.5-2 2-3s.8-2 1.5-2.8c.3 0 .3-.3.3-.5 3.3-6.1 6.6-12.1 9.9-18.5.5-.5.8-1.3 1-1.8 1.3-2 2.3-4 3.5-6.1 1.8-2.8 3.3-5.6 4.8-8.3 0-.3.3-.5.3-.8v-.1c10.1.2 19.9-4.9 27.9-11.2 0 .1-.1.2-.2.2v1.5c.3 0 .3 0 .3.3 0 1.5.3 2.8.3 4.3 0 .3 0 .8.5 1 0 .3.3.3.3.5.3 1.3.8 2.5 1.3 3.5 0 .3.3.5.5 1l.3.3c.5 1.5 1.5 2.5 2.8 3.8l1.5 1.5.3.3c1 .8 2 1.5 3 2.3 1.5 1 3 1.8 4.8 2.3.5 0 1 .3 1.5.3v-.3c.3.3.3.5.5.5h1.6s.3 0 .3-.3c.5 0 .8-.3 1-.3.8-.5 1.3-1.3 2-1.8 0 0 0-.3.3-.3v-.5c.5-.5 1-1.3 1-2h.3c.3-.5.5-.8.5-1 .5-.8 1-1.5 1.3-2.3.3-.3.3-.5.5-.8l.3-.3c0-.3.3-.5.3-.8.3 0 .5-.3.5-.5.8-1.3 1.5-2.3 2-3.5.5-.5.8-1 1.3-1.5.8-1 1.8-2 2.5-3 .5-.5.8-1 1.3-1.3.3-.3.3-.5.5-.5.5-.3 1-.5 1.3-.8h2.6c.5 0 1.3.3 1.8.5.5.3 1 .5 1.5 1 2.5 2.8 4.8 5.6 7.3 8.6.5.5 1 1.3 1.5 1.8 4 3.3 8.3 4.8 13.4 5.1 1.3 0 2.5-.3 4-.3.8-.3 1.5-.3 2.5-.5h.3c.3-.3.8-.5 1-.5.3 0 .5 0 .8-.3.5.3.8 0 1-.3 1.5-.5 3-1 4.5-1.8.3-.3.8-.5 1-.5.5-.5 1-.8 1.5-1 .5-.3 1.3-.5 1.8-1 .5-.3.8-.5 1.3-.8.3-.3.8-.5 1.3-.8.3-.3.8-.6 1.3-.8 13.8 3.2 27.5-4.9 37.7-13.8.3 2 1 4 2 5.8 1.3 2.5 2.5 4.8 4 7.1 1.8 2 3.8 4 6.3 5.3 1 .8 2 1 3.3 1.5h.3c.5 0 .8 0 1.3.3.5 0 1 .3 1.5.3h3.8c1 0 2 .3 2.8 0 2-.3 3.8-.8 5.3-1.8 1-.8 1.8-1.5 2.8-2.3.8-.5 1.5-1 2.3-1.8l1.5-1.5c.3 0 .5-.3.5-.3.3 0 .3-.3.3-.3.3 0 .3-.3.3-.3.3 0 .5-.3.8-.5l1.5-1.5.8-.8.5-.5 1.3-1.3c.3-.5.8-.8 1.3-1.3.3-.5.8-1 1-1.5.5-.3.8-.5 1-1 .5-.3.8-.8 1.3-1.3.5-.8 1-1.5 1.8-2.3.5-.5 1-1.3 1.5-1.8 0-.3.3-.5.5-.5 0-.3.3-.3.3-.5.5-.5.8-1 1-1.5.5-.3.8-.5 1-.8 0-.3 0-.3.3-.5l.3-.3c0-.3.3-.5.3-.5l.8-.8s0-.3.3-.5h.3c.3-.5.8-.8 1-1.3 0 0 0-.3.3-.5h.3c0-.3.3-.5.5-.8v-.3c.3 0 .3-.3.5-.3 0 0 0-.3.3-.3.3-.3.5-.8.8-1 .3-.3.5-.5.5-.8l.8-.8c.3-.5.5-.8.8-1.3l1.5-1.5c-.3.5-.3.8-.3 1-.5 3-.8 6.1-.8 9.1-.3 2.8-.3 5.3-.3 7.8 0 2.3.5 4.3 1.3 6.3.3.3.3.5.5.8.3.5.8 1 1 1.5.3.5.5.8.8 1 .3 0 .3 0 .5.3.3.5 1 .8 1.5 1 .5 0 1 .3 1.3.3h.5l.3.3h1.3c0 .3 0 0 .3 0 0 .3.5.3.8 0 0 .3.8.5.8.3h1.5l.3.3v-.3c.3 0 .3 0 .3.3.3-.3.3-.3.5-.3 0-.3 0-.3.3-.3 0 .3.3.3.5.3 0-.3 0-.3.3-.5v.5c0-.3 0-.3.3-.3v.3l.3-.3c-.3 0-.3-.3-.3-.3.3 0 .3.3.3.3h.3v-.3h.3c.3.3.5.3.5 0h.5v-.3c.3.3.5.3.5 0h.3s.3 0 .3-.3c.3.3.3.3.3 0h.3v-.3l.3.3s.3-.3.5-.3l.3-.3h.3v-.3c.3 0 .3.3.3.3v-.3c.3 0 .5 0 .5-.3.3 0 1-.3 1.3-.5.3 0 .3 0 .5-.3.3 0 .5-.3.5-.3.3 0 .3-.3.5-.3.3 0 .8-.5 1-.8h.3c.3 0 .3-.3.3-.5h.3l.5-.5v.3l.3-.3v-.3c.3 0 .3 0 .3.3 0-.3.3-.3.3-.3.3 0 .3 0 .3-.3.3 0 .3 0 .3-.3 0 0 .3 0 .3.3v-.3l-.3-.3h.3v.3h.3c0-.3.3-.3.3-.3h.3v-.3s0-.3.3 0l.3-.3v-.3s.3 0 .3-.3c.3 0 .3 0 .5-.3 0 .1 0 .1-.1.1.4-.2.6-.5.8-.9.3 0 .3 0 .3-.3h.3c.3-.3.5-.8.8-1 .3-.3.5-.5.5-.8l.8-.8s0-.3.3-.3c0 0 .5-.3.5-.8v.3l.3-.3c-.7 1.8-1.3 3.6-2 5.4-1 3.3-1.5 6.6-2 9.9-.3.3 0 .8-.5.8v3.5c.3 0 .3.3.3.5.3 1.3.8 2.3 1.5 3.3 0 .3.3.5.3.8 0 .5.3 1 .8 1.3 1 .8 2 1.5 3 1.8.5.3.8.3 1.3.5.5.3 1 .5 1.8.8.5.3 1 .5 1.5.8h.3c1.3.8 2.3.5 3-.5.5-.3.8-.8 1.3-1.3.3-.8.8-1.5 1.3-2.3.8-1 1.3-2.3 1.8-3.3s1.3-1.8 1.8-2.8c.8-.8 1.3-1.5 2-2.3.8-.8 1.3-1.5 2-2.5l.3-.3c.5-1 1.3-1.8 1.8-2.8 1.3-1.5 2.3-3.3 3.3-4.8.8-1 1.5-2 2.3-3 2.8-4 5.6-8.3 8.1-12.6.8-1.3 1.3-2.8 2-4 .5-1.3 1.3-2.3 1.8-3.5.5-.8 1-1.5 1.5-2.3 1.5-2.8 3.3-5.3 5.1-7.8.8-1 1.3-1.8 1.8-2.5l.5-.5c.3.3.3.5.5.8 1 2.5 2.3 5.3 3.3 7.8 5.6 13.1 12.9 24.5 22.7 34.9 1.5 2 3.8 3.3 6.1 4.3 1.8.8 3.5 1.3 5.3 1.8.8.3 1.5.5 2.3.5.8.3 1.8.3 2.8.5h1.8c.3 0 .5 0 .8-.3 1.3-.3 2.3-.8 3.5-1.3 1.5-.5 2.5-1.5 3.8-2.8.5-.3.8-.8 1.3-1.3.3 0 .3-.3.5-.5.3-.3.5-.8 1-1 .8-1.3 1.8-2.3 2.5-3.5 0-.3 0-.5.3-.8 0 0 .3-.3.5-.3l.3-.3c.4-.9.8-1.8 1.2-2.6.9 1.8 1.9 3.5 3.1 5.2 1.8 2 3.8 4 6.3 5.3 1 .8 2 1 3.3 1.5h.3c.5 0 .8 0 1.3.3.5 0 1 .3 1.5.3h3.8c1 0 2 .3 2.8 0 2-.3 3.8-.8 5.3-1.8 1-.8 1.8-1.5 2.8-2.3.8-.5 1.5-1 2.3-1.8l1.5-1.5c.3 0 .5-.3.5-.3.3 0 .3-.3.3-.3.3 0 .3-.3.3-.3.3 0 .5-.3.8-.5l1.5-1.5.8-.8.5-.5 1.3-1.3c.3-.5.8-.8 1.3-1.3.3-.5.8-1 1-1.5.5-.3.8-.5 1-1 .5-.3.8-.8 1.3-1.3.5-.8 1-1.5 1.8-2.3.5-.5 1-1.3 1.5-1.8 0-.3.3-.5.5-.5 0-.3.3-.3.3-.5.5-.5.8-1 1-1.5.5-.3.8-.5 1-.8 0-.3 0-.3.3-.5l.3-.3c0-.3.3-.5.3-.5l.8-.8s0-.3.3-.5h.3c.3-.5.8-.8 1-1.3 0 0 0-.3.3-.5h.3c0-.3.3-.5.5-.8v-.3c.3 0 .3-.3.5-.3 0 0 0-.3.3-.3.3-.3.5-.8.8-1 .3-.3.5-.5.5-.8l.8-.8c.3-.5.5-.8.8-1.3l1.5-1.5c-.3.5-.3.8-.3 1-.5 3-.8 6.1-.8 9.1-.3 2.8-.3 5.3-.3 7.8 0 2.3.5 4.3 1.3 6.3.3.3.3.5.5.8.3.5.8 1 1 1.5.3.5.5.8.8 1 .3 0 .3 0 .5.3.3.5 1 .8 1.5 1 .5 0 1 .3 1.3.3h.5l.3.3h1.3c0 .3 0 0 .3 0 0 .3.5.3.8 0 0 .3.8.5.8.3h1.5l.3.3v-.3c.3 0 .3 0 .3.3.3-.3.3-.3.5-.3 0-.3 0-.3.3-.3 0 .3.3.3.5.3 0-.3 0-.3.3-.5v.5c0-.3 0-.3.3-.3v.3l.3-.3c-.3 0-.3-.3-.3-.3.3 0 .3.3.3.3h.3v-.3h.3c.3.3.5.3.5 0h.5v-.3c.3.3.5.3.5 0h.3s.3 0 .3-.3c.3.3.3.3.3 0h.3v-.3l.3.3s.3-.3.5-.3l.3-.3h.3v-.3c.3 0 .3.3.3.3v-.3c.3 0 .5 0 .5-.3.3 0 1-.3 1.3-.5.3 0 .3 0 .5-.3.3 0 .5-.3.5-.3.3 0 .3-.3.5-.3.3 0 .8-.5 1-.8h.3c.3 0 .3-.3.3-.5h.3l.5-.5v.3l.3-.3v-.3c.3 0 .3 0 .3.3 0-.3.3-.3.3-.3.3 0 .3 0 .3-.3.3 0 .3 0 .3-.3 0 0 .3 0 .3.3v-.3l-.3-.3h.3v.3h.3c0-.3.3-.3.3-.3h.3v-.3s0-.3.3 0l.3-.3v-.3s.3 0 .3-.3c.3 0 .3 0 .5-.3 0 .1 0 .1-.1.1.4-.2.6-.5.8-.9.3 0 .3 0 .3-.3h.3c.3-.3.5-.8.8-1 .3-.3.5-.5.5-.8l.8-.8s0-.3.3-.3c0 0 .5-.3.5-.8v.3l.8-.8c0-.3 0-.3.3-.3.3-.3.3-.5.3-.5v-.3h.5v-.5l.3.3c0-.3-.3-.3 0-.3v-.3c.3 0 .3 0 .3.3v-.5h.3l.3-.3c.3 0 .3-.3.3-.3 0-.3 0-.3.3-.3 0 0 .3 0 .3-.3l.3-.3c0-.3 0-.3-.3-.3h.3v4.9h.3c0-.3 0-.3.3-.3 0 0 .3-.3.3-.5.3 0 .3 0 .3-.3h.3c0-.3 0-.3-.3-.3.2 0 .4 0 .5-.2 0 0 0 .1.1.1v-.2l.3-.3c.2 0 .2 0 .2.3h-.3v.3c0 .5-.3.8-.3 1v-.6s-.3 0-.3.3v.5c.3.3.3.8 0 .8-.3.3-.3.3-.3.5.3-.3.3-.3.5-.3v.5c-.5-.3-.5 0-.5.5v.3c0-.3 0-.3.3-.5v.8c-.5.3-.5.5-.3.8-.3.3-.3.5-.3.8.3 0 .3-.3.3-.3s0-.3.3-.3v.3l-.5.5c0 .3.3.3.3.3v.3c-.3.3-.3.5 0 .8 0 0 0 .3-.3.5v.5h.5c-.3.3-.3.3-.5.3.3.3 0 .5 0 .5h.3s0 .3.3.3c-.5.5-.5 1.5-.3 2v-.5c0 .3.3.5-.3.8.3.3.3.3.3.5.1.1.2.2.2.3h-.2v.3h.1c0 .1-.1.1-.1.3h.3c-.3.5-.3.5 0 1 .3 0 .3.3.3.5h-.3v.3c.1.6.3.8.5 1.3h-.3c0 .3.3.3 0 .5.3 0 .3.3.3.3.3 0 .3-.3.3-.3v1s0 .3-.3.3l.3.3c0 .3 0 .5.3.8v.6c.3.3.3.8.3 1h.5c-.3 0-.3.3-.3.3 0 .3 0 .5.3.8h.3c0 .3-.3.3-.3.5.3 0 .5 0 .5.3 0 .5 0 1 .3 1.5.3-.3.3-.5.3-.8 0 .3 0 .5.3 1-.3.3-.3.5 0 .5h.6c-.2.5-.1.7 0 1 .2 0 .3 0 .3-.3v.5c0-.2-.2-.3-.2-.3.1.2.1.3.2.5.3 0 .3 0 .3.3-.3.3 0 .3.3.5 0 0 0-.3.3-.3v.8c.3.3.3.5.5.3 0 .5.3.8.5.8v.5c.3 0 .3 0 .3.3.3 0 .3.3.5.3 0 .3.3.5.5.8.5.3.8.5 1 .8 0 .3.3.3.5.3l.8.8s.3 0 .3.3c.5.3 1.3.5 1.8.8.3.3.3.3.5 0l.5.5c.3 0 .5 0 1 .3 1.3.3 2.8.8 4.3 1 .8 0 1.3.3 2-.3l-.3.3h.8c.3.3 1.5 0 1.8-.3.8.3 1.5-.3 2-.3.2-.2.2-.5.3-.7 0 .2 0 .4.2.4h.8c.2 0 .2 0 .2-.3h.1c.1 0 .2.1.4.1l-.1-.1c4.7 0 10.2-2.4 13.8-4.1 3-1.2 5.8-2.7 8.4-4.4 7.5-4.2 14.6-9.5 20-16 3.9-4.7 7.7-9.4 9.7-15.4 1.1-3.4 1.3-16.4-3.9-13.5-.1 0-.1 0-.2.1-.1 0-.1.1-.1.1-.4.3-.9.6-1.3 1.1l-20.4 16.8c-.4.2-.7.5-1.1.7l-3 1.5c-1.3.5-2.8 1-4.3 1.8l-.3.3h-.3c-1.5.5-3.3 1-4.8 1.5-.8.3-1.3.5-2 .5-2.3.5-4.5 1-6.8 1.5h-1.6c-.8.3-1.3.3-2.3.5.3-.5.5-.8.5-1 .3-.8.5-1.5.8-2.3.3-.8.5-1.5.8-2.3.5-.5.5-1.3 1-2 .3-1 .8-2 1.3-3 0-.3 0-.5.3-.8v-.5c.3-.3.3-.5.5-.8 0-.3.3-.8.5-1.3 0-.5.3-.8.5-1.3.3-.5.5-1 .8-1.5 0-.3.3-.5.3-.8.3-.3 0-.5.3-.5 0-.3 0-.5.3-.8.3-.8.8-1.5 1-2.3.3-.5.8-1.3.8-1.8.3-.5.5-1 .8-1.5 1.3-2.8 2.5-5.6 3.8-8.3.8-1.5 1.5-3 2.3-4.6.5-1 1-1.8 1.3-2.5.5-.8 1-1.8 1.5-2.5.3-.8.8-1.5 1.3-2.3.5-.8 1-1.8 1.5-2.5 1-1.5 2-3.3 3-4.8.3-.5.8-1.3 1.3-1.8 2-3 4.3-6.1 6.3-9.1l.3-.3 1-1c.8-.8 1.5-1.8 2.3-2.8.3-.3.3-.3.5-.3.5.3.8.5 1.3.3h5.6c.3 0 .5-.3 1-.3 0 0 0-.3.3-.3l-.3.3c0 .3.3.3.5.3v-.3c.3 0 .5.3.5.3.3-.3.8-.3 1-.3s.5-.3.8 0c.5 0 1-.3 1.5-.3.3 0 .3-.3.3-.5 0 .3 0 .3.3.5.3 0 .8.3 1-.3.3.3.3.3.5 0h.3c.3-.3.3 0 .5 0h.3c.5 0 1 0 1.8-.3 1.3-.3 2.5-.5 3.8-.8.3 0 .5 0 .8-.3h.8c.3 0 .5-.3.8-.5.3.3.3 0 .5 0 .3-.3.5-.3.5-.3.3-.3.5-.3.8-.3 0 0 .3 0 .5-.3 0 .3 0 0 .3 0h.3v-.3h-.3c.3-.3.5-.3.8-.5 0 0 .3.3.3.5 0-.3.3-.5.3-1l.5.5s.3 0 .5-.5c-.3.3-.3.3-.5.3 0 0 0-.3-.3-.3.3-.3.5-.3.8-.3l.3.3s.3 0 .3-.3.3-.3.5 0l.3-.3c-.3 0-.3-.3-.3-.3l.3-.3c0 .5 0 .5.5.3h-.3c0-.3.3-.3.3-.3.3.3.3.3.5-.3.3.3.3.3.5 0-.2 0-.5-.3-.2-.5v.3s.2 0 .5.3v-.5h.3c.3 0 .3-.3.3-.3.3-.3.3 0 .5 0 0-.3-.3-.5-.3-.5 0-.3.3-.3.3-.3v.5c.3-.3.3-.3.5-.3-.3-.3-.3-.3 0-.5.3.3.8 0 1-.3v-.3c-.3 0-.3 0-.3.3v-.3h.6c0-.3 0-.5.3-.8v.3h.3v-.3c.3 0 .3 0 .5-.3.3 0 .3-.3.3-.3h-.3v-.3c.3 0 .3 0 .3.3.5 0 .5-.5.8-1v.3l.3-.3s.3 0 .3-.3c-.3 0-.3 0-.5-.3h1v-.3h.3c0-.5.3-.5.3-.8.3 0 .5 0 .5-.5.3-.3.5-.3.5-.5v-.5l.3.3v-.6c.8-.3.8-.3.8-.8h-.8v-.3h.3v.3c.3-.3.5-.3.8-.3.3 0 .3-.3.3-.5v-.3c.3 0 .5 0 .8-.5v-.3c.3 0 .5-.3.3-.5 0-.3.3-.3.5-.3v-.5c.3 0 .5-.3.5-.5 0-.3.3-.5.5-.8 0-.3.3-.8.5-1 0-.5.3-.8.3-1.3.5-.3.5-1 .8-1.5.3-.8.5-1.3.5-1.8 0-.3.3-.5.3-.8v-.5c.3-.8.5-1.5.8-2.5v-1h-11c0-.3.3-.3.3-.5h.3v-.5s.2-.3.2-.8c-.2 1.1-.5 1.3-.5 1.3zM238.6 23.8v.5c-.3-.3-.3-.5-.3-.8l.3.3zm-.7-.3h.3c0 .3 0 .8.3 1-.6-.2-.4-.7-.6-1zm-.3-2.5h.5c0 .3-.3.3-.5.3V21zm-21.2 50c.3.3-.3.3 0 .5-.3-.2-.3-.2 0-.5zm-3.1 4.8v.3c-.2 0-.2-.3 0-.3zm-2.5 4.3c.5-1 1.3-2.3 1.8-3.3 0-.3.3-.3.3-.3v-.3s.3.3 0 .3v.5c-.5.5-.8 1.3-1.3 2-.3.3-.3.5-.3.8-.3.5-.3.8-.8 1 .1-.2.1-.4.3-.7zM179.7 141v.3h-.3c0-.3.3-.3.3-.5v.2zm4.1-7v-.3c.3-.3.3-.5.5-1h.3c-.3.5-.6.8-.8 1.3zm1-1.8v-.5h.3c-.1.3-.1.3-.3.5zm.5-1h-.3c.3-.3.3-.5.5-.8 0 .5-.2.5-.2.8zm2.5-7.6c-.3.8-.8 1.5-1.3 2.5 0 0-.3 0-.3.3 0 .8-.5 1-.8 1.8 0 0 .3 0 .3.3 0 .5-.3 1.3-.8 1.5 0 0 0-.3-.3-.5l-.3.3c.3-.5.5-1 .8-1.5.8-1.5 1.5-3 2.3-4.5.3-.3.3-.3.3-.5 0 .3.3.3.3.3s.1-.2-.2 0zm-2.3-83.4c.8 0 .8-.5.8-1h.3c.3-.5.5-1 .8-1.3.3-.3.3-.3.5-.3v.6c-.3.5-.8.8-1 1.3-.3 0-.3.3-.3.5 0 .3-.3.3-.3.5-.5.3-.8.8-1.3.8.3-.4.5-.6.5-1.1zm2.3-1.3s-.3.3-.3.5c.1-.5.3-.5.3-.5 0-.3.3-.5.5-.5-.2.3-.2.5-.5.5zm.8 83.2l.3-.3c-.1 0-.1.3-.3.3zm1.7-2.3c0-.3.3-.3.5-.3-.2.3-.2.3-.5.3zm.8-84.2l-1.3 1.3c0 .3-.3.5-.5.8l-.8.8V38h.3c.3-.5.5-.8.8-1h.3c0-.3.3-.5.3-.8-.3 0-.3.3-.5.5 0-.5.3-.5.5-.8v.3l.3-.3s-.3 0-.3-.3c.3 0 .3-.3.5-.5.5 0 .5-.5.8-.5h.3c-.4.3-.7.5-.7 1zm.5-4.3h.3l-.3.3v-.3zm1 0c0 .5-.3.8-.8 1v-.5c.3 0 .6-.2.8-.5zm1 .8s-.3.3-.3.5l-1.5 1.5c0-.3.3-.5.3-.5.3-.3.3-.5.5-.8l-.3-.3c.3-.5.8-.8 1-1.3 0 .3.3.3.3.5v.4zm-1-1c.3 0 .3-.3.5-.3 0 .3 0 .3-.3.5.1 0 .1-.2-.2-.2zm2.3-.8c0 .3-.3.3-.5.3 0-.3 0-.3.3-.5-.3 0 0-.3 0-.3v.3s.3 0 .3-.3c.1.3.1.3-.1.5l.3-.3c-.1.3-.3.3-.3.3zm.8 0V30h.3l-.3.3zm.5-1.7s-.3.3-.3.5h-.5c.3 0 .3-.3.3-.3v-.3c.3 0 .5-.3.8-.5-.3.3-.3.3-.3.6zm1.2-1.6v.3h-.3V27h.3zm-.2 2.8v-.3h.3l-.3.3zm.2-2.2h.3c0 .2 0 0-.3 0zm0-.8s0-.3.3-.3c0-.3.3-.5.3-.5 0-.3 0-.3.3-.3h-.3c0-.3 0 0 .3 0-.1.6-.4.8-.9 1.1zm1.5-1.8c0 .5-.5.3-.8.5v-.3s.3 0 .3-.3c.3.4.3.1.5.1 0 0 0-.3.3-.3l-.3.3zm.5.8c0-.3 0-.5.3-.5 0 .2 0 .2-.3.5zm4.6-2.5v.3c-.3.8-.5 1.3-.8 2v.3c-.5 0-.8.3-1 .5l-.8.8c-.5.3-.8.8-1.3 1.3h-.3c0-.3 0-.3.3-.5.8-1 1.8-2 2.5-3 .6-.7 1.1-1.2 1.4-1.7zm-3.3 3.5l-.3-.3c.3-.3.5-.5 1-.8-.2.6-.4.8-.7 1.1zm-1-2.8h-.3l.3-.3v.3zm-1.8-1.3c0-.3.3-.3.3-.3 0-.3 0-.3.3-.3 0 0 0 .3-.3.3 0 .3 0 .5-.3.5v-.2zm-3.3 3.8h.3V26l.5-.5s0-.3.5-.3c0 0 0-.3.3-.3l.8-.8-.3.3c-.5.8-1.3 1.5-1.8 2.3-.3.3-.3.5-.5.5 0-.2.2-.4.2-.7zm-.7 1.6v-.3c.2 0 0 .3 0 .3zm-1 1c.3-.3.5-.5.5-.8V28l.3.3c-.3.3-.3.5-.8.8v.5c-.3-.3 0-.5 0-.5zm-1.1-.4c.1-.1.2-.1.4-.1-.1.2-.3.2-.4.1zm-.2.1s0 .3.3.3c-.3.3-.3.3-.3.5-.3-.3-.3-.3-.5-.3.3-.2.3-.2.5-.5zm-.5 2.8c0-.3 0-.3.3-.5 0 .2 0 .2-.3.5s-.3.5-.5.8c0-.6 0-.6.5-.8zm-.3 1.5v.5l.3-.3c.3-.3.3-.3.3-.5v.5c0 .3-.3.5-.8.5 0-.2 0-.4.2-.7zm-.2 1.3c-.5.5-.8 1-1.3 1.8-.5.3-.8.8-1 1.3 0-.3 0-.5-.3-.5.3-.3.3-.3.3-.5-.3.3-.5.3-.8.5v-.3c.3-.5.5-1 1-1.3.3 0 .3-.3.5-.5 0 .5 0 .5-.5.5.3.3 0 .5 0 .5 0 .3 0 .3-.3.5h.3c0-.3.3-.3.3-.5.3.3.5-.3.5-.3-.3-.5.3-.8.5-1h.3c0-.3.3-.3.5-.5v.3zm-.5-.8c.3-.3.3-.5.3-.5-.1.3-.1.3-.3.5zm.2-.7c-.3 0-.3.3-.5.5l-.3.3c-.3-.3-.3-.3 0-.3.1-.5.1-.5.8-.5zm-.7-1.3c0 .3 0 .5-.3.8l-.5.5h-.5l1.3-1.3zm-1 3c0 .2 0 .4-.3.5-.2-.2 0-.2.3-.5zm-.3.6v.2c-.3.3-.5.8-1 1.3 0 .3-.3 0-.3.3 0 0 0 .3-.3.5-.2.5-.5.7-1 1.2.1-.4.3-.8.5-1.2 0 0 .3-.3.5-.3 0-.3 0-.3.3-.3 0-.3.3-.3.3-.5 0 0 0-.3.3-.3h-.3c0-.3.3-.3.5-.3 0-.1.2-.4.5-.6zm-2.3 2v.5c-.2-.3 0-.3 0-.5zm1.3-2.8v.3c0 .3-.3.3-.3.3.1-.4.3-.4.3-.6zm-.8 1.1l.3.1V35c.3.3.3.5 0 .5 0 .3 0 .3-.3.5 0-.3 0-.3-.3-.3l-.3.3c.3-.1.4-.3.6-.5zm-1 1.2c.3 0 .3 0 .3-.3v.3h-.3l.3.3.3-.3c.3-.3.3-.3.3-.5 0 .3 0 .5-.3.5-.3.3-.3.8-.5 1-.3 0-.3-.3-.5 0-.1-.5.2-.8.4-1zm-1 1.7h.3c0-.3 0-.3.3-.3l-.3.3c0 .3-.3.5-.5.8v.3c-.3-.3 0-.3 0-.3v-.5c0 .3-.3.3-.3.3 0-.3.3-.6.5-.6zm-.2 2c.3-.5.8-1 1-1.5h.3v.5l.5-.5c0 .5 0 .5-.5 1-.3 0-.5 0-.8.5.3.3 0 .5-.3.5.3 0 .3-.3.3-.5l-.8.8c0-.3.3-.5.3-.8zm-1 1.8h.3s-.3 0-.3.3v-.3zm-.8 91v.5h-.3c.1-.2.3-.2.3-.5zm-3.3 6.6c.8-1.3 1.5-2.5 2.3-3.5 0-.3.3-.5.3-.8.3-.3.3-.5.3-.8l.3-.3c-.5.3-.3-.3-.3-.3l.3-.3v.5c0-.3.3-.3.3-.3.3-.8.5-1.3.8-1.8.2 0 .1-.2 0-.2 0-.6.3-1.1.5-1.5.3.5-.5.8 0 1.3.3-.5.5-1.3 1-1.8 0 .5 0 .8-.3 1-.3.3-.3.3-.3.5-.3.3-.3.8-.3 1 0 0-.3 0-.3.3-.5.3-.5.8-.8 1-.3.5-.3 1-.8 1.5-.3.3-.5.8-.8 1.3-.3.3-.3.8-.5 1.3h-.5c.3.8-.3 1-.5 1.5l-.3.3c0 .5-.3.8-.5 1-.1-.4.1-.7.1-.9zm-.2 1l.3.3h-.3v-.3zm-.3.5c0 .5 0 .8-.5 1 0-.5.3-.7.5-1zm-1 0c-.3.3-.3.3-.5.8 0-.5.2-.8.5-.8zM175.4 67c0 .3 0 .3.3.3-.3.3-.3.5-.5.5 0-.3 0-.6.2-.8zM12.1 209v-.3h.3c0 .3-.3.3-.3.3zm1 0h.5c.1.3-.2 0-.5 0zm115.3-74.8c0-.3.3-.3.5-.5-.2.3-.2.3-.5.5zM164.8 95c-.5.8-1.3 1.5-2 2 0 .3 0 .3-.3.3.3-.3.3-.3.3-.5.5-.3.8-.8 1.3-1.3.3-.3.8-.5 1-1h.3c-.3.3-.3.5-.6.5zm-2.8 3.8c0 .3 0 .5-.3.8-.3 0-.5.3-.8.5-.3.5-.5.8-1 1v.3l-.8.8v-.3c-.3 0-.3.3-.3.3s-.3 0-.3-.3c0 .3.3.3.3.5 0 0-.3 0-.3.3-.3.3-.3.5-.5.5 0-.3 0-.5.5-.5 0-.3-.3-.3-.3-.3.3-.3.3-.3.3-.5.3 0 .3-.3.5-.5l.3-.3s.3 0 .3-.3h.3c.3 0 .5-.3.5-.5 0 0 .2 0 0-.2.1-.3.3-.3.5-.3.3-.5.5-.8.8-1 .3-.3.3-.5.5-.5 0 0 0-.3.3-.5.3-.3.5-.3.8-.5.3-.5.3-.8.8-1 0 0 0-.3.3-.3 0 0 .1-.1.3-.1 0 0 .1 0 .2.1 0 0 0 .3-.3.5l-.3.3c-.5.5-1.3 1.3-1.8 2-.5-.3-.3-.3-.3-.5.1.3-.2.3-.2.5zm-11.9 11.9c0-.3.3-.3.3-.5 0 .3 0 .3-.3.5zm-2.2 3.3h.3l-.3.3v-.3zm-.3-.5c0-.3 0-.3.3 0h-.3zm.3-.3v-.2l.5-.5c0 .3 0 .3-.3.5 0 0 0 .2-.2.2zm.7.3v-.3h.3s0 .3-.3.3zm.8-.8c-.3.3-.3.3-.3.5-.2-.2 0-.5.3-.5zm-.5-.5v-.3c0-.3.3-.3.3-.5v.3c-.1.3-.3.3-.3.5zm.5 0s-.3-.3 0-.3v.3zm1.8-2.7c.3-.3.3-.5.5-.5 0 0 0 .3-.3.3 0 .1-.1.1-.2.2zm1.7-3.1c0-.3.3-.3.3-.5l.8-.8h.3l-.3.3c-.3.3-.6.8-1.1 1zm1 0c0 .3 0 .3-.3.5.1-.2.1-.2.3-.5zm-1.2 1.8c-.3 0-.3.3-.5.3 0 0 0-.3.3-.3 0-.3.3-.5.3-.5.1.2-.1.2-.1.5zm-1.5 2l.3-.3v.3h.3c0-.3.3-.3.3-.3-.3-.3 0-.5 0-.5.3 0 .3.3.3.5-.3 0-.3 0-.5.3 0 .3-.3.5-.8.5-.2-.2.1-.2.1-.5zm1-1c.3 0 .5 0 .3-.3.3 0 .5 0 .5-.3s0-.3-.3-.3h.3v.3c.3-.3.3-.5.5-.5-.3.5-.5 1-1.3 1.3v-.2zm1.5-1.5v-.3h.6c-.3.3-.3.5-.5.5-.1 0-.1-.1-.1-.2zm.7-1.8c0 .3 0 .3-.3.3.1 0 .1-.3.3-.3zm2.1-3.5c.3-.3.8-.5 1-1l.3-.3c.3 0 .3 0 .3-.3l.8-.8s.3 0 .3.3c-.3.3-.8.3-.8.8h-.4c-.3.3-.3.5-.5.3 0 .3 0 .5-.3.5-.3.3-.5.8-.8 1-.2-.3.1-.3.1-.5zm3.8-2.6s-.3.3-.5.3c.2-.3.2-.3.5-.3 0-.3 0-.5.3-.3 0-.3 0-.3.3-.5l.8-.8v.3c-.5.3-.8.8-1 1-.2.1-.4.1-.4.3zm-.8.6c-.3.5-.5.8-.8 1-.3.3-.3.3-.3.5v-.3c.3-.5.8-.7 1.1-1.2zm-2.8 3c.3-.5.8-.8 1-1v.3c-.2.2-.7.4-1 .7zm-1.7 2v-.3l.8-.8c0 .3 0 .3-.2.5-.1.4-.4.6-.6.6zm-.8 1.5c.5 0 .8-.3 1-.8h.3v-.3c-.3-.3 0-.5 0-.3.5 0 .5-.5.8-.8l-.3.3c0-.3 0-.5.3-.5l.3.3c.3-.3.5-.5.5-1 0 .3-.3.3-.5.5 0-.3.3-.5.5-.5v.3c0-.3.3-.3.3-.3.3-.3.5-.3.8-.5-.3.3-.3.3-.8 1-.3.3-.3.5-.8.5-.3.5-.5.8-1 1.3-.3.5-.8.8-1 1.3 0-.3-.3-.3-.3-.3v-.2zm12.9-16.4h.3c0 .3-.3.3-.5.5h-.5c.2-.3.4-.3.7-.5zm.7.2c0-.3.3-.3.5-.5-.3.5-.8.8-1 1 0-.2.3-.2.5-.5zm-1.5 1.6V92h.3c0 .3 0 .3-.3.3zm0 .5c-.3 0-.5.3-.8.3 0-.3.5-.5.5-.8l.3.3v.2zm-.1.8c-.1.2-.3.3-.4.5 0-.3.2-.5.4-.5zm1.9-2.1l.3-.3.3-.3v.3s-.3.3-.3 0v.3c-.5.4-.9.8-1.3 1.2.3-.5.7-.9 1-1.2zm1 .3v-.3c0-.3.3-.5.3-.5h.3c-.3.3-.3.5-.6.8zm0-2.6s.3.3 0 .3v-.3zm-1 .3c.3-.3.3-.5.5-.3v.3s-.3 0-.3.3c-.3 0-.3.3-.5.3v.3h-.3l.3-.3h-.3c0 .3-.3.3-.3.3s0-.3.3-.3c0-.3.5-.5.8-.3 0-.3 0-.3-.2-.3zm-11.6 10.3c.5-.8 1.3-1.5 2-2.3.3-.5.5-.8.8-1 .3 0 .3-.3.3-.3 0-.3.3-.5.5-.8h.3v-.6c2-2.3 4-4.8 6.1-7.1.3 0 .3-.3.3-.3.3.3.5.3.8.5l-.8.8c.3-.3.5-.5 1-.8-.3.3-.3.5-.5.8l-4 4-4.5 4.5c-1.1 1.1-1.6 1.9-2.3 2.6l-.3.3s0-.3.3-.3zm-1.8 3.6c0 .3 0 .3.3 0 .3-.5.8-1 1-1.5.5-.5 1-.8 1.3-1.3v-.3c.3 0 .3 0 .5-.3l1-1c-.3 0-.3 0-.3-.3h.3s.5 0 .3-.3c.5-.3.8-.5 1-1l.3-.3s0-.3-.3-.3c.3 0 .3-.3.3-.3h.6v-.3h-.3c.3 0 .3-.3.5-.3 0 0 .3 0 .3-.3v.3c.5-.3.8-.8 1-1.3.3-.3.5-.3.5-.5.5-.5 1-.8 1.5-1.3.3-.3.5-.5.5-.8.5-.3.8-.5 1-.8-.3 0-.3-.3-.3-.3h.3v.3c0-.2.2-.3.4-.4l.1.1v.3c-.3 0-.3 0-.3.3l-.8.8c-.3.5-.3.5-.5.3-.3.3-.3.5-.5.8 0 0-.3.3-.5.3h.3v.3s.3 0 .3-.3c.3 0 .5-.3.8-.5-.3.5-.5 1-1.3 1.3h.3l-1 1s-.3 0-.5.3c.5-.5.8-1 1.3-1.3.3-.3.3-.5.3-.5-.3.5-.5.3-.8.5v.5h-.6v.3l-.8.8-.3.3c-.5 0-.5.5-.8.8-.3 0-.5 0-.5.3 0 .5 0 .5-.3.5-.3.3-.3.3-.5.3.3.3 0 .5-.3.5h-.3c0 .3-.3.5-.3.8h.3c0-.3.3-.3.3-.3.3-.5.8-1 1.3-1.5.5-.3.8-.8 1.3-1.3h.3c-.5.5-.8 1-1.5 1.3 0 .5-.3.8-.8 1v.3c-.3.3-.3.3-.5.3 0 0 0 .3-.3.3 0 .3 0 .3-.3.3v-.3c-.3.3-.8.5-1 .5 0 0 .3 0 .3.3h-.3s0 .3-.3.3c-.3.3-.5.3-.5.8-.3.3-.5.3-.8.5 0 .3-.3.3-.3.5-.3.3-.5.5-1 .8-.3.3-.5.5-.5 1 .3 0 .3 0 .5-.3v-.3h.2l-.2.3c0 .3-.3.5-.5.3.3.5-.3.5-.3.8 0 .3-.3.3-.3.3 0-.3.3-.8.5-1h-.6c.5-.9.8-.9.8-1.1zm-3.3 3.5l.3.3v-.3c.3-.3.3-.5.5-.5v-.3h.5c-.3 0-.3-.3-.3-.3.3-.5.8-1 1.3-1.5l.5-.5c.3.3 0 .5 0 .5-.3.3-.5.5-.5.8-.3 0-.5-.3-.5.3 0 .2-.1.3-.3.5l-.2.2c-.3.3-.3.3-.3.5v.3c-.3.3-.5.5-.8 1 0-.3 0-.5.3-.5.3-.3.3-.5.5-.8-.3 0-.5.3-.8.5l-.3.3h-.3c.2 0 .2-.2.4-.5zm0 1c0 .3 0 .3-.3.3.3 0 .3-.3.3-.3zm-1 1.3l-.3.3s0-.3.3-.3c0-.3.3-.5.5-.8 0 .5-.5.5-.5.8zm.3-1.3zm-.3.3v.3c0 .3-.3.3-.3.3-.2-.4.3-.4.3-.6zm-.8 2c-.3.3-.3.3-.5.3 0-.3.3-.3.5-.3zm-1 0c.3.3 0 .3-.3.5.1-.2.3-.5.3-.5zm.3.5c0 .3-.3.3-.5.3.2 0 .2-.3.5-.3zm-1 1.3c0 .3-.3.3-.3 0h.3zm-1.3 2.3c.3 0 .3-.3.3-.3v.3c0 .3 0 .3-.3.5v-.5zm-1.3 0c-.3-.3-.3-.5 0-.8.3-.3.5-.3.8-.5v.3c-.2.4-.5.7-.8 1-.3 0-.3 0-.3.3-.2-.3.1-.6.3-.3zm0 .5c0 .3-.3.3-.5.3 0-.1.3-.3.5-.3zm-.5 0c-.3 0-.3.3-.5.3h.3c0 .3-.3.3-.3.3v-.4c0-.2 0-.2.5-.2zm-.7.5c0 .3-.3.5-.3.5-.3 0-.3.3-.3.3 0 .3-.3.3-.3.3.1-.6.6-.9.9-1.1zm-1 2c.3-.5.3-.5.5-.5-.3 0-.3.2-.5.5zm.5-.8l.3-.3v.3h-.3zm-3.8 3.3c.3-.3.5-.8.8-1l.5-.5c.3-.5.5-.8 1-1 .3-.3.5-.3.5-.5.3 0 .3-.3.3-.5l.3.3s-.3.3-.5.3c0 .5 0 .5-.5.5 0 .5-.5.8-1 1 0 .5 0 .5-.5.5.3.3 0 .3 0 .5-.5.3-.8.5-1 1-.2-.3-.2-.6.1-.6zm1.3.8c0-.2.1-.3.2-.5 0 .2 0 .2-.2.5zm-.6.7c0-.5 0-.5.3-.5 0 .3-.3.3-.3.5zm-.2 0c0 .3 0 .3-.3.3l.3-.3zm-1.3-.7s.3 0 .3-.3c0 .3-.3.3-.3.5v-.2zm.3 2c-.3 0 0-.3 0-.3 0-.3.3-.3.3-.5v.3c-.1.2-.3.5-.3.5-.3.3-.5.3-.5.5 0-.5 0-.5.5-.5zm-1.5 2c.3-.3.5 0 .8-.3l.3-.3c0 .3 0 .3-.3.3 0 .3-.3.5-.8.8.3-.3.3-.3.3-.5h-.3zm.5-2.3l-.3.3c0-.3.3-.3.3-.3zm-.8 1.8c.3-.3.5-.5.8-.5-.3.3-.5.5-.8 1v-.5zm-.5-.2c-.3 0-.3.3-.3.3.1-.3.1-.3.3-.3zm-3.3 4.5l-.8.8c.1-.3.6-.5.8-.8zm-3.5 3.8l.3-.3c-.1.3-.3.3-.3.3zm2 0h-.3s.3 0 .3-.3v.3zm-.8-1.3c0-.3.3-.5.8-.5-.5 0-.5.3-.8.5zm1.6-.7h-.3v.3c-.3-.3 0-.3 0-.3s.3-.3.3 0h.3c-.1.2-.3 0-.3 0zm.5.7s-.3 0-.3-.3l.3-.3v.6zm1.2-3.5c.3-.5.3-.8.8-.8l-.8.8zm.5 1.3c.3-.3.5-.3.5-.3s0 .3-.5.3zm1-.8c0-.3 0-.3.5-.3-.2.1-.2.3-.5.3zm1.1-1c-.3 0-.3.3-.5.3 0-.3.3-.3.3-.5h.3s-.1-.1-.1.2zm-.3-2c0 .3-.3.3-.3.3-.3.3-.3.5-.5.8l-.3.3c0-.3 0-.3.3-.3 0-.3.3-.5.5-.8l.3-.3c0-.3 0-.3.3-.3l-.3.3zm1.8.2c0 .3-.3.3-.5.3 0 .3-.3.5-.3.8 0 0-.3.3-.5.3v-.3l.5-.5s0-.3.3-.3c.3-.5.8-1 1.3-1.5 0 .3 0 .3.3.3-.6.2-.9.7-1.1.9zm2.8-2.8c-.3 0-.3 0-.5-.3.3.3.3.5 0 .5 0 0 0 .3-.3.3h-.3c0 .5 0 .8-.8.8l.8-.8c.3-.3.5-.5.5-.8.3 0 .5-.3.8-.5 0 .3-.2.6-.2.8zm.5-2.7l-.5.5v-.3l.3-.3h.2v-.3l.8-.8c0 .3-.3.3-.3.5-.3.4-.3.4-.5.7zm2.2-2.6l-.5.5c.3-.3.3-.5.5-.8v.3zm.5 1.6c0-.3.3-.3.5-.3-.2 0-.5.3-.5.3zm.3-2.3s-.3 0-.3.3c0-.3 0-.3.3-.3 0-.3 0-.3.3-.3l-.3.3zm.8 1.2c0 .3-.3.3-.3.5v-.6c-.3 0 .3-.3.3-.3v.4zm.7-1s0 .3-.3 0h.3c0-.3 0-.3.3-.3 0-.3.3-.3.3-.5 0 .2.1.2.2.2h-.2.3c-.4.4-.4.6-.9.6zm5.6-5s0-.3.3-.3c-.1.3-.1.3-.3.3zm.5-.5c.2-.2.2-.1.3-.1-.1.1-.2.1-.3.1zm5-5.6c0-.3 0-.3.3-.3-.3-.3 0-.3 0-.3v.3c0 .1 0 .1-.3.3zm3.3-3.5l-.3.3v.3h-.5c.3-.3.5-.3.5-.3 0-.3 0-.3.3-.5h.3c0 .2 0 .2-.3.2zm.8-1l.3-.3c-.1 0-.1.3-.3.3zm2.5-2.3v-.3h.3l-.3.3zm1.3-2c-.5.3-.8.8-1.3 1.3l-.8.8-1.8 1.8v.3c-.5.3-.8.5-1 .8 0 .3-.3.5-.3.5-.8.8-1.5 1.5-2 2.3h.3c-.3 0-.3.3-.3.3v-.3c-.5.3-.8.8-1 1-.5.3-.8.8-1.3 1 0 .5-.5.8-1 1h-.3v.3c0 .5-.3.8-.5 1-.3.3-.5.5-1 .3.3.3.3.3 0 .5 0 .3 0 .5-.3.5l-.8.8c-.3.3-.3.5-.5.8-.5.3-.8.5-1 1-.3 0-.3 0-.3.3l-.3-.3v.3c0 .3 0 .3-.3.5 0 0 0 .3-.3.3h-.3v.3c0 .3 0 .3-.3.5h.3c.3 0 .3-.3.3-.3h.3c-.3 0-.3.3-.3.3h-.3v.3c0-.3-.3-.3-.3-.3l-.5.5c-.3 0-.3 0-.5.3 0 .3-.3.5-.5.8 0-.3-.3-.3-.3-.5.3 0 .3 0 .3-.3.3-.3.5-.3.8-.5v.3c0-.3.3-.5.5-.8l-.3.3c.3-.5.3-.8.8-.8 0-.3.3-.8.5-.8 0-.3 0-.3.3-.3.3-.3.3-.5.5-.8l1.5-1.5c0-.3.3-.3.5-.5 0-.3.3-.3.5-.5v-.3c.3 0 .3-.3.3 0v-.3c0-.1.1-.2.2 0 .3-.3.3-.5.3-.5.5-.5.8-1 1.3-1.3 0-.3.2-.3.2-.3.5-.5.8-1 1.3-1.5l1.3-1.3.8-.8c1-1.3 2-2.3 3-3.3 1.3-1.3 2.3-2.3 3.3-3.5l1-1c-.5.2-.8.5-1.3.8h-.3c0-.3 0-.3.3-.3h.3-.2c.2-.5.5-.7.7-1 .3-.3.3-.5.5-.5.2-.2.3-.2.5-.3v.1h.3v-.3c0-.5.3-.8.5-1h.3c.3-.5.5-.5.8-1 0 .3.3.3.3.3V92c0 .3 0 .3-.3.5h-.5c0 .3 0 .3-.3.3.3.3.3.3 0 .3-.3.3-.5.8-.8 1l-.3.3c.3 0 .5-.3.5-.3l1-1c-.3.5-.5 1-.8 1.5-.4.7-.9 1.2-1.6 2zm-42.8 86.2s-.3 0-.3.3c-.3-.3 0-.5 0-.5 0-.5.3-.8.3-1 .3-.3.3-.3.5-.3 0-.3.3 0 .3.3s-.3.5-.5.8c0-.1 0 .1-.3.4zm2.3 16.4c-.8-.8-1.3-1.5-1.5-2.3v-.3h.3c.3.8.8 1.5 1.3 2.3-.1 0-.1 0-.1.3zm1-24.3c0-.5.3-.8.5-1 0 .3-.2.5-.5 1zm5.1-11.6c0-.3.3-.3.5-.3-.3 0-.3.3-.5.3zm13.1-25.8c-.3.5-.3.8-.5 1h-.3c.3-.2.3-.7.8-1zM366 173.9c-2 1.5-4.3 2.8-7.1 3.3-2.5.5-5.1.5-7.6-.3-.8 0-1-.5-1.3-1 0 0 0-.3-.3-.3-.5-.5-.5-1.3-.5-2-.3-2 0-4.3.8-6.3.3-.5.3-1 .5-1.8.3-.5.5-1.3.8-1.8 0-.3.3-.3.3-.5 0-.3.3-.8.5-1 4.5-5.1 9.1-10.4 13.9-15.4 5.8-6.3 12.1-12.4 18.7-17.9 3-2.5 6.3-4.8 9.4-7.3.5 0 .8-.3 1-.5 1-.3 2-.5 2.8-1 .5.3.3.5.3.8-.5 2.3-1.3 4.5-2.3 6.8-2.3 5.6-5.1 11.1-8.3 16.4-2.3 3.8-4.5 7.6-6.8 11.6-2.5 4-5.1 8.1-8.1 11.6-2.2 2.3-4.2 4.6-6.7 6.6zm230.1 9.6h-.3l.3-.3v.3zm118 6c0 .3.3.3.3.3-.3 0-.3 0-.3-.3zm.8-6.6c0-.3 0-.3-.3-.3h.3v.3zm.7 4.6c0 .5.3 1 0 1.3v-1.3zm-.4-8.9h.2-.2zm.2 18.5c.3 0 .3.3.3.3-.3 0-.3-.3-.3-.3zm.2 1.3h.3s-.3.2-.3 0zm0-19.8v-.3s.3 0 .3.3h-.3zm1.6 23.1h-.3l.3-.3v.3zm.2-.3v.5c-.2-.2-.2-.2 0-.5zm.3 1.5l-.3-.3h.3v.3zm1.5 3.3c0-.5 0-.8.3-1-.1.2-.3.5-.3 1zm1.5 0v-.3h.3c-.3 0-.3.3-.3.3zm1.3 2.3h-.3s0-.3-.3-.3h.3v.3c.3 0 .3-.3.3-.3v.3zm2.5 2.5s.3 0 .3.3c-.3 0-.3-.3-.3-.3zm1.3.3c0-.3 0-.3.3.3l-.3-.3zm7.5 1.7c0-.3 0-.3-.3-.3h.3v.3zm7.4-33.3h-.3c.3-.3.3-.3.3-.5h.3c-.1.2-.1.2-.3.5zm2.2-4.8h-.3v-.3h.3v.3zm.3-1.6s.3 0 .3-.3c-.1.3-.1.3-.3.3zm1.8-5h.3c0 .3 0 .3-.3.3v-.3zm0 1.8h-.3l.3-.3v.3zm.2-1.3v.3s0-.3-.3-.3h.3v-.3h.3s-.3 0-.3.3zm2-4.6v-.3c.3 0 .3.3.3.3h-.3zm5.9-13.4v-.3h.3l-.3.3zm30.3-33.1l.3.3c-.3 0-.3 0-.3-.3zm4.5.5v-.3h.3c0 .3 0 .3-.3.3zm13.4-25.5v-.3c.3 0 .3 0 .5.3h-.5zm1.5.5c0-.3.3-.3.3-.3 0 .3 0 .3-.3.3zm1.6-.2v-.5c.2.2.2.2 0 .5zm2 .2c-.3 0-.3 0 0-.3v.3zm.5-.2v-.3s0 .3.3.3h-.3zm5.6 14.4s0-.3.3-.3l-.3.3zm.2-15.2l-.3.3v-.6h.3v.3zm.3 14.7c.3-.3.3-.3.3-.5.2.5-.1.5-.3.5zm1-14.4h-.3c0-.3.3-.3.3-.3v.3zm.7 11.1h-.3s0-.3.3-.3v.3zm.5-2c-.3 0-.3 0-.3.3v-.3c.3 0 .3-.3.3-.3v.3zm0-.6l.8-.8c-.3.3-.3.8-.8.8zm1 2.1h-.3l.3-.3v.3zm.6-3.1s-.3 0-.3-.3h.3v.3zm.5-8.8v.3c-.3-.3-.3-.3-.3-.5h.3v.2zm2.5-2l.2-.2c0 .2-.2.2-.2.4v-.2zm-1 .5h.3v.3h-.3v-.3zm0 2c.3 0 .3 0 .5-.3 0 .3-.3.5-.3.8 0-.3-.2-.3-.2-.5zm.5 4c.3 0 .3 0 .3-.3v.3h-.3zm.5 0s0 .3-.3.3c.3-.3.3-.3.3-.5v.2zm0-1v-.3h.3c-.3.1-.3.3-.3.3zm.5-5.3c-.2-.2-.3-.3-.3-.5h.3v.5zm.5 2s-.3-.3 0-.5c0 .3 0 .3.3.5h-.3z"/><path d="M807.1 92.5c.1 0 .1 0 .2-.1-.1-.1-.2.1-.2.1z"/><path d="M186.7 88.1c1.6-1.7 3.3-3 5.4-4.1.2-.1 0-.4-.2-.3-2.1 1.1-3.9 2.4-5.6 4.1-.2.1.2.5.4.3zm-6.6 17.3c-.5 0-.7-.2-.7-.6 0-.2-.4-.3-.4 0 0 .7.4 1.1 1 1.2.4 0 .5-.6.1-.6zm-.9 9c-2.1 0-3.3 1.2-3 3.3 0 .3.5.3.6 0 .3-1.4 1-2.3 2.5-2.4.5-.1.5-.9-.1-.9zm-7.8 26.1c.1-.5 0-1.2-.6-1.4-.8-.2-1.5.5-1.9 1-.2.3.1.8.4.6.4-.2 1-.6 1.3-.1.2.4.7.3.8-.1zm-13.8 26.1c-1-1.2-.7-2.9-1-4.4 0-.2-.4-.2-.4 0-.3 1.6-.2 3.6.9 4.9.2.4.8-.1.5-.5zm12.5-32.3c.4 0 .4-.6 0-.6s-.4.6 0 .6zm-8.3 16.3c.2 0 .2-.3 0-.3s-.2.3 0 .3zm0 10.5c-.6 0-1.2 0-1.8.1-.2 0-.2.4 0 .4.6 0 1.2 0 1.8.1.4 0 .4-.6 0-.6zm-13.7 20.5c.2 0 .2-.3 0-.3-.1 0-.1.3 0 .3zm11.9-31c.2 0 .2-.3 0-.3s-.2.3 0 .3zm-6.2.7v-.9c0-.2-.3-.2-.3 0v.9c-.1.3.3.3.3 0zm6.5-13.7c0-.6-.1-1.2-.1-1.8 0-.2-.4-.2-.4 0 0 .6-.1 1.2-.1 1.8 0 .4.6.4.6 0zm7-10.8c.2 0 .2-.3 0-.3-.1.1-.1.3 0 .3zm1.9 5.7c.4 0 .4-.6 0-.6s-.4.6 0 .6zm.2-10.6c-.3-.2-.7-.8-1.1-.9-.2 0-.3.1-.2.2.1.4.7.8.9 1.1.2.3.6-.1.4-.4zm16.4-35.4v-.9c0-.2-.4-.2-.4 0v.9c0 .3.4.3.4 0zm-1.6 12.8c0-.5-.1-1.4.6-1.5.4-.1.3-.7-.1-.7-1.2.1-1.3 1.1-1.3 2.2-.1.5.8.5.8 0zm6-7.8c.5 0 .5-.8 0-.8-.6-.1-.6.8 0 .8zm1.2 9.6c0-.9-.1-1.8-.1-2.7 0-.2-.4-.2-.4 0 0 .9-.1 1.8-.1 2.7-.1.4.6.4.6 0zm3-8.8c.1.1.2.2.3.2l.6-.6c-.4-.4-.8-.7-1.2-1.1-.3-.2-.7.1-.4.4.4.4.7.8 1.1 1.2.3.4.9-.2.6-.6-.1-.1-.2-.2-.2-.3-.5-.2-1.2.4-.8.8zm13.4-28.6c0-1.6.2-3 .8-4.5.1-.3-.3-.4-.5-.2-.8 1.5-1 3-1 4.7.1.4.7.4.7 0zm-65.1 120.2c.7 0 .7-1.1 0-1.1s-.7 1.1 0 1.1zm-7 11.9c-.3-.3-.7-.6-1-.8-.3-.2-.6.1-.4.4.3.3.5.7.8 1 .3.4 1-.3.6-.6zm-1.3-13.1c-.6-.1-1-.4-1.5-.8s-1 .4-.6.8c.6.6 1.3 1 2.2 1.1.7.2.7-1-.1-1.1zm1 3.9c-.6 0-1.3 0-1.9.1-.2 0-.2.4 0 .4.6.1 1.3.1 1.9.1.4.1.4-.6 0-.6zm6.6-17c0-.6-.1-1.2-.1-1.8 0-.2-.4-.2-.4 0 0 .6-.1 1.2-.1 1.8 0 .4.7.4.6 0zm50-83.9c.2 0 .2-.3 0-.3s-.2.3 0 .3zm8.2-9.7c-.7 0-1.3-.1-2 .1-.2.1-.2.5 0 .6.7.3 1.3.2 2 .1.6.1.6-.8 0-.8zm3.7-13.6c-.4 0-.6-.2-.7-.6 0-.3-.5-.3-.5 0 0 .7.4 1.1 1.1 1.3.5.1.6-.7.1-.7zm-25.6 24.3c.2 0 .2-.3 0-.3-.2-.1-.2.3 0 .3zm-41.1 38h-1.8c-.2 0-.2.4 0 .4h1.8c.2 0 .2-.4 0-.4zM102 154.9c0-.3-.1-.6-.2-.9-.1-.3-.5-.3-.6 0-.1.3-.1.6-.2.9 0 .7 1.1.7 1 0zm3.5-10.8c.1-.4.3-.9-.1-1.2-.4-.4-1-.3-1.3-.1-.2.2-.2.4 0 .6.3.3.7.2.8.7.1.3.5.3.6 0zm-11.2 7c-.2 0-.4 0-.5-.1.1.2.1.4.2.6.3-.2.5-.7.7-1 .2-.3-.2-.6-.4-.4-.3.2-.6.4-.8.6-.2.2-.2.5 0 .7.3.3.6.2 1 .2.1-.1.1-.6-.2-.6zm4.5-7.7c.3 0 .3-.4 0-.4-.3-.1-.3.4 0 .4zm-.7-5.9c-.3-.3-.6-.6-1-.9-.2-.2-.4.1-.3.3.3.3.6.6.9 1 .3.2.6-.2.4-.4zm4.4 8.5c1.4 0 1.4-2.2 0-2.2-1.4.1-1.4 2.2 0 2.2zm-.9 3c1.7 0 1.7-2.6 0-2.6s-1.7 2.6 0 2.6z" class="st1"/><path d="M98.3 137.6c-.1-.6-.1-.7.6-.7.2 0 .2-.4 0-.4-1-.1-1.2.2-1.3 1.1-.1.5.7.5.7 0zm6.9-2.2c.6 0 .6-.9 0-.9s-.6.9 0 .9zm-9.7 12.2c0-.3-.1-.6-.1-.9 0-.2-.4-.2-.4 0 0 .3-.1.6-.1.9-.1.6.7.6.6 0zm8.2-13.6c-.1-.6-.1-1.2-.2-1.8 0-.2-.4-.2-.4 0-.1.6-.1 1.2-.2 1.8.1.4.9.4.8 0zm-.3-30.5c-.3 0-.8 0-1 .2-.1.1-.1.3 0 .4.3.2.7.1 1 .2.4 0 .4-.8 0-.8zm4.6-11.8c-.3 0-.6 0-.9.1-.2 0-.2.4 0 .4.3 0 .6 0 .9.1.3 0 .3-.6 0-.6zm0 22.4c.2 0 .2-.4 0-.4-.3 0-.3.4 0 .4zm.9 19c.1 0 .1-.1 0-.1s-.1.1 0 .1zm7.3 1.2c.4 0 .4-.6 0-.6s-.4.6 0 .6zM331.7 148c.3 0 .3-.5 0-.5-.3-.1-.3.5 0 .5zm-4.4 21.6c-.1-.6.5-1.1.5-1.8-.1-.7-1-.8-1.2-.2-.1.3-.6.6-.8.8-.3.2-.4.6-.5.9-.6 1.5 2.1 1.9 2 .3zm-1.9-14.1c.2.2.3.4.5.6.2.3.5.3.7 0 .2-.2.3-.4.5-.6.4-.6-.2-1.4-.8-1.4-.7-.1-1.3.8-.9 1.4zm-11.5 13.3c.1.3.1.7.3 1 .1.1.3.1.4 0 .2-.2.2-.7.3-1 .1-.8-1.2-.8-1 0zm-2.2 15.1c-.3-.2-.4-.1-.4.1l.4-.4c.4-.3.7-.6 1-1 .1-.2-.1-.5-.4-.4-.6.3-1.8 1-2 1.7-.2.7.8.8 1.2.7.5 0 .6-.6.2-.7zm6.3-4c.3 0 .3-.5 0-.5s-.3.5 0 .5zm1.9-9.2c.2 0 .2-.3 0-.3s-.2.3 0 .3zm-1-11.8c.3 0 .6 0 .9-.1.2 0 .2-.4 0-.4-.3 0-.6 0-.9-.1-.3.1-.3.6 0 .6zm5.5 18.1c.2 0 .2-.3 0-.3-.1.1-.1.3 0 .3zm13.1-18.3c0-.3 0-.6-.1-.9 0-.2-.4-.2-.4 0 0 .3 0 .6-.1.9 0 .3.6.3.6 0zm.6-30.5c-.6 0-1.2.1-1.8.1-.2 0-.2.4 0 .4.6 0 1.2.1 1.8.1.4 0 .4-.6 0-.6zm1.8 7.5c-.2 0-.5 0-.6-.2-.8-.9-.8 1.4 0 .5.2-.2.4-.2.6-.2.2.1.2-.1 0-.1zm-12.4 4.7c0-.3-.1-.6-.1-.9 0-.3-.4-.3-.4 0s-.1.6-.1.9c-.1.4.6.4.6 0zm15.2-20.4h-1.8c-.4 0-.4.6 0 .6h1.8c.4 0 .4-.6 0-.6zM364 93.8c0-.3-.1-.6-.1-.9 0-.2-.4-.2-.4 0 0 .3-.1.6-.1.9 0 .4.6.4.6 0zm1.5-8c.2 0 .2-.4 0-.4s-.2.4 0 .4zM353 115.7c0-.3 0-.6-.1-.9 0-.2-.4-.2-.4 0 0 .3 0 .6-.1.9.1.4.6.4.6 0zm-5.7-7.9c.4 0 .4-.6 0-.6-.5 0-.5.6 0 .6zM324.9 164c0-.3-.1-.6-.2-.9-.1-.3-.5-.3-.6 0-.1.3-.1.6-.2.9 0 .7 1.1.7 1 0zm-1.1 14.7c0-.3-.1-.6-.1-.9 0-.2-.4-.2-.4 0 0 .3-.1.6-.1.9-.1.5.7.5.6 0zm-64.2-3c-1.1-.2-1.5.1-1.2 1.3.1.2.4.2.5 0 .1-.5.2-.6.7-.7.3-.1.3-.5 0-.6zm-10.7 14c.1-1.2.5-1.6.1-2.8-.1-.3-.6-.3-.7 0-.4 1.2-.1 1.6.1 2.8 0 .4.5.4.5 0zm2.7-14.8c-.2-.2-.4-.5-.5-.7-.3-.5-1.2-.3-1.2.3 0 .3.1.5.3.8.1.2.5.2.6 0 .3-.6-.1-.3.4 0 .2.3.6-.1.4-.4zm3.9 13c0-.3.1-.6.1-.9 0-.7-1.1-.7-1.1 0 0 .3.1.6.1.9 0 .6.8.6.9 0z" class="st1"/><path d="M255 189.3c.7 0 .7-1 0-1s-.7 1 0 1zm7.3-22.9c.6 0 .6-.9 0-.9s-.6.9 0 .9zm-9.9 15.6c.3 0 .8 0 1-.3.1-.1.1-.3 0-.5-.2-.2-.7-.2-1-.3-.8 0-.8 1.2 0 1.1zm7.2 2.9c.8 0 .8-1.3 0-1.3-.9 0-.9 1.3 0 1.3zm5.2-5.2c-.1-.9 0-1.9-.3-2.8-.1-.3-.6-.3-.7 0-.3.9-.2 1.9-.3 2.8-.1.8 1.3.8 1.3 0zm4.6-16.2c-.6.1-1.2.1-1.8.3-.4.1-.4.6 0 .7l1.8.3c1.1.1 1.1-1.5 0-1.3zm3.1-13.2c-.8-.7-.9-1.5-.1-2.4.1-.2-.1-.4-.2-.2-1 1-.9 2-.1 3 .3.2.7-.2.4-.4zm8.7-14.5c.3-.1.2-.3 0-.4-.1-.2-.2-.3-.3-.5-.1-.1-.1-.2-.2-.2s-.2 0-.2.1c-.2.4.5 1.5.9 1.6.1 0 .3 0 .3-.1.1-.1.1-.2.1-.3.1-.6-.6-.6-.6-.2zM258.9 165c0-.6 0-1.2-.1-1.8 0-.2-.3-.2-.3 0 0 .6 0 1.2-.1 1.8 0 .3.5.3.5 0zm22.6-14c-1.6 0-3.9.1-3.8 2.2 0 .2.3.3.4.1.3-1.8 2.1-1.6 3.5-1.5.3-.1.3-.8-.1-.8zm-40.2 53c-.3 0-.6.1-.9.1-.2 0-.2.4 0 .4.3 0 .6.1.9.1.4.1.4-.6 0-.6zm-1.9 20.1c-1.1.2-1.8 1-1.9 2.1 0 .2.3.2.3 0 .1-.9.8-1.5 1.7-1.6.4.1.3-.5-.1-.5zm-14.2 27.7c0-1.3-.1-2.5.8-3.5.2-.2-.1-.5-.3-.3-1 1.1-1 2.4-1.1 3.8 0 .4.6.4.6 0zm17-35.4c.2 0 .2-.3 0-.3-.2-.1-.2.3 0 .3zm-13.7 22c.4 0 .4-.6 0-.6s-.4.6 0 .6zm-9.1 10.1c.4 0 .4-.6 0-.6s-.4.6 0 .6zm-12.8 11.6c.1 0 .1-.2 0-.2s-.1.2 0 .2zm21.9-29c.4 0 .4-.6 0-.6s-.4.6 0 .6zm-7.3 15.6c.3 0 .6 0 .9-.1.3 0 .3-.5 0-.5s-.6 0-.9-.1c-.4 0-.4.7 0 .7zm15-10.5c0-.3-.1-.6-.1-.9 0-.2-.4-.2-.4 0 0 .3-.1.6-.1.9-.2.6.6.6.6 0zm9.1-25.5c0-.3-.1-.6-.1-.9 0-.3-.4-.3-.5 0 0 .3-.1.6-.1.9 0 .4.7.4.7 0zm6.3-6.6c-.9-1-.9-2.2-.9-3.5 0-.2-.4-.2-.4 0 0 1.4-.1 2.7.9 3.9.2.3.6-.1.4-.4zm127.6-22.5c.1 0 .1-.2 0-.2s-.1.2 0 .2zm-15 4.5c0-.5 0-.5.5-.6.3-.1.3-.5 0-.6-.3-.1-.6-.1-.9-.1-.2 0-.4.1-.5.3-.2.3-.2.7-.2 1.1.1.5 1.1.5 1.1-.1zm3.6 4.5c.1-1 1-1.8 1.6-2.5.3-.3-.1-.7-.4-.4-.9.8-1.8 1.6-2 2.8-.2.6.7.7.8.1zm16.3-18.2c0-.6 0-1.3-.1-1.9 0-.2-.5-.2-.5 0-.1.6-.1 1.3-.1 1.9 0 .4.7.4.7 0zm8.2-11.9c0-.3-.1-.6-.1-.9 0-.2-.4-.2-.4 0 0 .3-.1.6-.1.9 0 .4.6.4.6 0zM377.9 185c-.1-.3-.1-.6-.2-.9-.1-.3-.5-.3-.6 0-.1.3-.1.6-.2.9-.1.8 1.1.8 1 0zm-1.4-12c-.3 0-.6.1-.9.1-.2 0-.2.4 0 .4.3 0 .6.1.9.1.4 0 .4-.7 0-.6zm13.9-1.8c-.5-.5-.8-1-1-1.7 0-.2-.3-.1-.3 0 0 .8.4 1.5.9 2 .2.4.7 0 .4-.3zm11.7-27.9c.2 0 .2-.3 0-.3-.3 0-.3.3 0 .3zm74-20.5c-.3-.1-.5-.4-.7-.4-.3-.1-.6 0-.9 0-.2 0-.5.1-.6.3.1-.1.2-.1.3-.2-.7.2-.4 1.3.3 1.1.2-.1.5-.2.7-.2.3-.1.3-.5 0-.6-.2-.1-.5-.2-.7-.2-.7-.2-1 .9-.3 1.1-.1-.1-.2-.1-.3-.2.1.2.4.3.6.3h.7c.4 0 .5-.4.9-.5.2-.1.2-.4 0-.5zm19.2-12.9c-.6-.2-1.6-.3-1.9-.9-.8-1.1-2.4-.2-1.8 1 .7 1.4 2.5.9 3.7.6.4-.1.4-.6 0-.7zm-15.8-1.3c.1-.3.1-.5.2-.8.3-1.5-2.1-1.5-1.8 0 0 .3.1.5.2.8.1.8 1.2.8 1.4 0zm3.8 8c1.1 0 1.1-1.7 0-1.7s-1.1 1.7 0 1.7zm-13.7 4.3h-1.8c-.4 0-.4.6 0 .6.6.1 1.2.1 1.8 0 .5 0 .5-.6 0-.6zm-16 15.8c0-.7 1.1-1.2 1.6-1.7.1-.2-.1-.4-.2-.3-.8.6-1.9.8-2.1 1.9-.2.6.6.7.7.1zm20.6-24.2c.5 0 .5-.8 0-.8s-.5.8 0 .8zm-9.8 17.8c.1-1.1 1-1.9 1.7-2.6.2-.2-.1-.4-.3-.3-.8.8-1.8 1.6-1.9 2.8 0 .4.5.5.5.1zm17.2-19.4c-.6-.1-.6-.1-.5-.7.1-.6-1.1-.6-.9.1.1.9.4 1.2 1.4 1 .2.1.3-.3 0-.4zm-3.4 4.5c-.3-.4-.6-1-1.1-1.2-.4-.2-.9.3-.7.7.2.5.8.7 1.2 1.1.4.4.9-.2.6-.6zm-.3 8.2c-.3 0-.6-.1-.8-.1-.6-.1-.6 1 0 .9.3 0 .6-.1.8-.1.4 0 .4-.7 0-.7zm-8 7.4c-.5-.5-.8-1-1-1.7 0-.2-.4-.2-.4.1 0 .8.4 1.5.9 2.1.3.3.8-.2.5-.5zm2.5-23.1c-1 .1-1.5.5-1.2 1.5.1.3.5.3.6 0 .2-.6 0-.5.6-.5.7.1.7-1.1 0-1zm-19.6 34.4c0 .3.1.6.1.9 0 .3.6.3.6 0s.1-.6.1-.9c.1-.7-.9-.7-.8 0zm-10.6 22.5c-.3 0-.6 0-.9.1-.2 0-.2.4 0 .4.3 0 .6 0 .9.1.4-.1.4-.6 0-.6zm-2.4-4.3c0-.6 0-1.2-.1-1.8 0-.3-.5-.3-.5 0 0 .6 0 1.2-.1 1.8.1.4.7.4.7 0zm3.6-12c0-.3-.1-.6-.1-.9 0-.2-.3-.2-.3 0 0 .3-.1.6-.1.9-.1.5.6.5.5 0zm2.5-11.6c.2 0 .2-.3 0-.3s-.2.3 0 .3zm6.4-11.7c.4 0 .4-.6 0-.6-.4-.1-.4.6 0 .6zm-2.2 15.2c0 .9.1 1.8.1 2.7 0 .3.5.3.5 0 0-.9.1-1.8.1-2.7 0-.5-.7-.5-.7 0zm-1.5 14.3c-.6 0-1.2 0-1.8.1-.3 0-.3.4 0 .4.6.1 1.2.1 1.8.1.4 0 .4-.6 0-.6zM435.8 169c.3 0 .3-.5 0-.5-.3-.1-.3.5 0 .5zm.2 10.5l-.9-.9c-.2-.2-.4.1-.3.3l.9.9c.2.2.5-.1.3-.3zm.8 2.1c.2 0 .2-.3 0-.3s-.2.3 0 .3zm-9.9 4.5v-.9c0-.2-.3-.2-.3 0v.9c-.1.2.3.2.3 0zm156.9-92.5c-.3 0-.6 0-.9.1-.2 0-.2.4 0 .4.3 0 .6 0 .9.1.3-.1.3-.7 0-.6zm-8.9 19.4c.1-.3.3-.8.1-1.2-.2-.2-.4-.2-.6 0-.2.3 0 .8.1 1.2 0 .3.3.3.4 0zm-14.8 17.1c-.5-.1-.2-.5.1-.9.3-.5.7-1 1.1-1.5.2-.3-.2-.7-.5-.5-.7.5-2.5 1.8-2 2.9.1.2.3.4.5.4.4 0 .4.1.8 0 .2.1.3-.4 0-.4zm9.5-26.1c0-.1 0-.2.1-.2.7-.5.5-1.7-.5-1.7s-1.1 1.2-.5 1.7l.1.2c.1.3.6.3.8 0zm-10.3 17.8c.3-.1.6-.1.9-.2.3-.1.3-.6 0-.7-.3-.1-.6-.1-.9-.2-.9-.3-.9 1.3 0 1.1zm8.8-4c-1 .2-1.3.6-1.9 1.4-.2.2.2.6.4.4.5-.4.8-.7 1.5-.5 1.1.2 1-1.4 0-1.3zm-18.5 25.4c.1.3.1.6.2.9 0 .3.5.3.6 0 .1-.3.1-.6.2-.9 0-.7-1.2-.7-1 0zm-5.8 17.1c-.7-.7-.7-1.6-.1-2.4.1-.2-.1-.3-.3-.2-1 1-1 2-.1 3.1.3.2.8-.2.5-.5zm14.4-16.5c-.6 0-1.2 0-1.8.1-.2 0-.2.4 0 .4.6 0 1.2 0 1.8.1.4-.1.4-.6 0-.6zm-11.8-3.1c.5 0 .5-.7 0-.7s-.5.7 0 .7zm5.1-14v.3c0 .5.7.5.7 0v-1.2c0-.5-.7-.5-.7 0v1.2c0 .5.7.5.7 0v-.3c0-.5-.7-.5-.7 0zm10.6-18.5c-.5-.5-.9-.9-.9-1.6 0-.2-.4-.2-.4 0 0 .9.3 1.3.9 2 .2.2.6-.1.4-.4zm17.1-27c.2 0 .2-.4 0-.4s-.2.4 0 .4zm14.7-10.5c-.7.1-1 .5-1.1 1.2 0 .2.3.3.4.1.1-.5.3-.7.7-.7.3-.1.3-.6 0-.6zm-6.4 14.2c.3 0 .3-.5 0-.5-.4 0-.4.5 0 .5zm15.8-15.8c0-.3-.1-.6-.1-.9 0-.3-.5-.3-.5 0s-.1.6-.1.9c0 .5.8.5.7 0zm8.1-10.2c-.3-.3-.7-.6-1-.8-.2-.2-.4.1-.3.3.3.3.6.7.8 1 .3.2.8-.3.5-.5zm8-15c.5 0 .5-.7 0-.7-.4 0-.4.7 0 .7zm-15.5 11.9c.4 0 .4-.6 0-.6-.4-.1-.4.6 0 .6zm-9 8.5c-1.3-1-3 .1-4 1.1-.2.2.1.5.3.3.8-.7 2.2-1.7 3.2-.8.5.3 1-.3.5-.6zm-16.6 17.1c.5 0 .5-.7 0-.7-.4 0-.4.7 0 .7zm2.1 5.3c.3-.3.6-.7.8-1 .2-.2-.1-.4-.3-.3-.3.3-.7.6-1 .8-.2.3.2.8.5.5zm9.8-6.4c.2 0 .2-.4 0-.4s-.3.4 0 .4zm-50 71.7c-.7-.6-1.2-1-2.2-.9-.2 0-.2.4 0 .4.8.1 1.1.4 1.6 1 .4.4 1-.2.6-.5z" class="st1"/><path d="M558.2 121.8c.4 0 .9 0 1.2-.3.2-.1.2-.4 0-.6-.3-.3-.8-.3-1.2-.3-.8-.1-.8 1.3 0 1.2zm-3.6 18.1c-.3-.2-.4-.1-.4.1-.1.3-.2.7-.3 1-.3.1.4-.1.6-.2.5-.2.9-.6 1.3-1 .3-.4-.1-1-.5-.7-.6.4-1.2.4-1.8.8-.4.2-.4.8 0 1 .3.2.8.1 1.1 0 .6-.1.6-1 0-1zm91.1 14.9c-.1-.4-.1-.3.3-.4.3-.1.3-.5 0-.6-1-.2-1.4 0-1.7 1-.3 1.1 1.6 1.2 1.4 0zm20.2-22.6c0-.4.9-.4 1.2-.5.4-.1.4-.7 0-.9-1.1-.4-2.4-.1-2.7 1.1-.3 1.2 1.4 1.4 1.5.3zm20.2-15.8c-.2 0-.3-.1-.4-.3-.5-.5-1.3-.1-1.3.5s.9 1.1 1.3.5c.1-.2.2-.3.4-.3.3 0 .3-.4 0-.4zm-14.4-2.8c.3-.1.6-.2.8-.3.4-.1.4-.6 0-.7-.3-.1-.6-.2-.8-.3-1.1-.3-1.1 1.7 0 1.3zm6.3 11.7c-.5-.1-.6-1.1-.7-1.5-.1-.3-.6-.3-.7 0-.3 1.2-.2 2.4 1.3 2.4.5 0 .6-.7.1-.9zm-4.7-7.4c-1 .1-1.6.5-2.2 1.3-.2.3.2.7.5.5.6-.4.9-.7 1.6-.6.9 0 .9-1.3.1-1.2zM656 135.5c.7 0 .7-1.1 0-1.1s-.7 1.1 0 1.1zm-1.3 8.9l.2.2.6-.6c-.5-.4-.9-.8-1.4-1.2l-.5.5c.1.1.2.1.3.2.3.1.5-.1.4-.4-.1-.1-.1-.2-.2-.3-.3-.3-.8.2-.5.5.4.5.8.9 1.2 1.4.4.4 1-.2.6-.6l-.2-.2c-.2-.6-.9.1-.5.5zm6.7-22.6c-.3 0-.6.1-.9.1-.3 0-.3.5 0 .5s.6.1.9.1c.5 0 .5-.8 0-.7z" class="st1"/><path d="M662.4 121.8c-.3 0-.6.1-.9.1-.3 0-.3.5 0 .5s.6.1.9.1c.4 0 .4-.8 0-.7zm-16.5 21.8c.6 0 .6-.9 0-.9s-.6.9 0 .9zm-5.5 20c.5 0 .5-.8 0-.8s-.5.8 0 .8zm-3.6 18.3c.5 0 .5-.8 0-.8-.6 0-.6.8 0 .8zm5-31.6c-.1-.3 0-.8-.3-1-.1-.1-.3-.1-.5 0-.2.2-.2.7-.3 1 0 .8 1.3.8 1.1 0zm13.7-20.1c0-.3-.1-.6-.2-.9-.1-.3-.5-.3-.6 0-.1.3-.1.6-.2.9 0 .7 1.1.7 1 0zm2.8 12.3c.2-.3.5-.7.7-1 .2-.3-.2-.7-.5-.5-.3.2-.7.5-1 .7-.9.5.3 1.7.8.8zm9.5-4.9c-.1-.7-.1-1.4-.5-2-.2-.3-.6-.3-.7 0-.4.7-.4 1.3-.5 2-.1 1.1 1.8 1.1 1.7 0zm2.4-9.2c-.1-.3 0-.8-.3-1-.1-.1-.4-.1-.5 0-.2.2-.2.7-.3 1-.1.9 1.2.9 1.1 0zm8.9-10.3c-.7-.8-.6-1.4-.1-2.3.2-.3-.2-.5-.4-.3-1.2 1-1.2 2.1-.2 3.3.5.5 1.1-.2.7-.7zm11.1-4.2c.1-.9.7-1.4 1.5-1.5.4-.1.3-.7-.1-.6-1.2.1-2 .9-2.2 2-.1.6.7.7.8.1zm84.5-38.8c-.2 0-.5 0-.7-.1-1-.4-1 1.6 0 1.2.2-.1.5-.1.7-.1.6-.1.6-1 0-1zm-4.1 20.8c.2-.3.5-.7.7-1 .2-.3-.2-.6-.4-.4-.3.2-.7.5-1 .7-.8.5.2 1.4.7.7zm13.6-6.7v.3c0 .7 1.2.7 1.1 0 0-.4.1-1-.2-1.4-.2-.3-.6-.3-.8 0-.3.3-.1 1-.2 1.4 0 .7 1.1.7 1.1 0v-.3c.1-.7-1.1-.7-1 0zm-15.9 11.4c-.3 0-.6-.1-.8-.1-.7-.1-.7 1.2 0 1.2.3 0 .6-.1.8-.1.6-.1.6-.9 0-1zm-11.4 17c-.1-1.9.4-3 1.5-4.4.2-.3-.2-.5-.4-.3-1.6 1.3-2.1 2.7-2.2 4.7.1.6 1.2.6 1.1 0zm7.9-27c.3-.1.6-.1.9-.2.2-.1.2-.4 0-.5-.3-.1-.6-.1-.9-.2-.8-.2-.8 1.1 0 .9zm14.5-7.1c.8 0 .8-1.2 0-1.2-.8-.1-.8 1.2 0 1.2zM761 96.1c.6 0 .6-1 0-1-.6.1-.6 1 0 1zm-2.7 11.9c.7 0 .7-1 0-1s-.7 1 0 1zm11.1-.7c-.9-.7-1.8-1-2.9-.9-.2 0-.2.4 0 .4 1 .1 1.8.2 2.5.9.3.3.7-.2.4-.4zm-17.5-3c.5 0 .5-.8 0-.8-.6-.1-.6.8 0 .8zm-3.7 11.8c.5 0 .5-.8 0-.8s-.5.8 0 .8zm-1.7 17.4c.3-.1.6-.1.9-.2.2-.1.2-.4 0-.5-.3-.1-.6-.1-.9-.2-.8-.2-.8 1.1 0 .9zm-5.6 18.4c-.5 0-.1-.2.1-.5.2-.2-.1-.4-.3-.3-.8.7-1.2 1.3.1 1.4.5.1.5-.6.1-.6zm4.9-20.6c0-.9-.1-1.8-.1-2.7 0-.4-.6-.4-.6 0 0 .9-.1 1.8-.1 2.7.1.5.9.5.8 0zm6.1-1.3c0-.1 0-.3.1-.4.2 0 .2-.4-.1-.4-1.1.1-1.2 1.2-.1 1.4.4.1.5-.6.1-.6z" class="st1"/><path d="M756.7 115.7c0-.8.3-1.1.8-1.7.2-.2-.1-.4-.3-.3-.7.6-1 1-1.1 2 0 .4.6.4.6 0zm1.6-5.7c-.7-.1-1.1-.8-1.8-.8-.2 0-.3.3-.1.4.8.1 1 .9 1.8 1 .4 0 .4-.6.1-.6zM775 88c-.7-.6-1.4-.9-1.9-1.6-.2-.2-.5-.2-.6.1-.4 1.1 1.1 1.6 1.8 2.3.5.3 1.2-.4.7-.8zm15.2-33.7c.9 0 .9-1.4 0-1.4s-.9 1.4 0 1.4zm11.3-8.4c-.3-.3-.7-.8-1.1-.9-.3-.1-.6.2-.5.5.1.5.6.8.9 1.1.5.6 1.2-.2.7-.7zm-33.7 134.2c-1.1-.9-1.9-1-3.3-.8-.3.1-.3.6 0 .6.9.2 1.7.4 2.4 1.1.6.6 1.6-.3.9-.9zm-19.2 10.1c-.8-.7-1.7-1.4-2-2.4-.1-.3-.5-.2-.5.1 0 1.3.9 2.2 1.7 3.1.5.5 1.3-.3.8-.8zm-13.2-15c.1 0 .1-.1 0-.1-.1-.1-.1.1 0 .1zm-37.4.2c-.7 0-1.4 0-2 .3-.2.1-.2.5 0 .6.6.3 1.3.3 2 .3.8 0 .8-1.2 0-1.2zm-3.3-21.3v.3c.1.6 1 .6.9 0 0-.4-.1-.7-.1-1.1 0-.5-.7-.5-.7 0 0 .4-.1.7-.1 1.1-.1.6.9.6.9 0v-.3c.2-.6-.9-.6-.9 0zm-3.1 16.1h-.3c-.3 0-.3.6 0 .5.4 0 .8-.1 1.2-.1.2 0 .2-.4 0-.4-.4 0-.8-.1-1.2-.1-.3 0-.3.5 0 .5h.3c.4.2.4-.4 0-.4zm63.2 17.8c.1-.3.2-.7.1-1.1-.1-.3-.6-.3-.7 0-.1.3 0 .7.1 1.1.1.2.5.2.5 0zm-16.6 7.8c-.5 0-.7-.3-.7-.7 0-.2-.4-.3-.4 0 0 .7.4 1.1 1 1.2.4.1.4-.4.1-.5zm-1.9-11.4c.2 0 .2-.3 0-.3-.1 0-.1.3 0 .3zm14.4 1.9c.1.1.2.2.3.2.4.3.9-.2.5-.5-.3-.2-1-1.2-1.4-1.1-.1 0-.2.1-.2.2-.1.4.9 1.1 1.1 1.4l.5-.5c-.1-.1-.2-.2-.2-.3-.4-.3-1 .3-.6.6zm-101.6 2.5c0-.3 0-.6-.1-.9 0-.5-.7-.5-.7 0 0 .3 0 .6-.1.9 0 .5.9.5.9 0zm-62.6-2.3c.6 0 .6-.9 0-.9s-.5.9 0 .9zm-1.4-23.6c-.3-.3-.5-.6-.8-.9-.5-.4-1.2.2-.7.7.3.3.6.6.9.8.3.5 1-.2.6-.6zm30.2-42.7c0-.3-.1-.6-.1-.9 0-.3-.6-.3-.7 0 0 .3-.1.6-.1.9-.1.7 1 .7.9 0zm16-11.3c.6 0 .6-.9 0-.9s-.6.9 0 .9zM603 125.2c.4 0 .4-.6 0-.6-.4-.1-.4.6 0 .6zm-16.2 5.4c.6-.6 1.2-1.2 1.8-1.9.3-.3-.2-.8-.5-.5-.6.6-1.2 1.2-1.9 1.8-.3.4.3 1 .6.6zm39.5-17.5c.1-.3.1-.6.1-.9 0-.8-1.2-.8-1.2 0 0 .3.1.6.1.9.1.5.9.5 1 0zm10.9-5.6c0-.3 0-.8-.2-1.1-.1-.1-.3-.1-.4 0-.3.3-.2.8-.2 1.1-.1.5.9.5.8 0zM112.5 43.8h-.8c-.9 0-.9 1.3 0 1.3h.8c.9.1.9-1.4 0-1.3zm-13.4 8.9v.3c0 .8 1.4.9 1.3 0v-1c0-.2-.1-.4-.3-.5-.2-.1-.4-.1-.6 0-.2.1-.3.3-.3.5v1c0 .9 1.3.8 1.3 0v-.3c0-.9-1.5-.9-1.4 0zm13.4 8.8h-.8c-.5 0-.5.8 0 .8h.8c.5-.1.5-.8 0-.8zM97 68.6c-.3 0-.6 0-1 .1s-.4.8 0 .9c.3.1.6.1 1 .1.7 0 .7-1.1 0-1.1zm-21.6 34.3c0-.2 0-.6.1-.8.3-.7-1.1-.7-.9 0 .1.2.1.5.1.8.1.5.7.5.7 0zm-21.2 39c-.6-.1-.6-.1-.7-.7-.1-.3-.6-.3-.6 0-.2 1.1.2 1.5 1.3 1.3.3 0 .3-.6 0-.6zm-12.9 24.5h.3c.6 0 .6-.9 0-.9-.4 0-.7.1-1.1.1-.5 0-.5.7 0 .7.4 0 .7.1 1.1.1.6 0 .6-.8 0-.9h-.3c-.6 0-.6 1 0 .9zm10.9-44.7c-1 .1-1.2.3-1.1 1.3 0 .3.4.3.4 0 .1-.6.1-.6.7-.5.6.1.6-.9 0-.8zM40.4 151c-1.1-.1-2.3 0-2.1 1.4 0 .3.5.3.6.1.3-.6 1-.6 1.6-.7.4-.1.4-.8-.1-.8zm-11.9 20.9c-.6 0-3.9-.1-3 1.5.1.2.3.2.5.1.7-.8 1.5-.7 2.5-.7.6 0 .6-.9 0-.9zm-11.9 18.3c-.2 0-1.1.2-.7-.4.1-.2-.1-.5-.3-.3-1.3 1 0 1.5 1 1.5.6.1.6-.8 0-.8zm23.8-25.7h.3c.4 0 .4-.6 0-.6-.3 0-1-.1-1.3.2-.1.1-.1.2 0 .3.3.2 1 .1 1.3.2.4 0 .4-.6 0-.6h-.3c-.4-.2-.4.5 0 .5zm1.2-23.3c-.1-.5-.6-1-.1-1.6.2-.2-.1-.5-.3-.3-.8.9-.2 1-.1 2-.1.4.5.3.5-.1zm23.6-16.5c-.3-.3-.6-.6-1-.9-.2-.2-.4.1-.3.3.3.3.6.6.9 1 .3.2.7-.2.4-.4zm2.8-31c-.1-.8-.9-1.1-1-1.8 0-.2-.4-.2-.4.1.1.7.8 1.1.8 1.8.2.4.7.3.6-.1zm9.8-3.8c-.3 0-.6 0-.9.1-.2 0-.2.4 0 .4.3 0 .6 0 .9.1.4-.1.4-.6 0-.6zm144.3 41.9h.8c.7 0 .7-1.1 0-1.1h-.8c-.7 0-.7 1.1 0 1.1zM206.8 162c1.2-.2 2.1-1.2 2.9-2.2.4-.4-.2-.9-.6-.6-.7.6-1.5 1.4-2.4 1.5-1 .1-.9 1.5.1 1.3zm5.7 14c0-.6 0-1.3-.1-1.9 0-.2-.4-.2-.5 0-.1.6-.1 1.3-.1 1.9-.1.5.7.5.7 0zm2.7 15.2c-.9-.9-.8-2.1-1-3.4 0-.3-.5-.3-.6 0-.2 1.5-.2 2.9.8 4.1.5.5 1.3-.3.8-.7zm-11.1-11.8c-.8-.8-.9-1.5-1-2.5 0-.2-.4-.2-.4 0-.1 1.2.1 2.1.8 3 .4.4 1-.2.6-.5z" class="st1"/><path d="M209.3 158.1h-.7c-.8 0-.6 1.3.1 1.1.2-.1.4-.1.6-.2.3-.1.3-.6 0-.7-.2-.1-.4-.1-.6-.2-.8-.2-.9 1.1-.1 1.1h.7c.7-.1.7-1 0-1.1zm1 4c-.1 0-.5 0-.5-.1-.2-.4-.8-.2-.8.2 0 .5.6.6.8.2 0-.1.4-.1.5-.1.2.1.2-.1 0-.2zm.9 6c.4 0 .4-.6 0-.6s-.4.6 0 .6zm-4.3 3.3c0-.6-.2-1.5.6-1.6.2 0 .2-.4-.1-.4-1.1.1-1.2 1.1-1.2 2 .1.5.7.5.7 0zm12-13.7c-.1-.6-.1-.6.5-.7.3 0 .3-.4 0-.4-1-.1-1.2.2-1.3 1.1-.1.5.8.5.8 0zm8.2-12.7c0-.3 0-.8-.2-1.1-.1-.1-.3-.1-.4 0-.2.2-.2.8-.2 1.1-.1.5.9.5.8 0z" class="st1"/></svg>