<svg version="1" xmlns="http://www.w3.org/2000/svg" width="1365.333" height="1365.333" viewBox="0 0 1024.000000 1024.000000"><path d="M168.9 292.4c-.2.2-4.1.6-8.6.9-6.6.3-9.1 1-13 3.2-5 2.9-9.4 7.3-12.8 12.9-1.1 1.8-5.8 8.4-10.6 14.7-12.2 16.3-17.7 24.7-28.2 43.1-15.4 26.9-19.8 35.4-63.6 124-8.9 17.9-17.1 33.8-18.2 35.2-2.3 3-4 3.2-7.3 1.1-4.6-3-7.2.6-5.4 7.3C4 545 12.5 555 18.5 555c3.5 0 13.9-6.3 19.5-11.9 5.7-5.5 16.4-20.9 20.7-29.5 2.4-5 5-9.7 5.7-10.6.8-.8 3-4.9 4.9-9 1.8-4.1 5.2-10.5 7.5-14.2 3.9-6.3 15.2-28 15.2-29.1 0-1 30.1-61.3 33.5-67.2 3.6-6.2 4.3-5.6 2.5 2-.9 3.5-2.2 9.6-3.5 16-.3 1.1-2.8 10.4-5.6 20.5-11.1 40.1-11.7 43.3-9.2 51 2.9 9 10 15.1 18.8 16.3 6.4.9 11-1.8 20.5-12.3 4.7-5.2 10.1-11 12-13 1.9-2 5.7-6.1 8.4-9.1s7.6-8.3 11-11.9c14.8-15.9 16.5-18 16-19.8-.5-1.3-.4-1.4.4-.4.7 1.1 2 .3 5.7-3.5 2.6-2.6 4.3-4.1 3.8-3.3-.6.8-2.6 4.4-4.5 8-10.8 20-18.5 34.1-21.3 38.5-1.8 2.7-5.3 9-8 14-2.6 4.9-6.4 11.9-8.4 15.5-6.2 11-13.2 26.1-14.7 31.9-1.4 5.6-1.3 6.5 1.9 15.3 1.4 4.1 8.9 10.5 13.9 11.9 6 1.8 9.2 1.4 14.8-1.5 2.6-1.4 5-2.2 5.3-1.9.3.3 3.9-.2 8-1.1 12-2.7 21.3-7.7 44-23.6 1.2-.8 1.8-1 1.4-.3-.4.6.9 4.5 2.8 8.7 4.6 9.6 10.2 14.3 19 16.2 9.5 1.9 14.2.1 26-10.2l8.9-7.8-6.2 11.8c-3.5 6.4-7.3 13.4-8.5 15.4-1.3 2-2.8 4.8-3.5 6.2-.7 1.4-2.6 4.5-4.2 7s-3.4 5.4-3.9 6.5c-.5 1.1-4.9 8.2-9.8 15.7-4.8 7.5-11.3 17.6-14.3 22.4-3 4.8-5.9 9.2-6.5 9.8-.9 1-4.7 6.8-7.2 11.1-.7 1.1-3.1 5.1-5.4 8.8-2.6 4.3-3.8 7.2-3.2 7.8 1.9 1.9 16.5 1.3 23.2-1 8.5-3 13-6.2 22.9-16.6 11.5-12.1 34.7-44.5 41.6-58.2 3.2-6.2 19.1-34.8 20.2-36.1.1-.2 2.2-.6 4.6-.8 7.9-.9 19.3-5.6 26.4-11.1l3.4-2.5.1 2.6c.2 3.2.2 3.2 1.8 8.1 2.6 7.8 10.4 15.4 17.9 17.5 5 1.3 7-.2 12.6-9.8 2.5-4.3 6.4-9.8 8.6-12.2 3.4-3.7 4.3-4.2 7-3.7 3.3.7 5.1 2.3 12 10.6 10 12.1 24.1 13.4 41.5 3.6 5.5-3.1 6.9-3.4 12.1-3.1 10.5.7 23.1-4 34.9-12.9l5.9-4.5 1.6 4.3c3.4 8.9 9.9 16.6 15.9 18.9 3.8 1.4 11 2 15.5 1.2 2.6-.4 6-2.4 10.5-6.1 7.9-6.6 11.3-10.2 23.9-25.6 9.6-11.6 11.9-13.7 10.3-9.5-.4 1.3-.8 7-.9 12.8-.1 15.7 2.6 20 12.9 20.1 3 .1 6.1-.1 7.1-.3 3.6-.9 11.4-5.5 15.2-9.1 2.1-2 4-3.7 4.1-3.7.2 0-.5 2.8-1.5 6.2-3.5 12.6-3.8 14.5-2.4 18.4 1.6 4.6 3.7 6.6 9.5 9.2 5.7 2.4 7.1 1.8 10.4-4.8 1.4-2.7 3.8-6.4 5.3-8.2 5.6-6.5 20.7-28.9 24.2-35.8 4-8 13.5-22.9 14.4-22.7.5.2 3.3 5.6 6.1 12 6.6 14.6 16.8 30 26 39.2 6 6 7.8 7.2 13.2 8.7 7.6 2.2 11 2.2 15.5.4 3.7-1.6 9.2-7.2 12.4-12.4 1-1.8 2.1-3.2 2.4-3.2.3 0 1.7 2 3.1 4.4 1.7 2.7 4.6 5.5 7.5 7.2 4.2 2.5 5.9 2.8 12.9 2.9 7.7 0 8.3-.2 12.6-3.5 10-7.8 22.6-21.4 33.9-36.6 3-4 4.3-4.3 3.4-.9-.4 1.4-.7 7.2-.7 12.8-.1 15.8 2.7 19.8 13.6 19.9 4.4.1 7.1-.6 12-3 6.6-3.3 9.4-5.6 16.3-13.5l4.2-4.7-.3 7.4c-.5 11.4 2.8 22 8.9 28.4 10.6 11.2 36.5 5.8 62.4-13.1 9.6-7 19.2-17.9 23.8-26.9 3.4-6.7 3.9-17.5 1-20.7-2.4-2.6-2.2-2.7-18.6 10.8-7.4 6.2-15.5 12.1-18 13.2-6.2 2.9-12 5-15 5.4-1.4.2-4.6.8-7.2 1.3-2.7.5-4.8.6-4.8.1 0-2.2 12.4-30.8 19.4-44.7 4.1-8.1 17.7-29.2 22.4-34.8 1.5-1.8 3.3-2.2 12-2.7 12-.8 18-2 24.2-4.8 10.4-4.8 18.9-15 22-26.3 1.1-3.6 1.5-6.6 1-6.6s-2.8.9-5 2.1c-4.7 2.5-18.5 3.4-23.7 1.5l-3.2-1.1 11.5-18c6.3-9.9 12-18.5 12.7-19 2.5-2.1 6.7-7.7 6.7-9 0-.8-3.1-6-6.9-11.7-8.2-12.2-18-22.4-22.4-23.4-4.1-.9-5.5.7-17.8 20.6-2.9 4.7-12.4 19.3-21.2 32.5-31 46.6-44.2 71.1-53.6 99.3-2.8 8.5-5.1 16-5.1 16.7 0 1.7-9.4 9.2-13.8 11.1-2 .8-4 1-4.9.6-1.2-.7.2-3.9 7.1-17.3 4.7-9.1 8.7-17.8 9-19.4 1.4-7.3-3.4-12.5-12.9-14.2-6.4-1.2-10.6-.1-14.7 4-6.8 6.7-18.5 19.4-22.2 24.2-7.1 9.1-29.5 29.9-33.7 31.4-2.7.9-2.9.8-2.9-1.4 0-5.4 17.5-27.9 34.6-44.5 14.6-14.1 24.2-21.4 31.4-23.8 5.3-1.8 9.9-1.6 10.1.5 0 .4.2 1.9.3 3.2.4 3.4 4.4 6.1 9.2 6.1 4.7 0 6.3-1.1 9.2-6.3 2.5-4.3 2.9-11.6 1-17.9-2.8-9.4-16.2-17.3-31.3-18.4-3.8-.3-8.3-.7-9.9-.8-5.9-.6-22.4 3.7-30.4 7.8-8.3 4.3-29.4 28.3-42.7 48.6-8.7 13.2-17 29.3-19.1 37-1.7 5.9-2.6 7.3-10.5 15.3-10.2 10.3-11.1 10.4-14.1 1.1-2.6-8.5-6.5-23.3-7.3-27.9-2-11.8-3.3-21-3.1-22.3.2-.9 4.9-3.4 11.7-6.2 16.3-6.7 31.8-13.8 52-24 11.9-6 13.6-11 8.3-24.1-3.9-9.7-5.1-10.2-17.5-6-6.1 2.1-12.6 5.2-16.7 8-10.9 7.3-50.3 30.4-50.9 29.7-.5-.5 17.6-27.2 35.2-52.1 8.2-11.6 16.8-23.7 19-27 2.2-3.3 5.9-8.5 8.2-11.5 2.3-3 5.1-7.6 6.2-10.1 2.3-5 6.5-9.8 12.4-14.2 2.9-2.2 3.7-3.5 3.7-6-.1-4.9-1.8-6.5-22.7-21.6-8.4-6.1-11.1-5-20.9 9.1-9.3 13.4-34.1 50.2-41.3 61.3-45.1 69.8-50.5 78.5-62.8 102.6-5.8 11.4-7.9 14.4-12.8 18.9-3.2 2.9-7.8 6.1-10.2 7.2-7.9 3.5-7.7 1.7 2-17.1 10.3-20 10.9-23.3 5.3-28.5-4-3.8-10.3-5.5-16.6-4.4-4 .7-5.5 1.8-14.8 11.5-5.7 6-12.9 13.9-15.9 17.8-3.1 3.8-6.2 7.5-7 8.2-.8.6-5.9 5.3-11.4 10.5-10.7 10-15.7 13.4-17.3 11.8-2.7-2.7 12.6-23.8 29.6-41.1 9.6-9.8 14.6-14.2 26-23.4 4.4-3.6 14-7.2 17.5-6.7 1.5.2 2.5 1.2 2.9 3 1.2 5.5 1.5 6 4.6 7.3 3.7 1.5 8.5 1.4 10.6-.3.7-.7 2.4-3.2 3.7-5.7 2.6-5.2 2.6-13.3 0-19.2-2-4.7-3.3-6-9-9.6-8.2-5.1-18.9-7.7-32-7.7-8.8.1-24.4 4.4-31.3 8.8-11.2 7.2-35.5 36.8-48.1 58.6-2.9 5.1-6.1 9-10 12.1-6 4.9-20.1 15.1-20.1 14.6 0-.2 2-3.9 4.5-8.2 5.2-9.2 12.3-25.1 17.2-38.5 7.5-20.6 5-37.9-6-42.5-4.1-1.7-15.9-1.4-20.2.6-7.6 3.4-25.7 17.7-45.5 35.9-1.5 1.4-6 5.4-10 9-4.1 3.6-8.1 7.3-8.9 8.2-3.9 4.5-2.2.6 5.8-13.5 10.3-18 22.2-35.9 33.9-51.2 4.7-6.1 12.9-16.9 18.3-24 5.4-7.2 12.5-16.4 15.6-20.5 13.6-17.5 17.4-23.4 16.8-26-.7-2.8-7.9-10.7-11-12.1-1.1-.5-2.7-1.3-3.5-1.8-3.4-2.1-9.6-4.4-12.9-4.8-2-.3-3.8-.7-4-.9-.6-.5-6.1 2.6-6.1 3.5 0 .4-1.4 2.3-3 4.2-4.7 5.3-23.2 30.3-24.1 32.5-.2.6-2.3 3.7-4.7 7-8.2 11.4-32.4 49.1-47.4 74-10.7 17.7-13.7 22.9-23.3 40.9-4.3 8.1-7 11.2-14 16.3-2.7 2-5.2 3.9-5.5 4.2-.3.4-3.9 2.8-8 5.5-11.6 7.4-12.3 7.8-11.8 6.9.3-.5 4.2-7.5 8.7-15.5 4.4-8 8.1-15 8.1-15.4 0-.5 2-5 4.4-10 2.4-4.9 5.3-12.2 6.4-16 1.2-3.9 3-10.1 4.1-13.9 2.7-8.7 2.6-13.9 0-18.6-2.4-4.3-7.1-6.9-13.9-7.7-4.5-.5-4.7-.4-6.2 2.8-.9 1.9-1.9 4.5-2.3 5.9-1.6 5.4-15.4 30.4-21.7 39.2-5.6 7.7-25.4 28.4-36.2 37.6-5.6 4.8-10.3 8.9-10.6 9.2-1.3 1.6-11.3 9-11.7 8.7-.9-.9 13-23.7 30.5-50.2 1.8-2.8 4.9-8.3 6.8-12.3 6.1-12.4 4.6-22.4-4.2-30.2-5.3-4.6-16.9-9.9-22.8-10.4-4.7-.3-11.6.9-11.6 2.1 0 .3 1.1 1.8 2.5 3.5 1.9 2.2 2.3 3.6 1.9 5.6-2.1 8.7-13.2 31.5-23.9 49.2-2.8 4.7-6 10.7-7 13.3-1.2 3.1-3.1 5.8-5.4 7.5-2 1.5-3.8 3-4.1 3.3-.5.6-11.9 8-18.2 11.8-5.7 3.4-19.2 10.1-19.6 9.7-.2-.3.3-1.5 1.1-2.8.9-1.2 2.3-4.3 3.3-6.8s2-4.7 2.3-5c.7-.6 5.6-11 5.6-11.9.1-.6 1.1-2.4 10.7-18.9 5.3-9.1 5.7-10.1 3.1-8.1-1 .7-.3-.1 1.5-1.9 3.2-3.1 3.9-4.6 2.5-5.5-.5-.2-.3-.2.4-.1 1.1.3 12.1-19.3 25.4-45.2 3.7-7.2 7.8-14.9 9.1-17 4.8-7.7 34.8-69 35.3-72 1.4-9-12.7-17.6-28.5-17.4-3 .1-6.4-.1-7.5-.3-4.8-1-10.8 4.5-25.7 23.8-5.5 7-6.7 8.9-6.2 9.6.3.5.1.8-.4.7-.5-.2-3.7 3.5-7 8-3.2 4.6-10.4 13.1-15.8 18.9-5.5 5.8-12.9 13.8-16.5 17.7-3.6 3.9-9.2 9.8-12.2 13.1-3.1 3.3-9.6 10.6-14.4 16.2-8.1 9.4-12.6 12.9-10.8 8.5 2-5.1 23.3-76.5 25-84.1.2-.9 2-7 3.9-13.7 4.2-14.1 4.9-19.7 3.2-23.9-2-4.6-4.7-6.4-10.6-7.1-3-.3-5.8-.8-6.1-1-.3-.2-.8-.2-1 0zm85.1 31.4c0 .4-1 1.3-2.2 2.1-2.3 1.4-2.3 1.4-.4-.8 2-2.2 2.6-2.5 2.6-1.3zm-16.4 13.4c.4.7.4 1-.1.6-.4-.4-1.5-.2-2.4.5-1.4 1.1-1.4 1-.2-.6 1.6-2 1.8-2.1 2.7-.5zm-4.9 5.4c-.3.3-1.2.4-1.9.1-.8-.3-.5-.6.6-.6 1.1-.1 1.7.2 1.3.5zm-25.4 62.1c-2.4 1.6-3.3 4-1 2.7.7-.4.9-.3.4.2s-1.3 1-1.8 1c-.5.1-1.3.2-1.9.3-.5 0-1 .6-1 1.2s.7.8 1.7.5c1.1-.5.9.1-.7 1.7-2.6 2.4-3.8 2.7-2.4.5.5-.7.9-1.8.9-2.3 0-1.8 4.9-7.4 6.5-7.4 1 0 .8.5-.7 1.6zm-2.5 9.8c-4.4 4.7-6.5 6.1-3.2 2.2 4.5-5.4 5.8-6.7 6.6-6.7.4 0-1.1 2-3.4 4.5zm-12.5 9c-.3.9-.8 1.4-1 1.1-.3-.3-.2-.9.2-1.5.9-1.6 1.5-1.3.8.4zm303.2 21.7c-2 6.7-9.2 21.1-17.6 35.3-10.9 18.6-21.4 30.4-28.4 32.4-5.6 1.5-9.7 1.4-12.4-.5-2.1-1.5-2.3-2.2-1.8-6.5.3-2.6 1.4-6.3 2.4-8.2 6.2-11.8 50.9-54.7 56.9-54.7 1.1 0 1.4.6.9 2.2z"/><path d="M136.2 568.4c-2.9 1.6-5.2 4.9-8.9 12.3-1.9 4-3.8 7.3-4.2 7.4-.3 0-4.5.2-9.2.3-8.1.1-8.8.3-13.5 3.8-10.7 7.9-20.9 9.5-28 4.5-2.2-1.4-5-3.7-6.4-5-4.3-4-12.3-9.9-15-11-7-2.9-15.8-.6-20 5.2-6.5 9.2-8.5 18.9-8.5 41.1.1 17.1.7 24.3 2.9 32.8 3.4 12.7 9.7 19.5 18.4 19.5 6.5 0 13.2-3.6 24.8-13.2.6-.5 3-1.9 5.4-3.1 4.2-2.1 8.7-2.3 15.9-.6 3.2.7 11.2 4.6 13.3 6.4 1.3 1.1 4.2 1.5 11.1 1.4h9.3l2.8 6.4c1.6 3.5 4.4 8.2 6.5 10.4l3.6 4 255.5.4c140.5.2 257.5.6 260 1 6 .9 24.2 1.5 25.5.7 2.3-1.3 10.4-1.4 105.4-1.8l99.3-.3 5.7-5.8c3.1-3.1 6.8-7.7 8.2-10.2l2.4-4.5 8.1-.2c7-.1 8.7-.5 13.2-3.2 5.9-3.4 14.1-6.1 18.8-6.1 4.7 0 7.7 1.5 17.5 8.7 10 7.3 14.4 9.3 20.3 9.5 4.9.1 8.1-1.3 11.4-5.1 7.1-7.9 10.1-21.5 10.3-47.1.1-18.4-2.3-31.2-7.5-38.8-4.1-6.1-7.3-8.2-12.7-8.7-7-.5-12.5 2.4-24.4 12.9-1.6 1.5-4.9 3.9-7.3 5.3-3.6 2.1-5 2.4-9.3 1.9-5.5-.7-11-3.2-17.8-8-4-2.9-5-3.1-12.6-3.2-8.1 0-11.5-1.1-11.5-3.7 0-1.3-7.5-11.4-10.7-14.5-1.3-1.2-2.9-2.3-3.6-2.3-.7-.1-125.8-.2-278.1-.3-183.4-.1-277.3.2-278.2.9-.6.5-2.6 3.6-4.4 6.7l-3.2 5.8h4.3c2.3 0 3.9.3 3.5.7-.3.4-2.4.6-4.5.5-4.6-.3-6.8 2.5-2.3 3 2.5.3 2.3.6-4.6 7.7-4 4.1-7 7.6-6.7 7.9.5.5 5.7-4.1 13.9-12.4 2.3-2.3 4.1-3.1 6.9-3.2 2-.1 3.7.1 3.7.3 0 .3-4 4.7-9 9.7-4.9 5.1-9 9.6-9 10.1 0 .8 6.8-5.3 16.9-15.4 3.6-3.6 5.6-4.8 8.9-5.2 2.3-.4 4.2-.3 4.2.2s-1.9 2.6-4.2 4.8c-7.9 7.5-16.3 16.5-14.3 15.5 1.1-.6 6.7-5.7 12.5-11.2 9.6-9.3 10.9-10.2 15-10.6l4.5-.5-11.5 11.6c-14 14.2-11.7 13.6 3.5-.9 10.1-9.7 11.3-10.5 15-10.6h4L356 594.6c-16.6 16.8-10.6 12.8 8.6-5.8 4.3-4.2 5.8-5 9.2-5.1 2.2-.1 4-.1 3.9 0-.1.1-5.1 5.2-11.2 11.4-13.4 13.6-11 12.9 3.9-1.3 9.3-8.8 11.6-10.5 15.8-11.4 2.6-.6 4.8-1 4.8-1 0 .1-5.4 5.7-12 12.4-6.7 6.7-11.6 12.2-11.1 12.2s7-5.8 14.3-13c12.2-11.8 13.6-12.9 17.1-13 2 0 3.7.2 3.7.4s-4.8 5.3-10.7 11.3c-6 5.9-11.5 11.7-12.3 12.8l-1.5 2 2.5-2c2.8-2.3 11.5-10.4 20.2-18.8 4.6-4.6 6.5-5.8 8.1-5.3 1.2.3 2.8.6 3.5.6.7 0-3.9 5.2-10.3 11.6-6.3 6.3-11.5 11.9-11.5 12.4s1-.1 2.3-1.3c1.3-1.2 7-6.7 12.8-12.2 5.7-5.5 11-10 11.7-9.9.6.1 2.4.2 3.8.3 2.3.1 1.4 1.3-9 11.8-6.4 6.4-11.4 11.8-11.2 12.1.4.4 6.3-5 19.4-17.6 3.9-3.7 7.2-6 8-5.7.7.3 2.3.5 3.5.5 1.6 0-.5 2.6-8.9 11-12.8 13-12.4 12.6-10.2 11.4.9-.5 6.7-5.6 12.8-11.4 10-9.4 11.6-10.6 15.6-11l4.5-.6-11.3 11.3c-12.5 12.5-13.7 15.4-1.7 4 16.7-15.8 17.4-16.4 21.3-17.1 2.1-.4 4-.6 4.2-.3.2.2-5.4 6.1-12.4 13.1-16 16.1-13 14.9 4.4-1.8 11.8-11.2 13.4-12.5 16-12 1.6.3 3 .6 3.1.8.2.1-5.2 5.7-11.9 12.4S446.1 605 446.7 605c.6 0 6.6-5.3 13.3-11.8 11.2-10.6 12.6-11.7 16.1-11.8 2.2-.1 3.9 0 3.9 0 0 .1-4.6 4.9-10.2 10.7-17.8 18.1-16.4 18 2.5-.1 8.8-8.5 10.3-9.5 13.8-9.6 2.1-.1 3.9-.1 3.9.1 0 .1-4.4 4.7-9.8 10.2-5.3 5.5-10.6 11.1-11.7 12.4-2 2.4-2 2.4 1-.1 3.8-3.2 19.2-17.8 21.8-20.8 1.6-1.7 3.2-2.2 6.6-2.2h4.5l-7.4 7.3c-9.8 9.6-16.9 17.2-15 16.2.8-.5 4.4-3.7 8-7.1 16.9-16.2 16-15.5 19.6-15.2 1.9.1 3.4.4 3.4.6 0 .2-4.7 5.1-10.5 11-5.7 5.8-10.2 10.8-10 11 .4.5 10.4-8.7 18.5-17 3.8-3.9 5.4-4.8 8.8-5.2 2.3-.2 4.2-.1 4.2.3 0 .3-4.7 5.3-10.5 11.1-5.7 5.7-10.2 10.6-10 10.8.4.4 6.5-5.1 18.3-16.6 4.8-4.5 6-5.2 9.6-5.2h4.1l-10.3 10.3c-10.9 11-13.9 15.4-4.5 6.5 18.4-17.1 17.6-16.5 22.2-17.1l4.4-.6-10.4 10.7c-5.7 5.8-10.8 11-11.4 11.4-.7.5-.7.8 0 .8 1 0 4.8-3.3 17.5-15.6 6.5-6.3 8.1-7.3 11.9-7.8l4.4-.5-9.9 10.2c-17.4 17.7-15.6 17.4 3-.5 8.1-7.8 9.5-8.8 12.9-8.8 2 0 3.7.1 3.7.3 0 .2-4.7 5.1-10.5 11-12.6 12.8-14.4 16.3-2.4 4.7 1.4-1.4 5.6-5.4 9.2-8.9 5.8-5.7 7.1-6.5 10.7-6.6 2.2-.1 4 0 4 .1s-3 3.3-6.7 7.1c-3.8 3.8-8.8 9.1-11.3 11.8-3.9 4.2-4 4.5-1 2.1 1.9-1.6 7.8-6.9 13-12 8.4-8 9.9-9.1 13.3-9.2 2-.1 3.7.1 3.7.4 0 .3-2.6 3.1-5.7 6.2-8.4 8.3-17.2 17.7-14.3 15.5 3.3-2.7 11-9.7 18.2-16.8 5.3-5.1 6.4-5.7 10.1-5.7h4.1l-6.4 6.3c-9.9 9.7-16.7 17.1-14.8 16.1.9-.5 6.7-5.8 13-11.8 10.4-10.1 11.7-11 15.8-11.4l4.5-.4-11 11.1c-6 6.2-11.2 11.7-11.4 12.4-.2.6.2.5 1.1-.3.8-.8 4.2-3.9 7.4-6.9 3.3-3 8.4-7.8 11.4-10.7 4.5-4.2 6.3-5.3 10-5.8l4.5-.6-11.1 11.2c-19 19.4-17.1 18.8 4-1.3 8.8-8.4 10.3-9.4 14-9.7l4.1-.3-11 11.3c-6 6.2-11.4 11.6-12 12-.5.4-.7.9-.4 1.2.4.5 5.1-3.7 20-18.1 7-6.6 7.9-7.2 10.2-6.4 1.4.5 2.8.7 3.1.4.3-.4.6-.4.6-.2 0 .3-5.2 5.7-11.5 12.1-6.3 6.4-11.5 12-11.5 12.4 0 .9 3.2-1.9 15.8-14.1 6.4-6.2 10-9 11.5-8.9 1.2.1 2.9.2 3.8.3 1.1.1-2.3 4.1-9.2 11.1-6 6-10.9 11.3-10.9 11.6 0 .9 2.9-1.7 15-13.3 8.9-8.7 9.8-9.3 13.7-9.3h4.3l-9.8 9.8c-5.3 5.4-10.4 10.7-11.2 11.8-1.4 1.8-1.4 1.8 1-.1 2.6-2.1 12.5-11.3 19.1-17.8 2.1-2 4.4-3.7 5.1-3.8.7-.1 2.5-.2 4.1-.3 1.5-.2 2.7-.1 2.7.1s-2.4 2.8-5.2 5.6c-2.9 2.9-8 8.1-11.3 11.7-4.9 5.2-5.3 5.8-2 3.3 2.2-1.8 8.1-7.2 13.1-12.1 8.5-8.3 9.4-8.9 13.5-9l4.4-.2-6.5 6.4c-10.8 10.5-17.6 17.9-15.5 16.8 1.1-.6 7.1-6 13.3-12.1 6.9-6.6 12-10.8 13-10.6 1 .2 2.6.4 3.7.4 1.5.1-1 3.1-9.5 11.6-6.3 6.3-11.1 11.5-10.7 11.5 1 0 6.7-5.2 17-15.3 6.7-6.5 8.4-7.7 11.3-7.7 1.9 0 3.4.3 3.4.7 0 .4-4.6 5.4-10.2 11s-10 10.4-9.7 10.7c.2.2 5.6-4.4 11.9-10.4 10.1-9.6 11.9-10.8 14.5-10.5 1.7.2 3.3.4 3.6.4.4.1-2.9 3.6-7.3 7.8-4.3 4.3-9.1 9.4-10.5 11.3-2.4 3.1-2 2.9 2.8-1.4 3-2.7 6.1-5.6 7-6.5 9.5-9.8 11.6-11.2 14.7-10.4l3.1.8-7.7 8c-4.2 4.4-8.6 9.2-9.7 10.5-1.9 2.5-1.9 2.5 1-.1 1.7-1.5 6.5-6 10.8-10 9.2-8.6 9.3-8.7 12.9-8 2.8.6 2.7.7-5.7 9.4-8.6 8.9-11.3 12.6-5.2 7.1 1.7-1.6 3.7-3.3 4.2-3.9 10.7-10.5 13.3-12.4 16.6-12 1.9.2 3.5.4 3.7.4.1.1-1.7 2-4 4.4-14.1 14.3-16.4 18.2-3.3 5.6 10.9-10.5 11.4-10.9 15.6-10.9h3.9l-8.5 8.7c-10.1 10.3-11.4 13.3-1.7 4 13.5-13.1 14.2-13.5 18.6-11.8 1.9.7 1.9.8 0 2.2-3.4 2.6-14.9 14.9-13.9 14.9.6-.1 5-3.9 9.9-8.6 5.4-5 9.6-8.2 10.4-7.9.7.3 2.3.5 3.5.5 1.7 0 .5 1.6-5.8 8-4.4 4.4-7.5 8-7 8 .6-.1 4.8-3.7 9.5-8 7.7-7.2 8.8-8 12.5-8h3.9l-7.4 7.7c-4.1 4.3-7.9 8.1-8.5 8.6-.6.5-.6.7.1.5.7-.2 5.3-4.1 10.4-8.8 8-7.4 9.8-8.5 13.4-8.8 2.2-.2 3.9-.1 3.6.1-.3.3-4.3 4.5-9 9.3-10.5 10.7-7.7 9.5 4.5-2 5.5-5.2 9.9-8.5 11.2-8.6 1.2 0 3.4-.5 5-1.1 3.2-1.2 4.4-2.6-11 13.3-3.6 3.8-6.2 6.8-5.9 6.8.9 0 7.4-5.9 18.6-16.8 7.9-7.6 12.6-10.2 12.6-7 0 .9.4.8 1-.2s1-1.1 1-.3c0 .7-3.7 5-8.2 9.6-10.6 10.7-14.3 14.7-13.6 14.7.8 0 5.2-4.1 16.6-15.2 4.5-4.5 8.2-7.6 8.2-7 0 .7 1.1 1.2 2.5 1.2s2.5.2 2.5.5-2.4 2.9-5.3 5.8c-7.8 7.7-14.5 15.3-12 13.6 1.2-.9 6.3-5.5 11.3-10.3 7.6-7.3 9.5-8.6 11.3-7.9 1.2.4 2.5.6 3 .5 1.8-.5.3 1.8-3.5 5.5-6.6 6.1-13.5 13.7-11.7 12.7 1-.5 5.3-4.4 9.8-8.6 7.3-7 8.4-7.6 10.6-6.8 1.4.5 2.5 1.3 2.5 1.7 0 .5-2.7 3.5-6 6.8-7.4 7.4-8 9.5-.7 2.7 8.2-7.9 9.9-9.2 11-8.5.5.3.7.1.4-.4-1-1.5 1.7-3.5 3.7-2.7 1.8.7 2.2 3.9.6 4.9-.5.3-1 .1-1-.4 0-.6-.5-1.1-1.1-1.1-.8 0-.8.4 0 1.3.8 1 .2 2.1-2.5 4.8-5 4.8-6.7 8.3-1.8 3.9 2.1-1.9 4.6-4.4 5.5-5.5 1-1.1 2-1.7 2.3-1.4.6.6 1.3 5.2 2.2 14.4l.5 5-5.3 4.3c-2.9 2.4-10 8.8-15.8 14.2-17.5 16.3-20.5 18.9-20.9 18.4-.3-.2 5.8-6.7 13.5-14.4 7.6-7.7 14.1-14.4 14.4-14.8 1-1.4-7.7 6.5-19.3 17.8-9.3 9-12.6 11.6-15.3 12.1l-3.6.6 7-7.1c15.9-16.1 30-31.6 28.7-31.6-.9 0-12 9.6-21.9 19-19.5 18.6-21.2 19.6-5.6 3.5 8-8.2 13.2-13.8 11.6-12.5-3.8 3.2-24.9 23.5-28.8 27.7-2.8 2.9-6.6 3.9-8.4 2.1-.3-.3 2.1-3.3 5.3-6.5 16.7-17.1 29-30.4 30.8-33.3 1-1.7-8 5.7-10.9 8.9-2.3 2.5-4.4 2.8-2.5.4.8-1 0-.6-1.8.7-1.8 1.4-3.2 2.9-3.2 3.4-.1.5.9.1 2.2-1 1.2-1 .6-.2-1.2 1.9-1.9 2-3.9 3.7-4.4 3.7-.5 0 .1-.9 1.4-2.1 1.3-1.1 1.9-1.9 1.2-1.7-.6.2-6.9 5.9-13.9 12.7-11.9 11.7-12.9 12.4-17.3 12.8l-4.6.5 9.6-9.8c13.4-13.8 23.4-24.4 25.9-27.7 2.3-2.9 1.2-3.9-1.1-1-.8.9-4.3 3.8-7.9 6.5-3.5 2.7-13 11.2-21 19-13.9 13.4-15 14.2-20.9 15.9l-6.2 1.7 2.8-3.1c1.5-1.6 8.5-8.9 15.4-16.1 17.6-18.2 23.8-25 23.3-25.5-.3-.4-5.2 3.4-11.4 8.9-1.4 1.2-7.8 7.2-14.4 13.3-18.9 17.8-28.2 25.1-32.2 25.4l-3.4.2 2.1-2.8c1.5-2 3.4-3.1 6.3-3.6 3.8-.7 3.9-.8 1.4-1.4-2.6-.6-2.2-1.1 10-13.7 22.6-23.2 29.9-31.9 19.5-23.2-3.5 3-5.7 5-14.2 12.6-1.4 1.3-7.3 6.7-13 12-12.2 11.4-13.7 12.6-15.3 11.6-.8-.5-.9-.2-.5.9.5 1.3 0 1.7-2.1 1.7-1.5 0-3.4-.5-4.2-1-1.2-.8-1.2-1-.1-1 .8 0 1.2-.2.9-.5-.3-.3 4.2-5.4 10-11.3 13.8-14.1 25.6-27 26.1-28.5.2-.7-.9-.1-2.5 1.3-11.6 10.3-21.3 19-24 21.5-15.4 14.6-18.7 17.2-21.5 16.9-1.3-.1-3.3-.3-4.3-.3-1.4-.1 2.9-5 14.5-16.9 9.1-9.2 17.6-18.3 18.9-20.2l2.4-3.5-5.4 4.5c-6.6 5.4-10.2 8.5-14.4 12.5-26.8 24.9-25.5 24-30.4 23.7-1.9-.2-3.1.1-2.8.6.3.5-.2.9-1 .9-.9 0 4.3-5.9 11.5-13.1 7.2-7.2 13.1-13.7 13.1-14.3 0-.7.5-1.5 1.2-1.9.7-.5.8-.2.3.7-.5.8-.4 1.1.1.6.5-.5 1-1.3 1-1.8.1-.5.2-1.4.3-1.9 0-.6.6-1 1.2-1 .5 0 .7.5.3 1.2-.4.7-.3.8.5.4.6-.4.8-1.2.5-1.8-.3-.5.9-2.5 2.7-4.4 4.1-4.3 2.9-4.4-2-.3-5.7 5-19.2 17.1-22.7 20.4-12.5 11.9-21.8 19.6-20 16.7.5-.8 0-1.2-1.7-1.2-2 0 .3-2.7 12.9-15.2 8.4-8.4 15.1-15.4 14.8-15.7-.3-.3-1.5.6-2.7 1.9-3.5 3.8-16.2 15.7-15 14 .6-.8 3.8-4.2 7-7.6 11.6-12.1 15.4-16.4 14.6-16.4-.4 0-2 1-3.4 2.3-1.5 1.2-4.1 3.4-5.8 4.8-1.7 1.4-7.7 6.8-13.2 12-21.9 20.3-24.2 22.1-27.1 21.7-2-.3-1.3-1.4 6.6-9.1 4.9-4.8 8.6-9 8.3-9.3-.3-.4-4.7 3.4-9.7 8.2-13.6 13.3-12.5 11.2 1.9-3.4 15.6-15.9 25.2-26.4 24.6-27-.4-.4-11.7 9-16.6 13.8-1.7 1.6-17.3 16-24.2 22.2-2.4 2.3-5.1 3.8-6.6 3.8-2.1 0-.4-2.1 10.9-13.3 14.5-14.4 21.6-22 13.5-14.7-6.8 6.3-10 9.3-19.8 18.9-4.8 4.7-8.9 8.2-9.2 7.9-.4-.3 4.7-6.1 11.3-12.9 17.9-18.6 24.1-25.4 23.7-25.8-.8-.7-16.8 13.3-39.8 35-2.9 2.7-6.7 4.4-6.7 2.9 0-.4 2.1-2.8 4.8-5.3 7.8-7.4 24.9-25.3 21.7-22.7-1.6 1.4-8.4 7.8-15.1 14.3-12.7 12.4-15.9 15.1-17.3 14.5-.5-.2 4.8-6.2 11.7-13.4 13.8-14.2 23.8-25.4 22.7-25.4-1.1 0-14.7 12.1-31.1 27.7-7.3 6.8-16.2 14.3-17.1 14.3-.5 0 6.8-7.7 16.1-17.2 9.4-9.4 15.5-15.9 13.6-14.3-1.9 1.5-10.3 9.3-18.5 17.4-8.3 8.1-16.1 15-17.3 15.3-1.3.4-2.2.2-2-.3.2-.5 6.9-7.7 14.9-16.1 21.6-22.6 24.8-26.2 24.4-26.7-.6-.6-12.2 9.4-26.4 22.7-6.8 6.5-13.8 12.8-15.5 14.2-1.7 1.4-4.1 3.5-5.3 4.7-1.3 1.2-2.3 2-2.3 1.7 0-.3 8-8.4 17.8-18.1 9.7-9.7 16.6-16.7 15.2-15.7-2.6 2-11.1 10-26.5 24.9-6 5.9-10.1 9-12.2 9.5-3.6.9-4 .6-2-1.4.6-.8 7.7-8.1 15.7-16.3 24-24.7 29.5-31.1 20.4-23.8-6.1 4.9-11 9.3-24.9 22.5-10.1 9.4-6.1 4.7 6.5-7.9 5.2-5.2 8.7-9 7.8-8.5-1.2.6-26.3 24.4-38.2 36.1-.8.8-6.7 1.2-6.4.4.1-.5 7.8-8.8 16.9-18.3 20.8-21.7 25.4-26.8 24.2-26.8-.5 0-4 2.9-7.9 6.5-7 6.5-10.7 8.7-6.3 3.7 2.9-3.3-5.1 4.2-23.1 21.6-17.5 16.9-20.3 19.1-23.5 18.4l-2.5-.4 4.2-4.7c2.3-2.5 4.7-5.1 5.3-5.7.5-.6 7.1-7.4 14.5-15.1 17.9-18.4 23.2-24.3 22.2-24.3-.5 0-2.2 1.2-3.8 2.6-1.6 1.4-5.1 4.3-7.9 6.4-2.7 2-10.8 9.4-18 16.2-7.1 6.9-15.9 14.9-19.5 17.9-3.6 2.9-6.7 5.5-7 5.9-.6.6-7 1.1-7 .4 0-.5-.5.1 17-18 16.2-16.8 28.4-30.1 28.9-31.7.5-1.3-11.3 8.9-27.4 23.8-6 5.6-13 11.9-15.5 14.1-2.4 2.1-5.3 4.7-6.4 5.6-2.1 1.9-3.7 2.1-7.2 1.2-1.9-.5-1.5-1.2 4-6.8 25.4-26.2 36-37.6 34.9-37.6-1.1 0-8.3 6.2-23.7 20.4-11.5 10.5-12.4 11.4-20.2 18.1-4.8 4.1-6.6 5-9.4 5-1.9-.1-3.4-.5-3.3-.9.1-.4 6.4-7.1 14-15 15.6-16 26-27.6 24.7-27.6-.5 0-3 2-5.5 4.3s-6.4 5.7-8.5 7.6c-2.1 1.8-8.2 7.3-13.4 12.2-21.5 19.9-20.8 19.4-26.5 18.7-2.6-.3-1.8-1.3 12.6-16 16-16.3 25.5-26.8 24.3-26.8-.9 0-8.5 6.2-14.4 11.6-2.5 2.3-6.3 5.9-8.5 7.9-2.2 2.1-6.5 6-9.5 8.9-11.9 11.2-16.3 14.3-21 15l-4.4.6 14.7-14.6c8.1-8 14.5-14.9 14.2-15.3-.7-1.2 5-6.3 6-5.4.4.5.5.3.2-.4-.4-.6.8-2.7 2.7-4.7 1.8-2 3-3.6 2.5-3.6-1.3 0-9.3 7-28.9 25.2-16.5 15.3-21.5 19.1-25.2 19.4-2.9.3-1.6-1.3 15.3-18.2 10.1-10.2 18.6-18.8 18.9-19.2.7-.9-5.5 4.5-9.6 8.6-7.7 7.5-10.4 9-3.8 2.1 13-13.6 16.3-17.3 15.9-17.8-.7-.6-12.2 9.4-29.8 25.9-14.3 13.3-20.1 18-22.6 18-1.1 0-2.1-.1-2.1-.3 0-.2 8-8.4 17.7-18.2 9.8-9.8 16.7-17 15.3-15.9-1.4 1-9.8 9.1-18.8 17.9-9 8.8-16.8 16.2-17.5 16.4-.7.2 4.9-5.9 12.4-13.5 15.7-16 28.9-30.2 28.9-31.1 0-.6-4.4 2.9-11.9 9.5-7.1 6.3-6.7 5.9-20.7 18.8-5.5 5.1-11.5 10.5-13.4 12-1.9 1.6-3.6 3.2-3.8 3.6-.4.8-4.2 1.1-4.2.4 0-.2 8-8.4 17.8-18.2 9.7-9.7 16.6-16.9 15.2-15.8-2.5 1.9-12.4 11.2-27.7 26.1-4.7 4.6-9 8.3-9.6 8.3-.6 0-.8-.2-.6-.4 19.2-19.6 40.9-43 40.4-43.5-.6-.5-14.7 11.8-28.1 24.4-9.9 9.4-13.4 12.5-17.8 15.9-2.7 2-5.1 3.5-5.3 3.2-.2-.2 7.3-8.1 16.8-17.5s17-17.3 16.8-17.5c-.2-.3-8.5 7.4-18.4 17-9.9 9.7-18.8 17.7-19.7 17.9-2.4.5-2.3-.1.5-2.9 26-26.8 34.9-36.3 37.7-40.1 1.4-1.9 1.4-1.9-.5-.5-2.6 2.1-17.4 14.9-20.1 17.5-3.3 3.2-20.5 18.9-24.5 22.4-2 1.7-4.1 3.1-4.5 3.1-.5 0 6.3-7.1 15.1-15.8 8.8-8.6 16.7-16.6 17.5-17.7 1.8-2.6-3.1 1.9-21 19.4-10.6 10.3-15.2 14-17 14.1-2.1 0-1.2-1.2 6.7-9.3 17.9-18.1 32.2-33.7 30.8-33.7-1 0-14.3 11.7-28.5 25-19.6 18.4-21 18.8-3.3.9 9-9 16.6-16.9 17-17.4 1.6-2.1-7.8 6.6-21.5 20-11.1 10.9-15 14.1-17.3 14.3-2.3.3-2.9 0-2.4-.9.5-.6 6.9-7.5 14.5-15.3 19.4-20.1 25.4-26.6 24.5-26.6-.4 0-3.3 2.1-6.4 4.7-6.3 5.4-5.9 5-13.2 11.8-15.2 14-16.4 14.9-5.9 4.2 6.3-6.4 11.2-11.7 10.9-11.7-.8 0-6.6 5.4-22.2 20.8-11 10.8-13.3 12.6-16.3 12.8-2 .2-3.4-.1-3.2-.6.2-.4 6.2-6.8 13.3-14.2 24-24.6 33.5-36.4 17.5-21.8-.3.3-2.5 2.3-4.8 4.5-2.4 2.2-4 3.2-3.7 2.2.4-.9 1.2-1.7 1.8-1.7.6 0 .8-.3.4-.6-.6-.6-4.2 2.8-24.9 23-8.2 8.1-9.4 8.9-13.4 9.2-2.4.2-4.4.1-4.4-.1s4.8-5.2 10.6-11.2c24.5-25 37.4-40.1 22.6-26.5-.8.7-2.6 2.1-4.1 3-2.4 1.6-10.4 8.9-24.2 22.3-10.6 10.3-13.5 12.3-17.9 12.5-2.3.1-4-.2-3.8-.6.2-.5 6.8-7.5 14.8-15.7 14.3-14.6 25.7-27.3 24.6-27.3-.8 0-21.9 18.8-33.5 29.9-11.9 11.4-14.7 13.2-19.1 12.9l-4.1-.3 10.3-10.6c5.7-5.9 13.2-13.7 16.7-17.5 3.5-3.8 7.8-8.4 9.4-10.2 1.7-1.7 2.7-3.2 2.1-3.2-1.1 0-11.4 9-26.7 23.3-17.9 16.7-21.1 19.1-25.7 19.3-2.2.1-4-.1-4-.5 0-.3 3.4-4 7.6-8.1 9.5-9.4 27.5-28.5 30.5-32.5 2-2.5 2-2.8.4-1.5-1.1.8-2.2 1.7-2.5 2-.3.3-3.4 3-7 6-3.5 3-7.2 6.2-8.1 7-28.4 26.8-29.9 28-35.1 27.8l-3.9-.1 17.3-17.6c9.5-9.6 17-17.3 16.6-17.1-.3.3-6.5 6.2-13.6 13.1-13 12.7-20.5 18.7-24.3 19.4-1.1.2-3.5 1.3-5.2 2.4-1.8 1-5.1 2.5-7.4 3.1-3.7 1.1-4.5 1.1-7-.5-1.5-1-5-2-7.7-2.2-2.8-.2-5.8-1.1-6.7-1.9-1.3-1.2-2.2-1.3-3.7-.5-1.2.6-2.8.8-3.7.5-1.3-.5-1-1.1 1.5-3.5 1.6-1.6 3-3.5 3-4.1 0-.7-1.9.7-4.3 3-2.3 2.3-4.7 4.2-5.2 4.2-.4 0 2.4-3.3 6.5-7.3 4.3-4.3 7.8-8.8 8.5-11 1.6-4.6.7-4.7-3.2-.5-3.6 4-18.1 17.2-19.4 17.6-.5.2-.9-.1-.9-.7s.7-1.1 1.5-1.1 1.5-.5 1.5-1c0-.6-.5-1-1.2-1s4.2-5.3 10.7-11.8c12.6-12.5 18.7-19.1 12-13.2-2.1 1.9-9.2 8.7-15.8 15-6.5 6.3-12.1 11.4-12.3 11.2-1-.5.6-2.5 13.1-15.7 14.8-15.7 20-21.5 19.1-21.5-.8 0-13.9 11.2-22.1 19-9.9 9.4-14.2 13-15.4 13-2 0-1.2-1.4 3.2-5.6 7.4-7.2 18.3-18.9 15.8-16.9-3 2.4-3.8 3.2-16.8 15.8-6.6 6.5-10.6 9.8-11.8 9.5-1.4-.2-.6-1.6 4.1-6.4 5.1-5.3 15.1-15.8 24.2-25.7 4.4-4.7 1-3-5.8 2.9-5.6 4.9-24.4 22.1-28.7 26.3-.8.7-1.7 1-2 .7-.4-.4 4.5-5.9 10.7-12.2 6.3-6.4 10.6-11.1 9.5-10.4-1.2.7-6.8 5.9-12.5 11.5-8.9 8.9-10.7 10.2-12.3 9.3-1.8-.9-1.5-1.4 3.4-6.6 10.6-10.9 21.5-22.8 22.5-24.4 1.8-2.8-10.7 7.7-23.9 20.2-4.4 4.1-8.7 7.9-9.6 8.4-1.4.8 13.9-15.7 17.9-19.2 1.3-1.2 1.3-1.2-.2-.5-.9.5-5.8 4.9-10.9 9.8-5.3 5.3-9.8 8.9-10.8 8.7-4.2-.8-4.4-1.2-1.5-4.1 2.6-2.5 11-11.4 18.8-20 7.3-7.9-3.8.6-16.4 12.6-7.1 6.8-7.9 6.7-9.4-.2-.5-2.7.1-3.7 5.4-9.3 3.4-3.4 5.7-6.2 5.3-6.2-.5 0-3.6 2.3-6.8 5l-5.9 5-1.8-3.4c-1-1.9-2.2-3.8-2.8-4.1-.6-.4-.8-1.1-.5-1.6.4-.5-.1-.9-.9-.9-.9 0-1.6.4-1.6 1 0 .5-.5 1-1.1 1-.8 0-.8-.4-.1-1.3.6-.7.7-1.8.3-2.5-1-1.6-.6-7.5.5-9.4.5-.7 4.4-4.6 8.6-8.6 7-6.5 8.1-7.2 11.8-7.2h4.1l-8.5 8.7c-4.7 4.8-8.4 8.9-8.1 9.1.3.4 9.3-7.7 16.3-14.7 2.7-2.6 4.4-3.4 8-3.7l4.6-.4-9.4 9.6c-11.6 11.8-9.7 11.2 3.4-1 7.6-7.1 10.8-9.4 15.6-11.2 3.3-1.2 6-2 6-1.9 0 .1-4.3 4.5-9.6 9.6-11.4 11.2-16.9 18.3-7.3 9.5 3.5-3.3 7.1-6.6 8-7.5 11.6-11.7 14.5-14 18.7-14.6 2.3-.2 4.2-.4 4.2-.2s-6 6.3-13.2 13.6c-16.6 16.6-13.8 15.7 3.7-1.3 12.3-11.8 13.2-12.5 17.1-12.6h4.1l-13 13c-7.2 7.1-12.6 13-12 13 .6 0 7.1-5.8 14.5-13 12.2-11.8 13.6-12.9 17.1-13 2 0 3.7.2 3.7.4s-5.1 5.5-11.3 11.8c-14.9 15-17.3 18.1-6.7 8.8 1-.8 6.2-5.8 11.6-11.1 9.5-9.2 10.1-9.6 13.6-9.2l3.6.5-11.1 11.2c-6.2 6.2-12.1 12.3-13.2 13.7l-2 2.4 3-2.5c3.2-2.7 16.8-15.5 22.2-20.8 2.8-2.8 3.8-3.3 6.3-2.7 1.6.4 3 .9 3 1.2 0 .4-3 3.6-6.7 7.3-9.3 9.1-16.1 16.5-14.3 15.5 1.3-.8 5.3-4.4 19.7-18.3 3.7-3.5 4.8-4.1 7.1-3.6 1.5.4 2.9.8 3.1 1 .2.2-4 4.7-9.3 10.1-11.1 11.2-13.1 15.2-2.4 4.8 3.9-3.9 8.8-8.6 10.9-10.6 2-2 4.1-4.4 4.7-5.5.9-1.7.6-1.9-2.9-1.9-2.1 0-3.9-.5-3.9-1 0-.6 2-1 4.5-1 4.3 0 4.6-.2 8-5.5 1.9-3 3.5-5.7 3.5-6 0-.9-129.1-.5-130.8.4zm54.8 9.4c0 .5-1.6 1.3-3.5 1.9-1.9.6-3.5.7-3.5.2 0-.4 1.5-1.3 3.3-1.8 1.7-.5 3.3-1 3.5-1 .1-.1.2.3.2.7zm58.2 1.4c-.6.6-2.4.7-4.2.3-4-.9-2.2-2.3 2.1-1.7 2 .3 2.7.8 2.1 1.4zm89.4-.3c-.3.4-2.4.5-4.8.2l-4.3-.5 3.5-.6c3.7-.6 6.3-.2 5.6.9zm78.4-.3c0 .3-1.5.4-3.4.2-1.9-.1-3.3-.5-3.1-.8.4-.7 6.5-.1 6.5.6zm21.4.5c-.3.5-1.5.7-2.7.5-1.2-.3-2.9-.5-3.7-.5-1.2-.1-1.2-.3-.2-.9 1.6-1.1 7.4-.3 6.6.9zM559 578c0 .5-1 1-2.2.9-2.2 0-2.2-.1-.3-.9 1.1-.5 2.1-.9 2.3-.9.1-.1.2.3.2.9zm181 .6c0 .3-1.5.4-3.4.2-1.9-.1-3.3-.5-3.1-.8.4-.7 6.5-.1 6.5.6zm6.6 0c-.3.8-.2 1.2.3.9.5-.3 1.3 0 1.7.6.4.8-.5.9-3 .6-4.2-.6-5.6-1.4-3.5-2.1.8-.2 2.1-.7 2.9-.9.8-.3 1.7-.6 1.9-.6.2-.1 0 .6-.3 1.5zm3.9.2c-.3.3-1.1 0-1.8-.7-.9-1-.8-1.1.6-.5 1 .3 1.5.9 1.2 1.2zm7.5.3c-4.1.5-4.2.6-1.5 1.1 2.5.4 2.3.5-1.5.7-4.1.1-4.3 0-2.4-1.3 2.2-1.6 7.3-2.5 8.9-1.6.6.3-1 .7-3.5 1.1zm36.5-.2c-.8 1.3-8.5 1.5-8.5.2 0-.6 1.9-1.1 4.3-1.3 4.9-.3 5.1-.3 4.2 1.1zm45.2-.5c.4.3-1.2.6-3.5.6-2.2 0-4.3-.3-4.5-.8-.6-.8 7.1-.7 8 .2zm4.8-.4c.3.5.1 1-.4 1-.6 0-1.1-.5-1.1-1 0-.6.2-1 .4-1 .3 0 .8.4 1.1 1zm-685.4 2c-1.2 1.1-2.8 1.7-3.4 1.3-.6-.4-.8 0-.4 1 .8 2.1 0 2.2-1.9.2-1.4-1.3-1.3-1.6.8-2.4 1.3-.4 3-1.1 3.8-1.4 3-1.1 3.4-.6 1.1 1.3zm10.4 1.2c-3.8 3.3-11.5 5.1-11.5 2.7 0-.8 1.2-1 3.5-.6 2.1.3 3.3.2 3-.4-.4-.5-1.3-.9-2.1-.9s-1.4-.4-1.4-.8c0-2 2.8-3.2 7.2-3.2h4.9l-3.6 3.2zm12.4-1.5c-1.7 2-7 4.3-9.9 4.3-2.1 0-2.1 0 .2-2.9 1.9-2.5 3.1-3 6.7-3 3.9-.1 4.2.1 3 1.6zm167.1-.3c-1 .9-2.7 1.2-4.7.9-4.9-.8-4-2.3 1.4-2.3 4.1 0 4.5.2 3.3 1.4zm10.5.6c-1 1.1-2.6 1.5-5 1.2-6.2-.7-4-3.1 2.8-2.9 3.4 0 3.6.2 2.2 1.7zm12-.8c-1.8 1.1-10.5 2.9-10.5 2.2 0-.1.7-1 1.6-1.8 1-1 3.3-1.6 6.2-1.6 4.1.1 4.4.2 2.7 1.2zm10.3.2c-.7.8-1.4 1.1-1.6.6-.1-.4-1.4-.5-2.7-.2-1.4.2-2.3.7-2.1 1.1.3.4-.7.7-2.2.8-1.5.1-2-.1-1.2-.4.8-.3 1.9-1.2 2.3-1.9.5-.8 2.5-1.4 4.8-1.4 3.4 0 3.8.2 2.7 1.4zm68.2-.5c0 .5-2 .9-4.5.8-2.5-.1-4.5-.5-4.5-.9s2-.8 4.5-.8 4.5.4 4.5.9zm5.3-.2c-.7.2-1.9.2-2.5 0-.7-.3-.2-.5 1.2-.5s1.9.2 1.3.5zm317.3 0c-.7.7-7.7.5-8.5-.3-.2-.2 1.7-.4 4.4-.4s4.5.3 4.1.7zm10.9.3c-.7 1.2-8.5 1-8.5-.2 0-.4 2.1-.8 4.6-.8 2.7 0 4.3.4 3.9 1zm23.2-.3c-1.1 1-8.6 1.2-9.3.2-.3-.5 1.8-.9 4.7-.9 2.9 0 4.9.3 4.6.7zm9.7.2c-.9.9-8.3.8-7.8-.1.3-.4 2.3-.7 4.5-.6 2.1.1 3.6.4 3.3.7zm7.2.4c.4.4-.5.7-2 .7s-2.5-.4-2.2-.9c.7-1 3.1-.9 4.2.2zm27-.4c-.3.5-1.5.7-2.6.4-2.8-.7-2.5-1.3.6-1.3 1.4 0 2.3.4 2 .9zm8.4 1c-.5 1.1-1.8 1.8-2.7 1.6-1-.2-2.1-.4-2.5-.4-.5-.1-.8-.8-.8-1.6 0-1.1 1.1-1.5 3.5-1.5 3.2 0 3.5.2 2.5 1.9zm13.5-.9c.3.5.1 1-.4 1-.6 0-1.1-.5-1.1-1 0-.6.2-1 .4-1 .3 0 .8.4 1.1 1zm-730.1 1.6c.4.9.2 1.3-.5.8-.6-.3-2.2.6-3.6 2.2-2.2 2.7-2.3 2.7-1.2.4 2.4-5.1 4.2-6.2 5.3-3.4zm282.2-.5c.4.8-5.8 0-6.5-.7-.3-.3 1-.3 2.8-.2 1.8.1 3.4.5 3.7.9zm279.4.5c0 .2-1.9.4-4.2.4-2.6 0-3.8-.4-3-.8 1.2-.8 7.2-.4 7.2.4zm23-.6c0 .6-1.5.7-3.7.4-5.2-.8-5.4-1.4-.5-1.4 2.3 0 4.2.4 4.2 1zm100.7-.4c-.3.3-1.2.4-1.9.1-.8-.3-.5-.6.6-.6 1.1-.1 1.7.2 1.3.5zM866 581c0 .5-.9.6-2 .3s-1.7-.9-1.5-1.4c.7-1 3.5-.1 3.5 1.1zm-151.3.4c.3.3-1.2.6-3.5.6-2.2 0-4.4-.5-4.7-1.1-.7-1.1 7-.7 8.2.5zm21.3-.5c-1.7 1-5.6.8-6.6-.2-.4-.4 1.3-.7 3.7-.7 2.9.1 3.9.3 2.9.9zM335 582c-2 1.3-8 1.3-8 0 0-.6 2.1-1 4.8-1 3.4 0 4.3.3 3.2 1zm8 0c0 .5-1.1.9-2.5.8-1.4-.1-2.5-.6-2.5-1s1.1-.8 2.5-.8 2.5.4 2.5 1zm377 0c1.2.8.9 1-1.3 1-1.6 0-2.6-.4-2.2-1 .8-1.2 1.6-1.2 3.5 0zm47.7 1.5c-.2.5-1.9 1-3.8 1.1-3.7.1-5.2-.4-4.5-1.4.7-1.2 8.7-.8 8.3.3zm12.2-1.1c-1 .9-8.9 1.5-8.9.6 0-.6 2.1-1 4.7-1 2.5 0 4.4.2 4.2.4zm21.1.4c0 .3-.7 1.4-1.7 2.4-1.1 1.2-3 1.8-6.1 1.8h-4.6l3.2-2.3c2.7-2 9.2-3.3 9.2-1.9zm12 .2c0 1.2-4.8 3.4-8.5 3.8l-4 .4 2.2-2.3c1.6-1.8 3.3-2.4 6.2-2.4 2.3 0 4.1.2 4.1.5zm10.5.2c-1.1.7-2.6 1.3-3.4 1.5-.8.1-2.5.4-3.8.8-1.3.3-2.3.1-2.3-.4 0-1.6 2.8-2.7 7.3-2.9 3.7-.2 4-.1 2.2 1zm21.4.4c1 .9-3.5.3-4.9-.6-1.1-.8-.7-.9 1.5-.4 1.7.4 3.2.8 3.4 1zm-111.4.4c-.3.6-2 .8-3.8.5-4.7-.9-4.6-1.5.2-1.5 2.6 0 4 .4 3.6 1zm11 .6c-1.1.8-2.6 1.2-3.3.9-.8-.3-2.3-.5-3.3-.5-1.1 0-1.7-.5-1.4-1 .3-.6 2.7-1 5.3-1 4.4.1 4.6.2 2.7 1.6zm10.9.2c-1.3 1.3-8.4 1.4-8.4.1 0-1.1 1.6-1.4 5.9-1.4 3.1 0 3.6.2 2.5 1.3zm33.3.2c-2.5 2-9.7 2.8-9.7 1.1 0-1.3 4.8-2.9 8.9-3l3.4-.1-2.6 2zm64.9.7c-.2.2-1.7 0-3.5-.3-1.9-.4-2.8-1-2.1-1.4 1-.6 6.3 1 5.6 1.7zm13.3-1.1c.2.2-1.2.4-3.2.4s-3.7-.4-3.7-.9c0-.9 6-.4 6.9.5zm-90.4 1.3c-.3.6-1.5.8-2.7.6-3.4-.7-3.4-1.5.1-1.5 1.8 0 3 .4 2.6.9zm84.1 1.5c1.4 1.1 1.6 1.8.8 2.6-1.4 1.4-6.2-1-5.6-2.8.5-1.6 2.4-1.5 4.8.2zm22.4.1c.7.8.8 1.5.2 1.5-.5 0-1.5-.7-2.2-1.5-.7-.8-.8-1.5-.2-1.5.5 0 1.5.7 2.2 1.5zm-9 .7c0 .4-.4.8-.9.8-.6 0-1.2-.4-1.5-.8-.3-.5.1-.9.9-.9s1.5.4 1.5.9zm-729.4 6.4c-6.2 6.4-7.1 6.1-2.7-.8 1.9-2.9 3.8-4.8 5.3-5 1.3-.2 2.4-.3 2.6-.2.2.1-2.2 2.8-5.2 6zm-5.5-.4c-1.6 2.5-2.1 2.8-2.1 1.4 0-2 2.9-6 3.8-5.1.2.2-.5 1.9-1.7 3.7zm738.1-1.2c.6 4.3-1.8 6.2-3.2 2.5-1.3-3.4-1.3-3.5.6-3.5.8 0 1.2-.5.9-1-.3-.6-.2-1 .3-1s1.2 1.4 1.4 3zm106 3.6c2.9 6.8 4.4 18.2 4.2 32.4-.3 19.8-2.3 31.3-6.5 37.2-1.9 2.6-4.1 3.5-4 1.6 0-.4-1.6-2.3-3.4-4.2-1.9-1.8-3.5-4.3-3.6-5.5-.3-4.9-.2-5.7.4-8.6.4-1.7.9-4.4 1.3-6 1.1-5 1.3-24.7.4-29.5-.5-2.7-.5-4.9.1-5.5.5-.5.9-1.6.9-2.5 0-3.6 2.4-9.4 4.7-11.6 1.4-1.3 2.8-2.4 3-2.4.2 0 1.3 2.1 2.5 4.6zm-936.7-2c2 .8 7.1 11.5 7.9 16.4.3 1.9.8 6.9 1 11l.5 7.5-1-7c-.6-3.9-1.4-7.3-1.7-7.7-.4-.4-.7 5.7-.8 13.5-.1 15.1-1.2 21-6.1 31.4-2.2 4.7-2.7 5.2-4.4 4.2-4.6-2.4-6.7-5.7-7.4-11.7-2.3-17.8-2.2-29.8.3-39.4 2.3-8.4 5.6-15.6 8.1-17.5 1.9-1.5 1.6-1.4 3.6-.7zm838.5 3.9c0 1.7-.2 1.7-1 .5-.5-.8-1-2.4-1-3.5 0-1.7.2-1.7 1-.5.5.8 1 2.4 1 3.5zm-11.7-.5c.3 1.1.1 2.3-.4 2.6-.5.3-.9-.6-.9-2 0-3.1.6-3.4 1.3-.6zm4.7 4.5c0 2.8-.5 4.5-1.2 4.5-.6 0-.9-.3-.6-.6.4-.3.3-1.8-.2-3.4-.5-1.8-.4-3.2.3-3.9 1.6-1.6 1.7-1.5 1.7 3.4zm35 0c1.1 3.4 1.3 4.4 2.5 11.5.4 2.5.9 5.4 1.1 6.5.2 1.1.4 6.7.5 12.5 0 9.7-.4 13.8-1.7 18.2-.3.9-.7 2.6-.9 3.8-.7 3.8-2.5 5-7.6 5-4.8 0-4.8 0-3.9-2.5.5-1.4.7-2.5.5-2.5-.2 0-.1-1 .4-2.3 3.5-9.2 2.3-40.1-1.9-51.2-1-2.7.1-3.2 6.2-2.7 3.2.4 3.9.9 4.8 3.7zm-796-2c-.9 1.1-.9 1.5-.1 1.5.6 0 1.4-.7 1.7-1.5.4-.8 1-1.5 1.5-1.5.8 0 .7 1.2-.8 11-1.6 9.9-.7 39.4 1.3 47.7.6 2.2.4 2.3-5 2.3-3.1 0-5.6-.2-5.6-.4 0-.3-1.1-4.5-2.4-9.5-1.4-5-2.7-13.3-3-18.8-.4-8.2-.3-9 .5-4.8 2.6 13 5 23.1 5.9 24.5.8 1.1.9.7.5-1.5-3.3-18.4-2-39.8 2.6-45 1.7-1.9 1.9-2.4 1.9-4.5 0-.6.5-1 1.1-1 .8 0 .8.5-.1 1.5zm765.7 1.7c-.3.8-.6.5-.6-.6-.1-1.1.2-1.7.5-1.3.3.3.4 1.2.1 1.9zm-8 1c.1.7.4 4.3.8 8 .4 4.6.3 6.8-.4 6.8-.6 0-1.1-1.2-1.1-2.8 0-1.5-.3-5.1-.6-8-.4-3-.2-5.2.3-5.2s1 .6 1 1.2zm11.3 1.3c0 1.4-.2 2.5-.4 2.5s-.6-1.1-.8-2.5c-.3-1.4-.1-2.5.3-2.5.5 0 .9 1.1.9 2.5zm72 .6c0 .6-.4.7-1 .4-.5-.3-1-1.1-1-1.6 0-.6.5-.7 1-.4.6.3 1 1.1 1 1.6zm-73.9 1.1c.6 9 .4 12.8-.8 14.4-1.1 1.6-1.3.5-1.1-7.4.1-5.1.6-9.2 1-9.2.5 0 .9 1 .9 2.2zm37.4-.2c.3.5.1 1-.4 1-.6 0-1.1-.5-1.1-1 0-.6.2-1 .4-1 .3 0 .8.4 1.1 1zM93.3 618.5c-.4 6.6-.2 11.4.5 13.2 1.2 2.9 1.6 5.1 2.8 13.8 1 7.7 1.7 6.9 1.1-1.3-.3-4-.1-7.4.3-7.7.4-.2.8 3.2.9 7.6.1 4.4.5 8.7.8 9.5.6 1.5-1.2 2-2.1.5-.3-.5-2-1.2-3.8-1.5-2.9-.6-3.7-1.5-6.2-7.1-3.9-8.8-4-17.9-.2-30.8 1.5-5.1 2.3-6 5.7-6.6.4 0 .4 4.6.2 10.4zm829.9-3.8c.2 2.4 0 4.3-.4 4.3-.5 0-.8-.8-.8-1.9 0-1-.3-3.4-.6-5.2-.5-2.3-.3-3.1.4-2.4.5.5 1.2 2.9 1.4 5.2zm-789.7-.7c-.4 1.2-.9 1.9-1.2 1.7-.3-.3-.2-1.5.2-2.7.4-1.2.9-1.9 1.2-1.7.3.3.2 1.5-.2 2.7zm798.9.4c1-.4 1.6-.1 1.6.8 0 .8 1 3.5 2.3 5.9 3.3 6.1 5.1 15.5 4.8 25l-.1 4.5-4.5.3c-2.5.1-6.5.8-9 1.5-4.2 1.3-4.4 1.3-3.5-.4.5-.9 1.2-3 1.5-4.6.2-1.6.7-4 1-5.4.3-1.4.6-8.7.7-16.2.2-12.6.4-13.6 1.9-12.2.9.8 2.4 1.2 3.3.8zm9.9 6.6c.3 4.1.2 6.6-.2 5.5-.9-2.1-1.5-14.2-.7-13.4.2.2.6 3.8.9 7.9zm-61.6-2.8c-.3 4.4-1.2 6.8-2.7 6.8-.7 0 .1-5 1.6-9.8.8-2.6 1.4-1 1.1 3zm-8.1 4c-.6 7-1.7 9.7-5.7 13.3-1.9 1.6-5.2 4.6-7.4 6.6s-5.1 4-6.5 4.4c-1.6.5 1.1-2.7 7.9-9.4 5.7-5.6 10.2-10.3 10-10.5-.2-.2-5.3 4.3-11.4 10.1-9.3 8.8-16.8 14.3-18 13.1-.2-.2 5.4-6.2 12.3-13.3 7-7.2 13.8-14.5 15.2-16.3 1.4-1.7 2.9-3.2 3.3-3.2.4 0 .6 2.4.3 5.2zm-730.7-.1l2.3 4.1-2.7 2.7c-1.5 1.4-2.5 2-2.1 1.3.4-.6.3-1.2-.2-1.2-1 0-2.3-9-1.5-10.2.9-1.6 2-.7 4.2 3.3zm-8.9 7c0 2.4-.4 3.8-1 3.4-1.7-1-1.1-7.5.7-7.5.2 0 .3 1.8.3 4.1zm748.6.3c-1.4 3.4-3.5 5.3-2.2 2 .3-.8.2-1.2-.4-.9-.6.3-1 1.2-1 1.9 0 .8-.9 2.4-2 3.7l-2 2.4.6-2.9c.6-2.7 7.3-11 8.2-10.2.2.2-.4 2-1.2 4zm-286.6-1c0 .2-.8 1-1.7 1.7-1.6 1.3-1.7 1.2-.4-.4 1.3-1.6 2.1-2.1 2.1-1.3zM146.5 633c.4 1.6.6 3.3.5 3.6-.1.4.4 1.1 1.2 1.6 1.6 1.1-4-.1-6.5-1.4-1.7-.8-1.6-1.1.5-3.8 2.9-3.7 3.5-3.7 4.3 0zm737.5-1c-.6 1.1-1.3 2-1.6 2-.2 0 0-.9.6-2s1.3-2 1.6-2c.2 0 0 .9-.6 2zm63.8 7.5c0 10.7-.5 12.3-3.4 11.7-2.2-.4-2.3-.7-1.8-5.5.4-2.8 1.3-6.5 2-8.3.8-1.9 1.4-4.4 1.4-5.6 0-1.8.2-2 .9-.9.5.8.9 4.7.9 8.6zm8.9-8c0 .8-.4 1.2-.9.9-.5-.3-.6-1-.3-1.5.9-1.3 1.2-1.1 1.2.6zm0 13.9v11.5l-2.6-1.7c-1.4-.9-2.7-1.6-2.8-1.7-.1 0 .7-2.5 1.7-5.6 1.1-3 2-7.4 2.1-9.7.2-2.3.6-4.2.9-4.2.4 0 .7 5.1.7 11.4zm-825.9-7.3c-.3.8-.7.3-1.1-1-.4-1.7-.3-2.1.5-1.3.5.5.8 1.6.6 2.3zm749.2-2.7c0 .2-.7 1.7-1.5 3.2-1.6 3-1.9 2.5-.9-1.4.5-1.8 2.4-3.3 2.4-1.8zm3 .6c0 .5-.5 1-1.1 1-.5 0-.7-.5-.4-1 .3-.6.8-1 1.1-1 .2 0 .4.4.4 1zm6.4 2.7c-.4 1.6-1.3 3.9-2.1 5.3-1.3 2.4-1.3 2.4-.7-1 .7-3.6 2.1-7 3-7 .2 0 .1 1.2-.2 2.7zm62.9 3c-.9 7.1-1.8 10.4-2.8 10.3-.6-.1-.9-.6-.8-1.1.2-.4.8-3.7 1.5-7.3 1.3-6.8 2.9-8.3 2.1-1.9zm-886.7 1.9c-.4 1.8-1 3.4-1.5 3.4-.4 0-.3-2 .3-4.5 1.2-5.2 2.2-4.3 1.2 1.1zm77.4-3c0 1 .5 1.4 1.6 1 .8-.3 1.2-.2.9.3-1 1.7-4.5.8-4.5-1.1 0-1 .5-1.8 1-1.8.6 0 1 .7 1 1.6zm733-.7c0 .5-.7 1.1-1.4 1.4-1 .4-1.3.1-.9-.9.6-1.5 2.3-1.9 2.3-.5zm-409.1 1.4c-.2.1-1.3.9-2.4 1.7-1.9 1.4-1.9 1.4-.6-.3.7-.9 1.8-1.7 2.4-1.7.6 0 .8.1.6.3zm494.8 4.4c-.3 2.7-1 6-1.6 7.5-.6 1.6-.7 2.8-.3 2.8.5 0 1.3-1.2 1.9-2.8 1.1-2.5 1.2-2.4.9 1.8-.1 2.5-.6 4.7-1.1 4.9-1.6.6-3.4-4-2.5-6.3.4-1.2 1.1-4.5 1.5-7.4.9-6.5 1.9-6.9 1.2-.5zm-76.9.5c-1 4.6-2.2 6.5-3.2 5-.6-1.1 2.4-9.2 3.4-9.2.5 0 .4 1.9-.2 4.2zm-730.3-2.1c1.1 1.7-.1 2.1-1.5.4-.8-.9-.8-1.5-.2-1.5.6 0 1.4.5 1.7 1.1zm719.3.9c-2 3.1-4 3.5-2.6.5.6-1.4 1.7-2.5 2.5-2.5 1.1 0 1.1.4.1 2zM133 645c0 .5-.4 1-1 1-.5 0-1-.5-1-1 0-.6.5-1 1-1 .6 0 1 .4 1 1zm25 .9c0 .5-.7 1.2-1.6 1.5-1.4.5-1.5.4-.4-.9 1.4-1.7 2-1.9 2-.6zm706.4 1.3c-2.6 3.4-11.3 10.8-12.6 10.8-.6 0-.1-1.1 1.2-2.5s2.9-2.5 3.7-2.5c.7 0 1.2-.4 1.1-.9-.4-1.4 5-7.1 6.8-7.1 1.3 0 1.3.3-.2 2.2zM59.9 657c-1.2 2.2-2.4 3.9-2.5 3.7-.1-.1.8-3.3 2-7.1 1.8-5.9 2.1-6.4 2.4-3.7.2 1.9-.6 4.7-1.9 7.1zm106.8-9.2c1 .6.8 1.2-.5 2.3-.9.8-2.3 1.4-2.9 1.3-.7-.1-1.8-.2-2.5-.3-1.4-.1 2.1-4.1 3.6-4.1.6 0 1.7.4 2.3.8zm425.3-.4c0 .2-.8 1-1.7 1.7-1.6 1.3-1.7 1.2-.4-.4 1.3-1.6 2.1-2.1 2.1-1.3zm258 3.6c-4.2 3.5-7.4 4.2-4.4.9 1.8-2.1 4.9-3.7 6.9-3.8.6 0-.6 1.3-2.5 2.9zm-774.7-.5c-.3.9-.8 1.4-1 1.1-.3-.3-.2-.9.2-1.5.9-1.6 1.5-1.3.8.4zm94.2.5c-1 1.1-2 1.8-2.3 1.5-.7-.6 1.8-3.5 3.1-3.5.5 0 .2.9-.8 2zm-23.1 2.1c-1.8 2-3.6 1.7-2.8-.6.3-.8 1.2-1.1 2.1-.8 1.2.5 1.4.3.8-.7-.6-.9-.4-1.1.4-.6.9.6.8 1.3-.5 2.7zm696.2-.2c-1 1.1-3.1 2.4-4.6 3-2.4.8-2.8.7-2.3-.6.5-1.4 5.5-4.2 7.7-4.3.5 0 .1.9-.8 1.9zm-663.8.7c-1 1-2.3 1.4-3.4 1-1.6-.6-1.6-.8-.4-1.6.8-.6 2.4-1 3.5-1 1.8 0 1.8.1.3 1.6zm5.3-.2c-.6.8-2.1 1.6-3.2 1.9-2 .5-2 .5-.3-1.4 2-2.3 5.4-2.8 3.5-.5zM863 653c0 .5-.8 1-1.7 1-1.5 0-1.6-.2-.3-1 1.9-1.2 2-1.2 2 0zm-34.1 1.2c-.2.2-1.7 1.4-3.4 2.8l-3 2.5 2.9-3.2c1.6-1.8 3.2-3.1 3.4-2.8.3.3.3.6.1.7zm49.1-.4c0 .5-.7 1.7-1.6 2.8-.8 1-1.4 1.4-1.1.9.2-.6.7-1.8 1-2.8.7-1.7 1.7-2.3 1.7-.9zm-719 .6c0 1.1-1.9 1.5-2.5.6-.3-.5.1-1 .9-1 .9 0 1.6.2 1.6.4zm663.5 2.6c-3.2 3.3-3.4 3.4-5.4 2.1-1.2-.8-1.2-1.2-.2-2.5.7-.9 1.6-1.4 2-1.2.4.3 1.3.1 2.1-.5 3.4-2.1 4.3-.8 1.5 2.1zm-630-1c-.3.5-1.3 1-2.1 1s-1.2-.5-.9-1c.3-.6 1.3-1 2.1-1s1.2.4.9 1zm5-.1c.7 1.2-1.2 2.4-2.5 1.6-1.1-.7-.4-2.5 1-2.5.5 0 1.1.4 1.5.9zm502.4 4c-2.3 2.1-4.5 3.1-6.6 3.1-4 0-4.1-.9-.8-3.8 1.6-1.4 3.9-2.2 6.1-2.2 2.5 0 3.3-.4 2.8-1.3s-.4-.9.6 0 .5 1.8-2.1 4.2zm142.5-2.4c-4 3.2-5.8 3.5-2.6.5 1.9-1.7 3.7-2.9 4-2.6.3.4-.3 1.3-1.4 2.1zm47.6-2.1c0 .3-.4.8-1 1.1-.5.3-1 .1-1-.4 0-.6.5-1.1 1-1.1.6 0 1 .2 1 .4zm-172.1 3.9c-1.9 1.5-3.8 2.6-4.4 2.4-.5-.2-2 0-3.2.4-2.8 1.1-2.9.1-.2-3.1 1.7-2 3-2.5 6.6-2.5h4.5l-3.3 2.8zM136 661c-1.3 3.1-2.6 3.8-3.2 1.8-.5-1.3 3.2-6.1 4-5.3.3.2-.1 1.8-.8 3.5zm38.5-3c-.3.5-1.3 1-2.1 1s-1.4-.5-1.4-1c0-.6.9-1 2.1-1 1.1 0 1.7.4 1.4 1zm456.9.5c-1 .8-2.5 1.5-3.3 1.5-1.1 0-.9-.4.5-1.5 1-.8 2.5-1.5 3.3-1.5 1.1 0 .9.4-.5 1.5zm15.7 1.5c-4.2 3.8-7.6 4.2-4.2.6 1.3-1.4 3.3-2.7 4.5-2.9 1.1-.2 2.3-.5 2.6-.5.3-.1-1 1.2-2.9 2.8zm36.6-1.3c-.9.9-2.3 1.3-3.6.8-3.3-1-2.5-2.3 1.5-2.3 3.2 0 3.5.2 2.1 1.5zm47.8-.7c.3.5-.3 1-1.5 1s-1.8-.5-1.5-1c.3-.6 1-1 1.5-1s1.2.4 1.5 1zm105 1c-2.1 2.3-7.5 5.2-7.5 4.1 0-1.3 4.4-4.9 6.5-5.4 1.1-.3 2.2-.5 2.4-.6.2 0-.4.8-1.4 1.9zm37.5-1.1c0 .5-.7 1.2-1.6 1.5-1.4.5-1.5.4-.4-.9 1.4-1.7 2-1.9 2-.6zM626 659c0 .5-.7 1-1.6 1-.8 0-1.2-.5-.9-1 .3-.6 1-1 1.6-1 .5 0 .9.4.9 1zm15 1.5c-1.3 1.4-2.6 2.3-2.8 2-.7-.7 2.9-4.5 4.1-4.5.6 0 0 1.1-1.3 2.5zm18-2.2c0 .2-1 1.2-2.2 2.3l-2.3 1.9 1.9-2.3c1.8-2.1 2.6-2.7 2.6-1.9zm6.3.4c1 1-5.4 5.3-8 5.3-2.2 0-2.2-.1.9-3 3.2-2.8 5.8-3.7 7.1-2.3zm138.2.5c1 1-7.7 6.8-10.3 6.8-2.1 0-2.2-.2-.8-1.5.8-.8 2.7-1.6 4.3-1.6 2.5-.2 2.5-.2.5-.6-2.2-.4-2.2-.6-.8-2.2 1.5-1.7 5.8-2.2 7.1-.9zm51.1 2.3c-3.7 3.4-6.2 4.1-3.7 1.1.8-1 .9-1.6.1-1.9-.6-.3-.5-.4.2-.3.7.1 2.4-.3 3.8-1.1 3.9-2 3.8-1.5-.4 2.2zM154 660c1.3.8 1.3 1-.2 1-.9 0-2-.5-2.3-1-.8-1.3.5-1.3 2.5 0zm39 0c0 .5-.4 1-1 1-.5 0-1-.5-1-1 0-.6.5-1 1-1 .6 0 1 .4 1 1zm593.2.6c-1.3.9-3.7 1.8-5.5 2.1-1.8.3-3.4.7-3.7 1-.3.3.7.3 2.3.1 1.5-.3 2.7-.3 2.7-.1 0 1.1-3 3.3-5.3 3.8-4 1-4-1 .1-4.7 2.7-2.4 4.8-3.4 7.7-3.6 4-.3 4-.3 1.7 1.4zM187 661c0 .5-.4 1-1 1-.5 0-1-.5-1-1 0-.6.5-1 1-1 .6 0 1 .4 1 1zm127 .4c-.6.6-2.7 1.1-4.8 1.3-3.2.2-3.5 0-2-1.1 2.1-1.5 8.3-1.7 6.8-.2zm13.7-.8c-.3.3-1.2.4-1.9.1-.8-.3-.5-.6.6-.6 1.1-.1 1.7.2 1.3.5zm20.2 2c-1.6 1.5-4.2 2.8-6.4 3.1l-3.8.5 2.4-3c1.9-2.5 3.2-3.1 6.4-3.1l4-.1-2.6 2.6zm18.1-2c0 .8-7.1 3.6-7.8 3-1.1-1.2 2.2-3.6 4.9-3.6 1.6 0 2.9.2 2.9.6zm18.3.7c-.3.5-1.1.6-1.9.3-.7-.3-1.6-.1-1.9.4-.4.6-1.5 1-2.7 1-1.7 0-1.8-.3-.8-1.5 1.3-1.5 8.2-1.7 7.3-.2zm12.6.8c-.7.4-1.7.5-2.2.2-.5-.3-.3-.9.4-1.4.7-.4 1.7-.5 2.2-.2.5.3.3.9-.4 1.4zM489 661c0 .5-1.6 1-3.5 1s-3.5-.5-3.5-1c0-.6 1.6-1 3.5-1s3.5.4 3.5 1zm17.5-.1c.6.1.3.6-.5 1.1-1.7 1.1-8 1-8-.1 0-.9 2.8-1.6 5.5-1.3 1.1.1 2.5.3 3 .3zm172.9 1.2c-.3.5-1.9.9-3.6.9-2.5 0-2.8-.3-1.9-1.4 1.2-1.4 6.5-1 5.5.5zm53.4-.5c-1.7 1.7-9.8 3.7-9.8 2.4 0-.9 2.5-2.1 5.4-2.7 1.1-.2 2.2-.6 2.5-.8.2-.3 1.1-.5 2-.5 1.3 0 1.3.2-.1 1.6zm-331.1 0c-.3.3-1.2.4-1.9.1-.8-.3-.5-.6.6-.6 1.1-.1 1.7.2 1.3.5zm120.3.4c0 .5-1.6 1-3.6 1-2.1 0-3.3-.4-2.9-1 .3-.6 1.9-1 3.6-1 1.6 0 2.9.4 2.9 1zm83.5 0c-.3.5-1.2 1-1.8 1-.7 0-.6-.4.3-1 1.9-1.2 2.3-1.2 1.5 0zm209.5-.6c0 .2-.7.6-1.5 1-.8.3-1.5.1-1.5-.4 0-.6.7-1 1.5-1s1.5.2 1.5.4zm51 .6c0 .5-.5 1-1.1 1-.5 0-.7-.5-.4-1 .3-.6.8-1 1.1-1 .2 0 .4.4.4 1zm-714 1.6c0 .2-.7.4-1.5.4s-1.5-.4-1.5-1c0-.5.7-.7 1.5-.4.8.4 1.5.8 1.5 1zm142.9-.2c-1.1 1-7.9 1.6-7.9.7 0-.5 1.7-1.1 3.8-1.3 3.7-.3 4.9-.1 4.1.6zm33 .2c-1.3 1.6-8.8 5.8-9.4 5.2-.5-.5 4-5.5 5.6-6.1.8-.3 2.2-.6 3.3-.6 1.6-.1 1.6.1.5 1.5zm-17.4.4c.4.6-.9 1-3.2.9-3.8-.1-3.8-.1-.8-.9 1.7-.4 3.1-.8 3.2-.9.1 0 .5.3.8.9zm504 1c-2.2 2.4-7.5 2.9-5.5.6 1-1.3 2.6-1.9 6.4-2.5.5 0 .1.8-.9 1.9zm71 0c-1 1.1-2.2 2-2.6 2-1.5 0 .2-2.9 1.9-3.3 1-.3 1.9-.5 2.1-.6.2 0-.4.8-1.4 1.9zm-702 0c-.3.5-1.1 1-1.6 1-.6 0-.7-.5-.4-1 .3-.6 1.1-1 1.6-1 .6 0 .7.4.4 1zm225.8.6c-.5 1.5-.3 1.4 2.1-.1 3.4-2.3 4.3-1.5 1.3 1.2-2.2 2.1-7.7 3.9-7.7 2.6 0-.6 4-5.3 4.6-5.3.2 0 .1.7-.3 1.6zm161.4-.2c-.2.6-1.9 1.2-3.7 1.4-2.8.3-3.2.1-2.2-1 1.3-1.6 6.4-1.9 5.9-.4zM711 665c0 .5-.9 1-1.9 1-1.1 0-2.3-.5-2.6-1-.4-.6.5-1 1.9-1s2.6.4 2.6 1zm-543.1.9c.9.6.6.8-1.3.8-1.4 0-2.3-.3-2-.8.7-1.1 1.5-1.1 3.3 0zM273 667c-1.9 1.3-6 1.3-6 .1 0-.6 1.5-1.1 3.3-1.3 3.8-.4 4.7 0 2.7 1.2zm120.7-1.4c-.3.3-1.2.4-1.9.1-.8-.3-.5-.6.6-.6 1.1-.1 1.7.2 1.3.5zm3.3-.2c0 .3-.4.8-1 1.1-.5.3-1 .1-1-.4 0-.6.5-1.1 1-1.1.6 0 1 .2 1 .4zm66.9 2.6c-1.9 1.6-4.4 2.8-5.6 2.7-1.3-.1-2.3-.2-2.3-.3 0-.1 1-1.4 2.3-2.8 1.5-1.8 3.2-2.6 5.6-2.6h3.4l-3.4 3zm18.2-.6c-2 2.1-8.1 4.2-8.1 2.7 0-1.8 4.8-5.1 7.3-5.1h3l-2.2 2.4zm18.6-.7c-.2.2-1.8.8-3.6 1.3-3.6 1-5.4-.6-2-1.9 2.2-.7 6.5-.3 5.6.6zm86.3-.8c0 .5-1.3 1.1-3 1.3-2.9.4-3.7-.1-2.3-1.5 1-1 5.3-.8 5.3.2zm84 .9c0 1.1-.8 1.8-2.1 1.9-2 .2-2 .1-.4-1.8 2.2-2.4 2.5-2.4 2.5-.1zm159-.8c-2 1.3-3.3 1.3-2.5 0 .3-.6 1.4-1 2.3-1 1.5 0 1.5.2.2 1zm-627 1c0 .6-.6 1-1.2 1-.7 0-2.4.3-3.8.7-2.1.5-2.3.4-1.3-.8 1.4-1.7 6.3-2.4 6.3-.9zm102.8 1.9c-1.3 1.6-3.5 3.1-5 3.3-3.4.5-3.4.4-.5-3.2 1.4-1.9 3.2-2.9 5-2.9l2.9-.1-2.4 2.9zm52.8-.3c-1.1.8-3.1 1.4-4.4 1.4-2 0-2.2-.3-1.2-1.4 1.1-1.4 5.9-2.6 7-1.8.3.2-.4 1-1.4 1.8zm18.2-1.4c-.3.7-2 1.4-3.8 1.6-3 .3-3.2.2-2.1-1.2 1.6-1.9 6.5-2.2 5.9-.4zm70.2-.3c0 1.4-3 3.5-5.6 3.8-2.8.4-3-.4-.7-2.9 1.6-1.8 6.3-2.5 6.3-.9zm156.3-.2c1.2 1.1-1.4 3.3-3.9 3.3-2.6 0-3-1-1.2-2.8 1.3-1.3 4.1-1.6 5.1-.5zm16.7.3c1.1.7.9 1.1-1.3 1.9-4.1 1.6-4.9 1.3-3-.9 2-2.3 2.2-2.3 4.3-1zm33.6 2.9c-2.7 2.8-4.3 3.7-6 3.4l-2.3-.5 2.6-2.6c2.1-2.1 3.9-2.9 9.1-4.1.2-.1-1.3 1.6-3.4 3.8zm73.4-3.3c0 .8-1.9 1.3-2.4.6-.3-.5.1-.9.9-.9s1.5.2 1.5.3zm34.1.8c-1.2 1.4-7.1 2.8-7.1 1.6 0-1.5 2.6-3 5.3-3 2.4 0 2.7.3 1.8 1.4zM881 667c0 .5-.5 1-1.1 1-.5 0-.7-.5-.4-1 .3-.6.8-1 1.1-1 .2 0 .4.4.4 1zm-627.3 1.4c-.2.5-1.9 1.1-3.8 1.3-2.9.3-3.2.2-1.8-1 2-1.5 6.1-1.7 5.6-.3zm87.3.2c0 .2-1.2.4-2.6.4-1.4 0-2.3-.4-2-.9.6-.8 4.6-.4 4.6.5zm53-.4c0 .4-1.4.8-3.1.8-1.7 0-2.8-.4-2.4-1 .7-1.1 5.5-.9 5.5.2zm296 .3c-.7.8-2.2 1.3-3.4 1.1-1.1-.3-2.3-.5-2.6-.5-1.3-.3 2.2-1.7 4.6-1.9 2.2-.2 2.5 0 1.4 1.3zm14.5-.5c-.3.5-1.1 1-1.6 1-.6 0-.7-.5-.4-1 .3-.6 1.1-1 1.6-1 .6 0 .7.4.4 1zm158.8 1c-.4.5-2.1 1.2-3.8 1.5l-3 .7 3-2c2.8-1.8 5.7-1.9 3.8-.2zM427 670c-2 1.3-6.7 1.3-5.4.1.9-1 5.6-1.9 6.4-1.3.2.2-.2.7-1 1.2zm105-.8c0 .5-1.1.8-2.5.8s-2.5-.4-2.5-.9 1.1-.8 2.5-.7c1.4 0 2.5.4 2.5.8zm18 .4c0 .2-1.5.4-3.2.4-2.3 0-2.9-.3-1.9-.9 1.2-.8 5.1-.4 5.1.5zm190.5-.5c-.4.5-1.5.9-2.6.9-2.6 0-1.7-1.5 1-1.7 1.2-.1 1.9.2 1.6.8zm52.5-.7c0 .9-3 1.4-3.5.6-.4-.6.3-1 1.4-1 1.2 0 2.1.2 2.1.4zm54 0c0 .2-.7.6-1.5 1-.8.3-1.5.1-1.5-.4 0-.6.7-1 1.5-1s1.5.2 1.5.4zm-578 2.7c-.7 1.3-2.1 1.9-4.3 1.9-3.2-.1-3.2-.1-1.1-1.8 1.1-1 3-1.8 4.2-1.9 1.9-.2 2.1.1 1.2 1.8zm245-1.7c0 .2-.7.6-1.5 1-.8.3-1.5.1-1.5-.4 0-.6.7-1 1.5-1s1.5.2 1.5.4zm49.4 3.3c-3.5 2.8-4.3 2.9-3.9.5.2-.9.4-2 .4-2.4.1-.9 3.3-1.5 5-.9 1 .3.6 1.1-1.5 2.8zM636 670c0 .5-1 1-2.2.9-2.2 0-2.2-.1-.3-.9 1.1-.5 2.1-.9 2.3-.9.1-.1.2.3.2.9zm-350 1.5c-.7.9-1.5 1.3-1.9 1-.3-.3.1-1 .9-1.5 2.1-1.4 2.4-1.2 1 .5zm521-1.1c0 .2-.7.7-1.6 1-.8.3-1.2.2-.9-.4.6-1 2.5-1.4 2.5-.6zm20.1 1c-1.1 1.3-6.1 2.8-6.1 1.8 0-1 3.6-3.1 5.4-3.2 1.5 0 1.6.3.7 1.4zm-576.7.8c-.3.4-1.6.8-3 .8s-2.3-.4-2-.8c.2-.4 1.6-.8 3-.8 1.3 0 2.2.4 2 .8zm418 .9c-.3.5-1.9.9-3.6.9-2.5 0-2.8-.3-1.9-1.4 1.2-1.4 6.5-1 5.5.5zM842 672c-2 1.3-4 1.3-4 0 0-.6 1.2-1 2.8-1 2.1 0 2.4.2 1.2 1zm-418.5 1c-.3.5-1.6 1-2.8.9-2-.1-2-.2.3-.9 1.4-.4 2.6-.8 2.8-.9.2-.1 0 .3-.3.9zm207.8-.3c-.7.2-1.9.2-2.5 0-.7-.3-.2-.5 1.2-.5s1.9.2 1.3.5zm71.7.3c0 .5-1.2 1-2.7.9l-2.8-.1 2.5-.8c1.4-.4 2.6-.8 2.8-.9.1-.1.2.3.2.9zm-298 .8c0 .5-.7.9-1.5.9s-1.2-.4-.9-.9c.3-.4.9-.8 1.5-.8.5 0 .9.4.9.8zm174.3.8c-.2 1.1-6.3 2.5-6.3 1.5 0-.4.5-1.2 1.2-1.9 1.3-1.3 5.4-1 5.1.4zM859 674c0 .5-1.2 1-2.7.9-2.5 0-2.6-.1-.8-.9 2.7-1.2 3.5-1.2 3.5 0zm16 .5c-1.4.8-3.2 1.4-4 1.4-.8 0-.1-.7 1.5-1.4 3.9-1.8 5.7-1.8 2.5 0zm-400.9.9c-1.2 1.4-6.1 1.9-6.1.6 0-1.1 1.9-1.8 4.9-1.9 1.9-.1 2.1.2 1.2 1.3zm17.2-.4c.8 0 .7.4-.1 1.2-1.3 1.3-6.2 2-6.2.8 0-1.3 2.5-3 3.8-2.5.8.3 1.9.5 2.5.5zm295.4-.4c-.3.3-1.2.4-1.9.1-.8-.3-.5-.6.6-.6 1.1-.1 1.7.2 1.3.5zM262 675.8c0 .5-.7.9-1.5.9s-1.5-.4-1.5-.9c0-.4.7-.8 1.5-.8s1.5.4 1.5.8zm20.3.3c-.6.6-2.5 1.2-4.2 1.4-2.6.2-2.9 0-2-1.1.6-.8 2.5-1.4 4.2-1.4 2.3 0 2.8.3 2 1.1zm-141.3 2c0 1.4-1.7 1-2.3-.5-.4-1-.1-1.3.9-.9.7.3 1.4.9 1.4 1.4zm225.3-.7c.3.8 0 1.7-.7 1.9-1 .4-1.2-.1-.9-1.4.6-2.3.9-2.4 1.6-.5zm18.1.7c-2.8 1.1-7 1.1-5.8 0 1.2-1.2 4.6-1.9 6.3-1.2 1.1.3 1 .6-.5 1.2zm402.6-1.3c0 .5-.7.9-1.5.9s-1.5-.4-1.5-.9c0-.4.7-.8 1.5-.8s1.5.4 1.5.8zm-280.4 1.1c-.5.8-5.6.3-5.6-.5 0-.2 1.4-.4 3.1-.4 1.6 0 2.8.4 2.5.9zm53.4-.5c0 .9-3 1.4-3.5.6-.4-.6.3-1 1.4-1 1.2 0 2.1.2 2.1.4zm278.4 1c-.3.8-1.5 1.1-3.2.8-2.4-.5-2.5-.6-.7-1.3 3.1-1.2 4.5-1 3.9.5zm17.1.5c-.3.6-1.1 1.1-1.7 1.1-.6 0-.6-.6.2-1.5 1.4-1.7 2.6-1.3 1.5.4zm15.5-1.3c0 .8-1.9 1.3-2.4.6-.3-.5.1-.9.9-.9s1.5.2 1.5.3zm-644 2.5c0 .5-1.9.9-4.1.9-3.3 0-3.9-.3-3-1.3 1.2-1.5 7.1-1.1 7.1.4zm69.8-.9c-.3.7-2 1.4-3.9 1.6-5 .5-1.9-1.9 3.4-2.7.5 0 .7.5.5 1.1zm17.7-.2c.3.5-.2 1-1.2 1.1-1 0-3.1.3-4.7.5-2.4.4-2.7.3-1.8-.8 1.3-1.7 6.8-2.2 7.7-.8zm104.7.3c-.6.7-2.8 1.4-4.8 1.5-3.1.2-3.5 0-2.6-1.1.7-.8 2.8-1.4 4.8-1.5 2.8-.1 3.4.1 2.6 1.1zm17 0c-1.3 1.5-7.2 2.2-7.2.8 0-1.2 1.8-1.9 5.4-2 2.2-.1 2.6.2 1.8 1.2zm17 .9c-.5.5-2.5.8-4.3.6-3.3-.4-3.4-.4-.9-1.5 2.8-1.2 6.6-.5 5.2.9zm70.2-1.4c.2.4-1.1.6-3 .4-1.9-.2-3.4-.6-3.4-.8 0-.8 5.9-.4 6.4.4zm13.6.2c0 .5-.7 1-1.6 1-.8 0-1.2-.5-.9-1 .3-.6 1-1 1.6-1 .5 0 .9.4.9 1zm246.6 0c.8 0 1.4.4 1.4 1 0 .5-1.9 1-4.1 1-3.6 0-4-.2-2.9-1.5.7-.9 2-1.3 2.7-1 .8.3 2.1.5 2.9.5zm19.4-.1c0 .5-1.1.8-2.5.7-3.8-.4-4.3-1.6-.7-1.6 1.8 0 3.2.4 3.2.9zm69.4.6c-.4.8-1.6 1.5-2.8 1.5-2 0-2-.1.4-1.4 1.4-.8 2.6-1.4 2.7-1.5.1-.1 0 .6-.3 1.4zM174 680c0 .5-.5 1-1.1 1-.5 0-.7-.5-.4-1 .3-.6.8-1 1.1-1 .2 0 .4.4.4 1zm17.6.2c.3.4-1.3.8-3.6.8s-3.9-.4-3.5-.9c.7-1.2 6.4-1.1 7.1.1zm17.4-.2c0 .5-1.6 1-3.5 1s-3.5-.4-3.5-.8 1.6-.9 3.5-1c1.9-.2 3.5.2 3.5.8zm53-.6c0 1.1-1.9 1.5-2.5.6-.3-.5.1-1 .9-1 .9 0 1.6.2 1.6.4zm139 .6c0 .6-1.7 1-3.7 1-2.2 0-3.3-.4-2.6-.8 1.8-1.2 6.3-1.3 6.3-.2zm70 0c0 .5-1.8 1-4.1 1-2.4 0-3.8-.4-3.4-1 .3-.6 2.2-1 4.1-1 1.9 0 3.4.4 3.4 1zm191 .6c0 .2-1.7.4-3.7.4-2.4 0-3.3-.3-2.5-.9 1.2-.7 6.2-.4 6.2.5zm52.5-.6c.4.6-.7 1-2.7.9-2.7 0-3-.2-1.3-.9 2.7-1.2 3.3-1.2 4 0zm-457.8.6c-.3.3-1.2.4-1.9.1-.8-.3-.5-.6.6-.6 1.1-.1 1.7.2 1.3.5zm227 0c-.3.3-1.2.4-1.9.1-.8-.3-.5-.6.6-.6 1.1-.1 1.7.2 1.3.5z"/><path d="M828.8 583.7c.6.2 1.8.2 2.5 0 .6-.3.1-.5-1.3-.5-1.4 0-1.9.2-1.2.5zM688.7 629.7c-3.7 3.6-6.5 6.8-6.2 7.1.2.3 2.8-1.9 5.7-4.9 10.3-10.5 10.6-12.1.5-2.2zM155 629.5c-3 3-5.1 5.5-4.6 5.5.7 0 6.8-5.9 9.5-9.3 2.6-3.3.5-1.7-4.9 3.8zM497.5 627c-1 1.1-1.5 2-1.2 2 .4 0 1.6-.9 2.7-2s1.6-2 1.2-2c-.5 0-1.7.9-2.7 2zM733.5 654.9c-.3.6.4.9 1.5.8 1.1-.1 2-.5 2-.9 0-1.1-2.8-1-3.5.1z"/></svg>